SplineFontDB: 3.0
FontName: LetterGothicCode-R
FullName: Letter Gothic Code Regular
FamilyName: Letter Gothic Code
Weight: Regular
Copyright: (URW)++,Copyright 2014 by (URW)++ Design & Development
Version: 1.00
ItalicAngle: 0
UnderlinePosition: -425
UnderlineWidth: 143
Ascent: 1626
Descent: 422
InvalidEm: 0
sfntRevision: 0x00010000
LayerCount: 2
Layer: 0 1 "Back" 1
Layer: 1 1 "Fore" 0
XUID: [1021 754 1859939275 22777]
StyleMap: 0x0040
FSType: 0
OS2Version: 1
OS2_WeightWidthSlopeOnly: 0
OS2_UseTypoMetrics: 0
CreationTime: 1456764359
ModificationTime: 1513932770
PfmFamily: 49
TTFWeight: 400
TTFWidth: 5
LineGap: 307
VLineGap: 0
Panose: 2 11 8 9 6 1 1 1 1 1
OS2TypoAscent: 1626
OS2TypoAOffset: 0
OS2TypoDescent: -422
OS2TypoDOffset: 0
OS2TypoLinegap: 0
OS2WinAscent: 1974
OS2WinAOffset: 0
OS2WinDescent: 440
OS2WinDOffset: 0
HheadAscent: 1626
HheadAOffset: 0
HheadDescent: -422
HheadDOffset: 0
OS2SubXSize: 938
OS2SubYSize: 1161
OS2SubXOff: 0
OS2SubYOff: 307
OS2SupXSize: 938
OS2SupYSize: 1161
OS2SupXOff: 0
OS2SupYOff: -521
OS2StrikeYSize: 131
OS2StrikeYPos: 799
OS2FamilyClass: 2057
OS2Vendor: 'URW '
OS2CodePages: 2000009d.00000000
OS2UnicodeRanges: 800002ef.100178ef.00000000.00000000
MarkAttachClasses: 1
DEI: 91125
TtTable: prep
PUSHW_1
 511
SCANCTRL
PUSHB_1
 1
SCANTYPE
SVTCA[y-axis]
MPPEM
PUSHB_1
 8
LT
IF
PUSHB_2
 1
 1
INSTCTRL
EIF
PUSHB_2
 70
 6
CALL
IF
POP
PUSHB_1
 16
EIF
MPPEM
PUSHB_1
 20
GT
IF
POP
PUSHB_1
 128
EIF
SCVTCI
PUSHB_1
 6
CALL
NOT
IF
SVTCA[y-axis]
PUSHB_1
 4
DUP
RCVT
PUSHB_1
 3
CALL
WCVTP
PUSHB_1
 5
DUP
RCVT
PUSHB_3
 4
 148
 2
CALL
PUSHB_1
 3
CALL
WCVTP
SVTCA[x-axis]
PUSHB_1
 6
DUP
RCVT
PUSHB_1
 3
CALL
WCVTP
PUSHB_1
 8
DUP
RCVT
PUSHB_3
 6
 95
 2
CALL
PUSHB_2
 3
 70
SROUND
CALL
WCVTP
PUSHB_1
 7
DUP
RCVT
PUSHB_3
 8
 22
 2
CALL
PUSHB_2
 3
 70
SROUND
CALL
WCVTP
PUSHB_1
 9
DUP
RCVT
PUSHW_3
 6
 32767
 2
CALL
PUSHB_2
 3
 70
SROUND
CALL
WCVTP
PUSHB_1
 10
DUP
RCVT
PUSHB_3
 9
 226
 2
CALL
PUSHB_2
 3
 70
SROUND
CALL
WCVTP
PUSHB_1
 11
DUP
RCVT
PUSHB_3
 10
 108
 2
CALL

StartChar: .notdef
Encoding: 763 -1 0
Width: 1120
Flags: W
HStem: 0 102<252 868> 1373 102<252 868>
VStem: 150 102<102 1373> 868 102<102 1373>
LayerCount: 2
Fore
SplineSet
150 0 m 1,0,-1
 150 1475 l 1,1,-1
 970 1475 l 1,2,-1
 970 0 l 1,3,-1
 150 0 l 1,0,-1
252 102 m 1,4,-1
 868 102 l 1,5,-1
 868 1373 l 1,6,-1
 252 1373 l 1,7,-1
 252 102 l 1,4,-1
EndSplineSet
EndChar

StartChar: exclam
Encoding: 1 33 2
Width: 1120
GlyphClass: 2
Flags: W
HStem: -29 330<447.546 672.454> 1455 20G<460 660>
VStem: 395 330<22.0205 248.454> 460 200<1077.47 1475> 497 135<449 846.533>
LayerCount: 2
Fore
SplineSet
395 136 m 256,0,1
 395 205 395 205 443.5 253 c 128,-1,2
 492 301 492 301 560.5 301 c 128,-1,3
 629 301 629 301 677 252.5 c 128,-1,4
 725 204 725 204 725 135.5 c 128,-1,5
 725 67 725 67 677 19 c 128,-1,6
 629 -29 629 -29 560 -29 c 256,7,8
 491 -29 491 -29 443 19 c 128,-1,9
 395 67 395 67 395 136 c 256,0,1
460 1475 m 1,10,-1
 660 1475 l 1,11,-1
 632 449 l 1,12,-1
 497 449 l 1,13,-1
 460 1475 l 1,10,-1
EndSplineSet
EndChar

StartChar: quotedbl
Encoding: 2 34 3
Width: 1120
GlyphClass: 2
Flags: W
HStem: 924 570<253 419 684 850>
VStem: 228 664
LayerCount: 2
Fore
SplineSet
228 1494 m 5,0,-1
 461 1494 l 5,1,-1
 419 924 l 5,2,-1
 253 924 l 5,3,-1
 228 1494 l 5,0,-1
659 1494 m 1,4,-1
 892 1494 l 1,5,-1
 850 924 l 1,6,-1
 684 924 l 1,7,-1
 659 1494 l 1,4,-1
EndSplineSet
EndChar

StartChar: numbersign
Encoding: 3 35 4
Width: 1120
GlyphClass: 2
Flags: W
HStem: 469 131<103 292 755 947> 865 143<174 366 829 1019>
VStem: 168 148<-191 -43> 458 146<-191 -45> 510 147<1496 1643> 800 146<1497 1643>
DStem2: 168 -191 316 -191 0.183318 0.983054<27.131 671.547 804.727 1074.4 1219.56 1865.62> 458 -191 604 -191 0.183318 0.983054<26.7644 698.678 832.041 1101.53 1246.69 1865.62>
LayerCount: 2
Fore
SplineSet
72 469 m 1,0,-1
 103 600 l 1,1,-1
 316 600 l 1,2,-1
 366 865 l 1,3,-1
 147 865 l 1,4,-1
 174 1008 l 1,5,-1
 391 1008 l 1,6,-1
 510 1643 l 1,7,-1
 657 1643 l 1,8,-1
 316 -191 l 1,9,-1
 168 -191 l 1,10,-1
 292 469 l 1,11,-1
 72 469 l 1,0,-1
458 -191 m 1,12,-1
 800 1643 l 1,13,-1
 946 1643 l 1,14,-1
 829 1008 l 1,15,-1
 1048 1008 l 1,16,-1
 1019 865 l 1,17,-1
 804 865 l 1,18,-1
 755 600 l 1,19,-1
 974 600 l 1,20,-1
 947 469 l 1,21,-1
 730 469 l 1,22,-1
 604 -191 l 1,23,-1
 458 -191 l 1,12,-1
EndSplineSet
EndChar

StartChar: dollar
Encoding: 4 36 5
Width: 1120
GlyphClass: 2
Flags: W
HStem: 129 139<376.5 501 646 733.29> 1113 21G<851 873.614> 1227 144<416.418 501 646 767.149>
VStem: 212 152<947.935 1173.96> 501 145<-62 132.599 268 686 874 1227 1371 1522> 797.01 151.99<331.13 598.857>
LayerCount: 2
Fore
SplineSet
501 727 m 1,0,1
 212 829.702148438 212 829.702148438 212 1065 c 0,2,3
 212 1199 212 1199 323 1291 c 0,4,5
 362 1324 362 1324 412.5 1347.5 c 128,-1,6
 463 1371 463 1371 494 1371 c 2,7,-1
 501 1371 l 1,8,-1
 501 1522 l 1,9,-1
 646 1522 l 1,10,-1
 646 1371 l 1,11,12
 804 1351 804 1351 947 1227 c 1,13,-1
 858 1113 l 1,14,15
 844 1125 844 1125 822.5 1144.5 c 128,-1,16
 801 1164 801 1164 746 1198.5 c 128,-1,17
 691 1233 691 1233 658 1233 c 2,18,-1
 646 1233 l 1,19,-1
 646 833 l 1,20,21
 738 799 738 799 803 754 c 0,22,23
 949 651 949 651 949 466 c 0,24,25
 949 183 949 183 646 129 c 1,26,-1
 646 -62 l 1,27,-1
 501 -62 l 1,28,-1
 501 129 l 1,29,30
 409 136 409 136 341 168.5 c 128,-1,31
 273 201 273 201 190 278 c 1,32,-1
 171 295 l 1,33,-1
 264 404 l 1,34,35
 350 327 350 327 400 297.5 c 128,-1,36
 450 268 450 268 494 268 c 2,37,-1
 501 268 l 1,38,-1
 501 727 l 1,0,1
364 1060 m 0,39,40
 364 949 364 949 501 874 c 1,41,-1
 501 1227 l 1,42,-1
 494 1227 l 2,43,44
 450 1227 450 1227 407 1172 c 128,-1,45
 364 1117 364 1117 364 1060 c 0,39,40
646 268 m 1,46,-1
 652 268 l 2,47,48
 670 268 670 268 700 286 c 0,49,50
 797.009765625 344.404296875 797.009765625 344.404296875 797.009765625 459.642578125 c 0,51,52
 797.009765625 526.983398438 797.009765625 526.983398438 761.5 585.5 c 128,-1,53
 726 644 726 644 666 675 c 1,54,-1
 646 686 l 1,55,-1
 646 268 l 1,46,-1
EndSplineSet
EndChar

StartChar: percent
Encoding: 5 37 6
Width: 1120
GlyphClass: 2
Flags: W
HStem: -27 21G<92 250.079> -12 102<731.767 874.318> 560 102<731.523 874.613> 858 102<244.768 388.109> 1430 102<246.932 387.871> 1481 20G<847.974 1010>
VStem: 84 129<997.61 1402.92> 420 129<985.355 1392.22> 571 129<126.529 533.646> 907 129<117.973 522.222>
DStem2: 92 -27 240 -27 0.450017 0.89302<66.6025 1709.25>
LayerCount: 2
Fore
SplineSet
84 1201 m 128,-1,1
 84 1386 84 1386 147.5 1459 c 128,-1,2
 211 1532 211 1532 321 1532 c 0,3,4
 549 1532 549 1532 549 1195 c 0,5,6
 549 1005 549 1005 485 931.5 c 128,-1,7
 421 858 421 858 311.5 858 c 128,-1,8
 202 858 202 858 143 937 c 128,-1,0
 84 1016 84 1016 84 1201 c 128,-1,1
92 -27 m 1,9,-1
 858 1501 l 1,10,-1
 1010 1501 l 1,11,-1
 240 -27 l 1,12,-1
 92 -27 l 1,9,-1
311.5 1430 m 0,13,14
 213 1430 213 1430 213 1183 c 0,15,16
 213 1048 213 1048 243.5 1004 c 128,-1,17
 274 960 274 960 322 960 c 0,18,19
 420 960 420 960 420 1195 c 0,20,21
 420 1341 420 1341 390 1385.5 c 128,-1,22
 360 1430 360 1430 311.5 1430 c 0,13,14
571 331.5 m 128,-1,24
 571 516 571 516 634.5 589 c 128,-1,25
 698 662 698 662 808 662 c 0,26,27
 1036 662 1036 662 1036 325 c 0,28,29
 1036 222 1036 222 1021.5 162 c 128,-1,30
 1007 102 1007 102 972 62 c 0,31,32
 908 -12 908 -12 798.5 -12 c 128,-1,33
 689 -12 689 -12 630 67.5 c 128,-1,23
 571 147 571 147 571 331.5 c 128,-1,24
700 326 m 0,34,35
 700 179 700 179 730.5 134.5 c 128,-1,36
 761 90 761 90 804 90 c 0,37,38
 907 90 907 90 907 325 c 0,39,40
 907 471 907 471 876.5 515.5 c 128,-1,41
 846 560 846 560 798 560 c 0,42,43
 700 560 700 560 700 326 c 0,34,35
EndSplineSet
EndChar

StartChar: ampersand
Encoding: 6 38 7
Width: 1120
GlyphClass: 2
Flags: W
HStem: -27 139<299.892 595.667> 1363 139<381.269 530.22>
VStem: 85 152<174.769 498.535> 187 152<993.49 1322.36> 560 152<1057.27 1337.39> 769 153<417.222 754>
DStem2: 749 413 409 676 0.548063 -0.836437<-803.209 -598.877 -404.465 0 215.262 449.108>
LayerCount: 2
Fore
SplineSet
85 289.5 m 128,-1,1
 85 432 85 432 135.5 536.5 c 128,-1,2
 186 641 186 641 327 805 c 1,3,4
 244 935 244 935 215.5 1009.5 c 128,-1,5
 187 1084 187 1084 187 1172 c 0,6,7
 187 1359 187 1359 316 1451 c 0,8,9
 387 1502 387 1502 465.5 1502 c 128,-1,10
 544 1502 544 1502 610 1449 c 0,11,12
 712 1366 712 1366 712 1213 c 0,13,14
 712 1108 712 1108 670.5 1022.5 c 128,-1,15
 629 937 629 937 512 798 c 1,16,17
 555 711 555 711 578 674 c 128,-1,18
 601 637 601 637 749 413 c 1,19,20
 769 548 769 548 769 695 c 2,21,-1
 769 754 l 1,22,-1
 922 754 l 1,23,24
 913 423 913 423 849 269 c 1,25,26
 956 146 956 146 1035 68 c 1,27,-1
 932 -38 l 1,28,29
 826 75 826 75 769 140 c 1,30,31
 726 81 726 81 674 47 c 0,32,33
 564 -27 564 -27 423 -27 c 128,-1,34
 282 -27 282 -27 183.5 60 c 128,-1,0
 85 147 85 147 85 289.5 c 128,-1,1
237 308 m 0,35,36
 237 216 237 216 291 164 c 128,-1,37
 345 112 345 112 431 112 c 0,38,39
 601 112 601 112 690 251 c 1,40,41
 497 535 497 535 409 676 c 1,42,-1
 339 588 l 2,43,44
 237 461 237 461 237 308 c 0,35,36
339 1179 m 0,45,46
 339 1046 339 1046 427 918 c 1,47,48
 447 944 447 944 488 1010.5 c 128,-1,49
 529 1077 529 1077 544.5 1116 c 128,-1,50
 560 1155 560 1155 560 1215.5 c 128,-1,51
 560 1276 560 1276 530 1319.5 c 128,-1,52
 500 1363 500 1363 454.5 1363 c 128,-1,53
 409 1363 409 1363 374 1308.5 c 128,-1,54
 339 1254 339 1254 339 1179 c 0,45,46
EndSplineSet
EndChar

StartChar: quotesingle
Encoding: 7 39 8
Width: 1120
GlyphClass: 2
Flags: W
HStem: 924 570<476.5 626.5>
VStem: 456.5 207<1273.15 1494>
LayerCount: 2
Fore
SplineSet
456.5 1494 m 1,0,-1
 663.5 1494 l 1,1,-1
 626.5 924 l 1,2,-1
 476.5 924 l 1,3,-1
 456.5 1494 l 1,0,-1
EndSplineSet
EndChar

StartChar: parenleft
Encoding: 8 40 9
Width: 1120
GlyphClass: 2
Flags: W
VStem: 318 152<405.614 1054.34>
LayerCount: 2
Fore
SplineSet
318 730 m 0,0,1
 318 1003 318 1003 422 1212.5 c 128,-1,2
 526 1422 526 1422 682 1535 c 0,3,4
 696 1544 696 1544 728 1568 c 1,5,-1
 802 1468 l 1,6,7
 712 1394 712 1394 666 1341 c 0,8,9
 569 1230 569 1230 519.5 1070 c 128,-1,10
 470 910 470 910 470 730 c 0,11,12
 470 479 470 479 560 283 c 0,13,14
 600 194 600 194 650 134 c 128,-1,15
 700 74 700 74 802 -7 c 1,16,-1
 728 -107 l 1,17,-1
 706 -92 l 1,18,19
 578 -1 578 -1 504 107 c 0,20,21
 318 376 318 376 318 730 c 0,0,1
EndSplineSet
EndChar

StartChar: parenright
Encoding: 9 41 10
Width: 1120
GlyphClass: 2
Flags: W
VStem: 650 152<403.714 1047.92>
DStem2: 338 9 394 -107 0.808736 0.588172<-22.9387 233.779>
LayerCount: 2
Fore
SplineSet
318 -7 m 1,0,1
 330 4 330 4 338 9 c 0,2,3
 444 95 444 95 502 181 c 0,4,5
 650 399 650 399 650 730 c 0,6,7
 650 1140 650 1140 428 1370 c 0,8,9
 394 1405 394 1405 318 1468 c 1,10,-1
 394 1568 l 1,11,12
 502 1490 502 1490 558 1428 c 0,13,14
 676 1295 676 1295 739 1110 c 128,-1,15
 802 925 802 925 802 730 c 0,16,17
 802 457 802 457 697 246 c 128,-1,18
 592 35 592 35 438 -75 c 1,19,-1
 394 -107 l 1,20,-1
 318 -7 l 1,0,1
EndSplineSet
EndChar

StartChar: asterisk
Encoding: 10 42 11
Width: 1120
GlyphClass: 2
Flags: W
HStem: 1465 20G<488 633>
VStem: 488 145<1105 1485>
DStem2: 118 1213 77 1079 0.962484 -0.271339<0 385.424> 218 673 328 589 0.616662 0.787228<1.70566 375.429> 667 973 560 882 0.616662 -0.787228<5.65492 379.995> 633 1105 667 973 0.962484 0.271339<0 385.424>
LayerCount: 2
Fore
SplineSet
77 1079 m 1,0,-1
 118 1213 l 1,1,-1
 488 1105 l 1,2,-1
 488 1485 l 1,3,-1
 633 1485 l 1,4,-1
 633 1105 l 1,5,-1
 1003 1213 l 1,6,-1
 1043 1079 l 1,7,-1
 667 973 l 1,8,-1
 902 673 l 1,9,-1
 793 589 l 1,10,-1
 560 882 l 1,11,-1
 328 589 l 1,12,-1
 218 673 l 1,13,-1
 453 973 l 1,14,-1
 77 1079 l 1,0,-1
EndSplineSet
EndChar

StartChar: plus
Encoding: 11 43 12
Width: 1120
GlyphClass: 2
Flags: W
HStem: 664 143<60 488 631 1060>
VStem: 488 143<180 664 807 1294>
LayerCount: 2
Fore
SplineSet
60 664 m 1,0,-1
 60 807 l 1,1,-1
 488 807 l 1,2,-1
 488 1294 l 1,3,-1
 631 1294 l 1,4,-1
 631 807 l 1,5,-1
 1060 807 l 1,6,-1
 1060 664 l 1,7,-1
 631 664 l 1,8,-1
 631 180 l 1,9,-1
 488 180 l 1,10,-1
 488 664 l 1,11,-1
 60 664 l 1,0,-1
EndSplineSet
EndChar

StartChar: comma
Encoding: 12 44 13
Width: 1120
GlyphClass: 2
Flags: W
HStem: -256 140<398 452.428>
VStem: 398 328<43.6179 240.651>
LayerCount: 2
Fore
SplineSet
394 148.5 m 128,-1,1
 394 219 394 219 445 260 c 128,-1,2
 496 301 496 301 561 301 c 128,-1,3
 626 301 626 301 676 247.5 c 128,-1,4
 726 194 726 194 726 100 c 128,-1,5
 726 6 726 6 637.5 -105.5 c 128,-1,6
 549 -217 549 -217 398 -256 c 5,7,-1
 398 -116 l 5,8,9
 414 -112 414 -112 529 -2 c 1,10,11
 470 7 470 7 432 42.5 c 128,-1,0
 394 78 394 78 394 148.5 c 128,-1,1
EndSplineSet
EndChar

StartChar: hyphen
Encoding: 13 45 14
Width: 1120
GlyphClass: 2
Flags: W
HStem: 668 131<293.5 826.5>
VStem: 293.5 533<668 799>
LayerCount: 2
Fore
SplineSet
293.5 668 m 1,0,-1
 293.5 799 l 1,1,-1
 826.5 799 l 1,2,-1
 826.5 668 l 1,3,-1
 293.5 668 l 1,0,-1
EndSplineSet
EndChar

StartChar: period
Encoding: 14 46 15
Width: 1120
GlyphClass: 2
Flags: W
HStem: -29 330<447.546 672.454>
VStem: 395 330<22.0205 248.454>
LayerCount: 2
Fore
SplineSet
395 136 m 256,0,1
 395 205 395 205 443.5 253 c 128,-1,2
 492 301 492 301 560.5 301 c 128,-1,3
 629 301 629 301 677 252.5 c 128,-1,4
 725 204 725 204 725 135.5 c 128,-1,5
 725 67 725 67 677 19 c 128,-1,6
 629 -29 629 -29 560 -29 c 256,7,8
 491 -29 491 -29 443 19 c 128,-1,9
 395 67 395 67 395 136 c 256,0,1
EndSplineSet
EndChar

StartChar: slash
Encoding: 15 47 16
Width: 1120
GlyphClass: 2
Flags: W
DStem2: 175 -53 325 -53 0.365598 0.930773<54.8397 1698.59>
LayerCount: 2
Fore
SplineSet
175 -53 m 1,0,-1
 796 1528 l 1,1,-1
 945 1528 l 1,2,-1
 325 -53 l 1,3,-1
 175 -53 l 1,0,-1
EndSplineSet
EndChar

StartChar: zero
Encoding: 16 48 17
Width: 1120
GlyphClass: 2
Flags: W
HStem: -27 139<434.602 690.962> 597 277<468.285 660.991> 1364 139<430.028 686.95>
VStem: 132 152<317.502 1159.02> 426 276.506<639.285 831.447> 836 152<317.916 1161.4>
LayerCount: 2
Fore
SplineSet
132 777.5 m 128,-1,1
 132 1038 132 1038 178 1187.5 c 128,-1,2
 224 1337 224 1337 324 1420 c 128,-1,3
 424 1503 424 1503 565 1503 c 0,4,5
 661 1503 661 1503 746 1454.5 c 128,-1,6
 831 1406 831 1406 885.5 1319 c 128,-1,7
 940 1232 940 1232 964 1096 c 128,-1,8
 988 960 988 960 988 699 c 128,-1,9
 988 438 988 438 942.5 289 c 128,-1,10
 897 140 897 140 796.5 56.5 c 128,-1,11
 696 -27 696 -27 578 -27 c 0,12,13
 352 -27 352 -27 235 157 c 0,14,15
 180 243 180 243 156 380 c 128,-1,0
 132 517 132 517 132 777.5 c 128,-1,1
284 763 m 128,-1,17
 284 569 284 569 297 465.5 c 128,-1,18
 310 362 310 362 340.5 283.5 c 128,-1,19
 371 205 371 205 430 158.5 c 128,-1,20
 489 112 489 112 559 112 c 0,21,22
 664 112 664 112 726.5 193.5 c 128,-1,23
 789 275 789 275 812.5 397 c 128,-1,24
 836 519 836 519 836 713 c 128,-1,25
 836 907 836 907 823.5 1010 c 128,-1,26
 811 1113 811 1113 780 1192.5 c 128,-1,27
 749 1272 749 1272 689.5 1318 c 128,-1,28
 630 1364 630 1364 559 1364 c 0,29,30
 456 1364 456 1364 393.5 1283.5 c 128,-1,31
 331 1203 331 1203 307.5 1080 c 128,-1,16
 284 957 284 957 284 763 c 128,-1,17
426 736.5 m 132,-1,33
 426 794 426 794 467 834 c 132,-1,34
 508 874 508 874 565 874 c 132,-1,35
 622 874 622 874 662.252929688 832.740234375 c 132,-1,36
 702.505859375 791.481445312 702.505859375 791.481445312 702.505859375 734.494140625 c 128,-1,37
 702.505859375 677.505859375 702.505859375 677.505859375 662.252929688 637.252929688 c 132,-1,38
 622 597 622 597 564 597 c 132,-1,39
 506 597 506 597 466 638 c 132,-1,32
 426 679 426 679 426 736.5 c 132,-1,33
EndSplineSet
EndChar

StartChar: one
Encoding: 17 49 18
Width: 1120
GlyphClass: 2
Flags: W
HStem: 0 131<220 502 648 914> 1200 142<206 348> 1457 20G<582.519 648>
VStem: 502 146<131 1291>
DStem2: 206 1342 206 1200 0.956385 0.292109<0 268.192>
LayerCount: 2
Fore
SplineSet
206 1200 m 1,0,-1
 206 1342 l 1,1,-1
 648 1477 l 1,2,-1
 648 131 l 1,3,-1
 914 131 l 1,4,-1
 914 0 l 1,5,-1
 220 0 l 1,6,-1
 220 131 l 1,7,-1
 502 131 l 1,8,-1
 502 1291 l 1,9,-1
 206 1200 l 1,0,-1
EndSplineSet
EndChar

StartChar: two
Encoding: 18 50 19
Width: 1120
GlyphClass: 2
Flags: W
HStem: 0 131<304 972> 1363 140<443.41 735.935>
VStem: 814 152<989.109 1285.92>
DStem2: 505 719 473 494.5 0.73039 0.68303<-395.528 441.832>
LayerCount: 2
Fore
SplineSet
148 0 m 1,0,-1
 148 66 l 2,1,2
 148 337 148 337 284 500 c 0,3,4
 358 588 358 588 505 719 c 128,-1,5
 652 850 652 850 690 888 c 0,6,7
 814 1012 814 1012 814 1144 c 0,8,9
 814 1240 814 1240 756 1301.5 c 128,-1,10
 698 1363 698 1363 594 1363 c 0,11,12
 354 1363 354 1363 326 1065 c 1,13,-1
 174 1065 l 1,14,15
 190 1198 190 1198 229 1283 c 128,-1,16
 268 1368 268 1368 358 1435.5 c 128,-1,17
 448 1503 448 1503 610 1503 c 128,-1,18
 772 1503 772 1503 869 1403 c 128,-1,19
 966 1303 966 1303 966 1136 c 128,-1,20
 966 969 966 969 820 819 c 0,21,22
 771 768 771 768 640.5 649.5 c 128,-1,23
 510 531 510 531 473 494.5 c 128,-1,24
 436 458 436 458 394 402 c 128,-1,25
 352 346 352 346 332 286 c 128,-1,26
 312 226 312 226 304 131 c 1,27,-1
 972 131 l 1,28,-1
 972 0 l 1,29,-1
 148 0 l 1,0,-1
EndSplineSet
EndChar

StartChar: three
Encoding: 19 51 20
Width: 1120
GlyphClass: 2
Flags: W
HStem: -27 139<385.033 735.91> 721 135<475 662.875> 1364 139<386.188 690.779>
VStem: 796 152<978.709 1259.82> 862 152<241.556 574.737>
LayerCount: 2
Fore
SplineSet
106 255 m 1,0,-1
 239 332 l 1,1,2
 247 316 247 316 251 307 c 0,3,4
 348 112 348 112 553 112 c 0,5,6
 709 112 709 112 785.5 198 c 128,-1,7
 862 284 862 284 862 415 c 128,-1,8
 862 546 862 546 770.5 633.5 c 128,-1,9
 679 721 679 721 523 721 c 2,10,-1
 475 721 l 1,11,-1
 475 856 l 1,12,13
 491 857 491 857 500 857 c 0,14,15
 597 859 597 859 670 905 c 0,16,17
 796 984 796 984 796 1122 c 0,18,19
 796 1202 796 1202 748 1265 c 0,20,21
 674 1364 674 1364 531 1364 c 128,-1,22
 388 1364 388 1364 288 1220 c 0,23,24
 280 1209 280 1209 253 1162 c 1,25,-1
 127 1234 l 1,26,27
 165 1297 165 1297 184 1322 c 0,28,29
 237 1392 237 1392 330 1447.5 c 128,-1,30
 423 1503 423 1503 549 1503 c 0,31,32
 736 1503 736 1503 854 1369 c 0,33,34
 948 1264 948 1264 948 1122 c 0,35,36
 948 1021 948 1021 903.5 947.5 c 128,-1,37
 859 874 859 874 756 803 c 1,38,39
 1014 686 1014 686 1014 412 c 0,40,41
 1014 232 1014 232 901 112 c 0,42,43
 771 -27 771 -27 544.5 -27 c 128,-1,44
 318 -27 318 -27 169 164 c 0,45,46
 147 192 147 192 106 255 c 1,0,-1
EndSplineSet
EndChar

StartChar: four
Encoding: 20 52 21
Width: 1120
GlyphClass: 2
Flags: W
HStem: 0 21G<677 823> 356 131<257 677 823 1036> 1456 20G<621.234 823>
VStem: 677 146<0 356 487 1277>
DStem2: 84 458 257 487 0.473997 0.880527<107.537 1002.23>
LayerCount: 2
Fore
SplineSet
84 356 m 1,0,-1
 84 458 l 1,1,-1
 632 1476 l 1,2,-1
 823 1476 l 1,3,-1
 823 487 l 1,4,-1
 1036 487 l 1,5,-1
 1036 356 l 1,6,-1
 823 356 l 1,7,-1
 823 0 l 1,8,-1
 677 0 l 1,9,-1
 677 356 l 1,10,-1
 84 356 l 1,0,-1
257 487 m 1,11,-1
 677 487 l 1,12,-1
 677 1277 l 1,13,-1
 257 487 l 1,11,-1
EndSplineSet
EndChar

StartChar: five
Encoding: 21 53 22
Width: 1120
GlyphClass: 2
Flags: W
HStem: -27 139<397.473 685.998> 785 139<425.402 696.721> 1344 131<358 884>
VStem: 822 152<252.912 646.409>
DStem2: 166 658 318 825 0.0732422 0.997314<177.684 698.22>
LayerCount: 2
Fore
SplineSet
146 222 m 1,0,-1
 262 306 l 1,1,2
 300 247 300 247 322 221 c 0,3,4
 421 112 421 112 536.5 112 c 128,-1,5
 652 112 652 112 737 198 c 128,-1,6
 822 284 822 284 822 447 c 0,7,8
 822 625.173828125 822 625.173828125 726 717 c 0,9,10
 656 785 656 785 562 785 c 0,11,12
 426 785 426 785 318 628 c 1,13,-1
 166 658 l 1,14,-1
 226 1475 l 1,15,-1
 884 1475 l 1,16,-1
 884 1344 l 1,17,-1
 358 1344 l 1,18,-1
 318 825 l 1,19,-1
 334 840 l 1,20,21
 436 924 436 924 568 924 c 0,22,23
 741 924 741 924 857.5 797.5 c 128,-1,24
 974 671 974 671 974 442 c 128,-1,25
 974 213 974 213 820 76 c 0,26,27
 704 -27 704 -27 531 -27 c 128,-1,28
 358 -27 358 -27 210 138 c 0,29,30
 184 168 184 168 146 222 c 1,0,-1
EndSplineSet
EndChar

StartChar: six
Encoding: 22 54 23
Width: 1120
GlyphClass: 2
Flags: W
HStem: -27 139<419.927 696.628> 801 139<450.806 723.7> 1364 139<541.336 842.194>
VStem: 134 166<283.759 995.819> 834 152<259.402 679.723>
LayerCount: 2
Fore
SplineSet
134 624 m 0,0,1
 134 894 134 894 208 1093 c 0,2,3
 304 1351 304 1351 493 1452 c 0,4,5
 588 1503 588 1503 699.5 1503 c 128,-1,6
 811 1503 811 1503 927 1439 c 1,7,-1
 973 1413 l 1,8,-1
 900 1286 l 1,9,10
 820 1335 820 1335 781 1349.5 c 128,-1,11
 742 1364 742 1364 691 1364 c 0,12,13
 581 1364 581 1364 487 1278 c 128,-1,14
 393 1192 393 1192 339.5 1038 c 128,-1,15
 286 884 286 884 286 800 c 2,16,-1
 286 783 l 1,17,-1
 298 800 l 1,18,19
 333 845 333 845 412.5 892.5 c 128,-1,20
 492 940 492 940 596 940 c 0,21,22
 763 940 763 940 874.5 815 c 128,-1,23
 986 690 986 690 986 496 c 128,-1,24
 986 302 986 302 911 180 c 0,25,26
 785 -26 785 -26 557 -27 c 0,27,28
 394 -27 394 -27 289 84 c 0,29,30
 134 249 134 249 134 624 c 0,0,1
300 459.5 m 128,-1,32
 300 301 300 301 370.5 206.5 c 128,-1,33
 441 112 441 112 553.5 112 c 128,-1,34
 666 112 666 112 750 202 c 128,-1,35
 834 292 834 292 834 475.5 c 128,-1,36
 834 659 834 659 739 745 c 0,37,38
 676 801 676 801 584 801 c 128,-1,39
 492 801 492 801 408 721 c 0,40,31
 300 618 300 618 300 459.5 c 128,-1,32
EndSplineSet
EndChar

StartChar: seven
Encoding: 23 55 24
Width: 1120
GlyphClass: 2
Flags: W
HStem: 0 21G<234 401.864> 1344 131<146 776>
DStem2: 234 0 394 0 0.365945 0.930636<58.5512 1449.12>
LayerCount: 2
Fore
SplineSet
146 1344 m 1,0,-1
 146 1475 l 1,1,-1
 974 1475 l 1,2,-1
 394 0 l 1,3,-1
 234 0 l 1,4,-1
 776 1344 l 1,5,-1
 146 1344 l 1,0,-1
EndSplineSet
EndChar

StartChar: eight
Encoding: 24 56 25
Width: 1120
GlyphClass: 2
Flags: W
HStem: -27 139<377.054 742.176> 699 135<399.338 722.129> 1364 139<396.968 722.012>
VStem: 89 152<238.392 572.533> 140 152<936.157 1255.29> 828 152<935.346 1263.18> 879 152<240.526 574.037>
LayerCount: 2
Fore
SplineSet
89 404 m 0,0,1
 89 653 89 653 292 763 c 1,2,-1
 312 773 l 1,3,4
 246 821 246 821 215 862 c 0,5,6
 140 963 140 963 140 1105 c 0,7,8
 140 1295 140 1295 260.5 1399 c 128,-1,9
 381 1503 381 1503 561.5 1503 c 128,-1,10
 742 1503 742 1503 861 1398 c 128,-1,11
 980 1293 980 1293 980 1120.5 c 128,-1,12
 980 948 980 948 891 845 c 0,13,14
 864 814 864 814 809 773 c 1,15,-1
 828 763 l 1,16,17
 1031 655 1031 655 1031 391 c 128,-1,18
 1031 127 1031 127 799 23 c 0,19,20
 687 -27 687 -27 562 -27 c 0,21,22
 356 -27 356 -27 222.5 82.5 c 128,-1,23
 89 192 89 192 89 404 c 0,0,1
241 406.5 m 128,-1,25
 241 259 241 259 332.5 185.5 c 128,-1,26
 424 112 424 112 560 112 c 256,27,28
 696 112 696 112 787.5 186 c 128,-1,29
 879 260 879 260 879 407.5 c 128,-1,30
 879 555 879 555 786 627 c 128,-1,31
 693 699 693 699 560 699 c 128,-1,32
 427 699 427 699 334 626.5 c 128,-1,24
 241 554 241 554 241 406.5 c 128,-1,25
292 1091 m 0,33,34
 292 965 292 965 369 899.5 c 128,-1,35
 446 834 446 834 561 834 c 128,-1,36
 676 834 676 834 752 900 c 128,-1,37
 828 966 828 966 828 1099 c 256,38,39
 828 1232 828 1232 752 1298 c 128,-1,40
 676 1364 676 1364 560 1364 c 0,41,42
 374 1364 374 1364 314 1212 c 0,43,44
 292 1154 292 1154 292 1091 c 0,33,34
EndSplineSet
EndChar

StartChar: nine
Encoding: 25 57 26
Width: 1120
GlyphClass: 2
Flags: W
HStem: -27 139<281.395 579.455> 535 139<397.201 668.22> 1364 139<421.538 699.943>
VStem: 132.993 152.014<797.44 1213.3> 836.007 151<479.877 692>
LayerCount: 2
Fore
SplineSet
132.993164062 984.540039062 m 0,0,1
 132.993164062 1175.58398438 132.993164062 1175.58398438 208.006835938 1296 c 0,2,3
 335.006835938 1502 335.006835938 1502 563.006835938 1503 c 0,4,5
 726.006835938 1503 726.006835938 1503 832.006835938 1391 c 0,6,7
 987.006835938 1228 987.006835938 1228 987.006835938 853 c 0,8,9
 987.006835938 581 987.006835938 581 913.006835938 383 c 0,10,11
 816.006835938 125 816.006835938 125 628.006835938 24 c 0,12,13
 532.006835938 -27 532.006835938 -27 416.006835938 -27 c 128,-1,14
 300.006835938 -27 300.006835938 -27 146.006835938 63 c 1,15,-1
 220.006835938 190 l 1,16,17
 345.006835938 112 345.006835938 112 442.006835938 112 c 128,-1,18
 539.006835938 112 539.006835938 112 633.506835938 198.5 c 128,-1,19
 728.006835938 285 728.006835938 285 782.006835938 438.5 c 128,-1,20
 836.006835938 592 836.006835938 592 836.006835938 676 c 2,21,-1
 836.006835938 692 l 1,22,-1
 823.006835938 676 l 2,23,24
 786.006835938 629 786.006835938 629 707.006835938 582 c 128,-1,25
 628.006835938 535 628.006835938 535 525.006835938 535 c 0,26,27
 356.006835938 535 356.006835938 535 244.506835938 660 c 128,-1,28
 133.006835938 785 133.006835938 785 133.006835938 979.5 c 0,29,30
 132.993164062 982.026367188 132.993164062 982.026367188 132.993164062 984.540039062 c 0,0,1
285.006835938 1000 m 128,-1,32
 285.006835938 816 285.006835938 816 381.006835938 731 c 0,33,34
 444.006835938 674 444.006835938 674 536.506835938 674 c 128,-1,35
 629.006835938 674 629.006835938 674 713.006835938 755 c 0,36,37
 821.006835938 859 821.006835938 859 821.006835938 1017.5 c 128,-1,38
 821.006835938 1176 821.006835938 1176 749.506835938 1270 c 128,-1,39
 678.006835938 1364 678.006835938 1364 566.006835938 1364 c 128,-1,40
 454.006835938 1364 454.006835938 1364 379.006835938 1284 c 0,41,31
 285.006835938 1184 285.006835938 1184 285.006835938 1000 c 128,-1,32
EndSplineSet
EndChar

StartChar: colon
Encoding: 26 58 27
Width: 1120
GlyphClass: 2
Flags: W
HStem: -29 330<447.546 672.454> 660 330<447.546 672.454>
VStem: 395 330<22.0205 248.454 711.021 937.454>
LayerCount: 2
Fore
SplineSet
395 136 m 256,0,1
 395 205 395 205 443.5 253 c 128,-1,2
 492 301 492 301 560.5 301 c 128,-1,3
 629 301 629 301 677 252.5 c 128,-1,4
 725 204 725 204 725 135.5 c 128,-1,5
 725 67 725 67 677 19 c 128,-1,6
 629 -29 629 -29 560 -29 c 256,7,8
 491 -29 491 -29 443 19 c 128,-1,9
 395 67 395 67 395 136 c 256,0,1
395 825 m 256,10,11
 395 894 395 894 443.5 942 c 128,-1,12
 492 990 492 990 560.5 990 c 128,-1,13
 629 990 629 990 677 941.5 c 128,-1,14
 725 893 725 893 725 824.5 c 128,-1,15
 725 756 725 756 677 708 c 128,-1,16
 629 660 629 660 560 660 c 256,17,18
 491 660 491 660 443 708 c 128,-1,19
 395 756 395 756 395 825 c 256,10,11
EndSplineSet
EndChar

StartChar: semicolon
Encoding: 27 59 28
Width: 1120
GlyphClass: 2
Flags: W
HStem: -256 140<398 452.428> 660 330<446.546 671.454>
VStem: 394 330<43.6179 243.588 711.021 937.454>
LayerCount: 2
Fore
SplineSet
394 148.5 m 128,-1,1
 394 219 394 219 445 260 c 128,-1,2
 496 301 496 301 561 301 c 128,-1,3
 626 301 626 301 676 247.5 c 128,-1,4
 726 194 726 194 726 100 c 128,-1,5
 726 6 726 6 637.5 -105.5 c 128,-1,6
 549 -217 549 -217 398 -256 c 5,7,-1
 398 -116 l 5,8,9
 414 -112 414 -112 529 -2 c 1,10,11
 470 7 470 7 432 42.5 c 128,-1,0
 394 78 394 78 394 148.5 c 128,-1,1
394 825 m 256,12,13
 394 894 394 894 442.5 942 c 128,-1,14
 491 990 491 990 559.5 990 c 128,-1,15
 628 990 628 990 676 941.5 c 128,-1,16
 724 893 724 893 724 824.5 c 128,-1,17
 724 756 724 756 676 708 c 128,-1,18
 628 660 628 660 559 660 c 256,19,20
 490 660 490 660 442 708 c 128,-1,21
 394 756 394 756 394 825 c 256,12,13
EndSplineSet
EndChar

StartChar: less
Encoding: 28 60 29
Width: 1120
GlyphClass: 2
Flags: W
VStem: 106 128<516 726>
DStem2: 106 662 234 621 0.909885 0.41486<99.4561 951.878> 234 621 106 580 0.909507 -0.415689<0 852.412>
LayerCount: 2
Fore
SplineSet
106 580 m 1,0,-1
 106 662 l 1,1,-1
 1014 1076 l 1,2,-1
 1014 965 l 1,3,-1
 234 621 l 1,4,-1
 1014 277 l 1,5,-1
 1014 165 l 1,6,-1
 106 580 l 1,0,-1
EndSplineSet
EndChar

StartChar: equal
Encoding: 29 61 30
Width: 1120
GlyphClass: 2
Flags: W
HStem: 433 143<60 1060> 697 143<60 1060>
LayerCount: 2
Fore
SplineSet
60 433 m 5,0,-1
 60 576 l 5,1,-1
 1060 576 l 5,2,-1
 1060 433 l 5,3,-1
 60 433 l 5,0,-1
60 697 m 5,4,-1
 60 840 l 5,5,-1
 1060 840 l 5,6,-1
 1060 697 l 5,7,-1
 60 697 l 5,4,-1
EndSplineSet
EndChar

StartChar: greater
Encoding: 30 62 31
Width: 1120
GlyphClass: 2
Flags: W
VStem: 886 128<516 726>
DStem2: 106 1076 106 965 0.909885 -0.41486<46.0494 898.472> 106 277 106 165 0.909507 0.415689<0 852.412>
LayerCount: 2
Fore
SplineSet
106 165 m 1,0,-1
 106 277 l 1,1,-1
 886 621 l 1,2,-1
 106 965 l 1,3,-1
 106 1076 l 1,4,-1
 1014 662 l 1,5,-1
 1014 580 l 1,6,-1
 106 165 l 1,0,-1
EndSplineSet
EndChar

StartChar: question
Encoding: 31 63 32
Width: 1120
GlyphClass: 2
Flags: W
HStem: -29 330<460 685.452> 1363 139<424.07 697.546>
VStem: 408 330<22.0205 248.454> 490 145<440 760.833> 777.504 152.496<995.189 1285.26>
LayerCount: 2
Fore
SplineSet
190 1143 m 1,0,1
 192 1162 192 1162 192 1172 c 0,2,3
 200 1269 200 1269 248 1343 c 0,4,5
 352 1502 352 1502 562 1502 c 0,6,7
 724 1502 724 1502 827 1405.5 c 128,-1,8
 930 1309 930 1309 930 1146.5 c 128,-1,9
 930 984 930 984 834 885 c 0,10,11
 810 862 810 862 700 778 c 0,12,13
 657 745 657 745 645.959960938 717.16015625 c 128,-1,14
 634.919921875 689.3203125 634.919921875 689.3203125 634.919921875 653.66015625 c 128,-1,15
 634.919921875 618 634.919921875 618 635 612 c 2,16,-1
 635 440 l 1,17,-1
 490 440 l 1,18,-1
 490 684 l 2,19,20
 490 759 490 759 522 804.5 c 128,-1,21
 554 850 554 850 635 911 c 128,-1,22
 716 972 716 972 736 999 c 0,23,24
 777.50390625 1057.71289062 777.50390625 1057.71289062 777.50390625 1154.07226562 c 128,-1,25
 777.50390625 1250.43164062 777.50390625 1250.43164062 712.751953125 1306.71582031 c 128,-1,26
 648 1363 648 1363 567 1363 c 128,-1,27
 486 1363 486 1363 433 1325.5 c 128,-1,28
 380 1288 380 1288 364 1224 c 0,29,30
 358 1198 358 1198 354 1143 c 1,31,-1
 190 1143 l 1,0,1
408 136 m 256,32,33
 408 205 408 205 456 253 c 128,-1,34
 504 301 504 301 573 301 c 128,-1,35
 642 301 642 301 690 252.5 c 128,-1,36
 738 204 738 204 738 135.5 c 128,-1,37
 738 67 738 67 690 19 c 128,-1,38
 642 -29 642 -29 572 -29 c 256,39,40
 503 -29 503 -29 455.5 19 c 128,-1,41
 408 67 408 67 408 136 c 256,32,33
EndSplineSet
EndChar

StartChar: at
Encoding: 32 64 33
Width: 1120
GlyphClass: 2
Flags: W
HStem: -27 150<393.666 729.623> 358 139<471.445 562.784 747.108 841.395> 1363 139<463.721 730.15>
VStem: 72 152<321.038 981.244> 316 152<498.166 801.222> 909 139<584.444 1142.15>
DStem2: 617 771 745 685 0.11473 0.993397<-153.523 135.295>
LayerCount: 2
Fore
SplineSet
72 616.5 m 128,-1,1
 72 977 72 977 220 1247 c 0,2,3
 280 1356 280 1356 380.5 1429 c 128,-1,4
 481 1502 481 1502 589.5 1502 c 128,-1,5
 698 1502 698 1502 789.5 1447.5 c 128,-1,6
 881 1393 881 1393 943 1297 c 0,7,8
 1048 1137 1048 1137 1048 899.5 c 128,-1,9
 1048 662 1048 662 974.5 514.5 c 128,-1,10
 901 367 901 367 779 367 c 0,11,12
 682 367 682 367 632 459 c 1,13,14
 583 402 583 402 549 380 c 128,-1,15
 515 358 515 358 474 358 c 0,16,17
 395 358 395 358 355.5 421 c 128,-1,18
 316 484 316 484 316 570.5 c 128,-1,19
 316 657 316 657 348.5 764.5 c 128,-1,20
 381 872 381 872 428 934 c 0,21,22
 512 1043 512 1043 701 1043 c 0,23,24
 723 1043 723 1043 786 1040 c 1,25,-1
 745 685 l 2,26,27
 740 641 740 641 740 601 c 0,28,29
 740 506 740 506 787 506 c 0,30,31
 823 506 823 506 848 550 c 0,32,33
 909 657 909 657 909 850.5 c 128,-1,34
 909 1044 909 1044 860.5 1152.5 c 128,-1,35
 812 1261 812 1261 727 1321 c 0,36,37
 668 1363 668 1363 601 1363 c 0,38,39
 487 1363 487 1363 395 1255.5 c 0,40,41
 224 1055.69042969 224 1055.69042969 224 590 c 0,42,43
 224 302 224 302 361 190 c 0,44,45
 443 123 443 123 539 123 c 128,-1,46
 635 123 635 123 710.5 157 c 128,-1,47
 786 191 786 191 892 279 c 1,48,-1
 947 143 l 1,49,50
 731 -27 731 -27 525 -27 c 0,51,52
 368 -27 368 -27 250 86 c 0,53,0
 72 256 72 256 72 616.5 c 128,-1,1
497 761.5 m 128,-1,55
 468 676 468 676 468 586.5 c 128,-1,56
 468 497 468 497 506 497 c 0,57,58
 522 497 522 497 547 522 c 128,-1,59
 572 547 572 547 584 587 c 128,-1,60
 596 627 596 627 617 771 c 2,61,-1
 636 905 l 1,62,63
 573 888 573 888 549.5 867.5 c 128,-1,54
 526 847 526 847 497 761.5 c 128,-1,55
EndSplineSet
EndChar

StartChar: A
Encoding: 33 65 34
Width: 1120
GlyphClass: 2
Flags: W
HStem: 0 21G<39 206.111 913.889 1081> 432 131<369 751> 1165 423<348.5 771.5>
VStem: 39 161<0 161> 920 161<0 161>
DStem2: 39 0 200 0 0.311737 0.950169<50.1896 501.812> 560 1588 560 1165 0.311737 -0.950169<401.921 1033.46 1169.47 1287.37>
LayerCount: 2
Fore
SplineSet
39 0 m 1,0,-1
 560 1588 l 1,1,-1
 1081 0 l 1,2,-1
 920 0 l 1,3,-1
 788 432 l 1,4,-1
 332 432 l 1,5,-1
 200 0 l 1,6,-1
 39 0 l 1,0,-1
369 563 m 1,7,-1
 751 563 l 1,8,-1
 560 1165 l 1,9,-1
 369 563 l 1,7,-1
EndSplineSet
EndChar

StartChar: B
Encoding: 34 66 35
Width: 1120
GlyphClass: 2
Flags: W
HStem: 0 131<297 714.451> 699 131<297 631.765> 1344 131<297 675.615>
VStem: 152 145<131 699 830 1344> 764 152<951.787 1257.46> 826 152<243.452 560.106>
LayerCount: 2
Fore
SplineSet
142 0 m 1,0,1
 142 11 142 11 144 56 c 1,2,-1
 152 428 l 1,3,-1
 152 1044 l 1,4,-1
 144 1419 l 1,5,6
 142 1464 142 1464 142 1475 c 1,7,-1
 416 1475 l 2,8,9
 550 1475 550 1475 620 1464 c 0,10,11
 767 1441 767 1441 841.5 1335.5 c 128,-1,12
 916 1230 916 1230 916 1099.5 c 128,-1,13
 916 969 916 969 832 871 c 0,14,15
 782 813 782 813 752 797 c 1,16,-1
 726 782 l 1,17,18
 852 726 852 726 915 627.5 c 128,-1,19
 978 529 978 529 978 407 c 0,20,21
 978 178 978 178 802 62 c 0,22,23
 704 0 704 0 534 0 c 2,24,-1
 142 0 l 1,0,1
297 131 m 1,25,-1
 532 131 l 2,26,27
 620 131 620 131 681 156.5 c 128,-1,28
 742 182 742 182 784 245.5 c 128,-1,29
 826 309 826 309 826 393 c 0,30,31
 826 554 826 554 710 636 c 0,32,33
 657 675 657 675 611.5 687 c 128,-1,34
 566 699 566 699 478 699 c 2,35,-1
 297 699 l 1,36,-1
 297 131 l 1,25,-1
297 830 m 1,37,-1
 440 830 l 2,38,39
 552 830 552 830 632 875 c 0,40,41
 764 949 764 949 764 1099.5 c 128,-1,42
 764 1250 764 1250 660 1311 c 0,43,44
 604 1344 604 1344 454 1344 c 2,45,-1
 297 1344 l 1,46,-1
 297 830 l 1,37,-1
EndSplineSet
EndChar

StartChar: C
Encoding: 35 67 36
Width: 1120
GlyphClass: 2
Flags: W
HStem: -27 139<444.694 749.416> 1363 140<456.39 750.931>
VStem: 124 152<355.516 1118.86> 830 145<1151 1282.98> 850 146<212.594 363>
LayerCount: 2
Fore
SplineSet
124 720 m 0,0,1
 124 1202 124 1202 304 1382 c 0,2,3
 425 1503 425 1503 598.5 1503 c 128,-1,4
 772 1503 772 1503 874 1397 c 0,5,6
 961 1309 961 1309 975 1194 c 0,7,8
 976 1181 976 1181 980 1151 c 1,9,-1
 830 1151 l 1,10,11
 826 1212 826 1212 810 1245 c 0,12,13
 754 1363 754 1363 605 1363 c 128,-1,14
 456 1363 456 1363 366 1223.5 c 128,-1,15
 276 1084 276 1084 276 728.5 c 128,-1,16
 276 373 276 373 376 227 c 0,17,18
 456 112 456 112 596 112 c 0,19,20
 673 112 673 112 733.5 146.5 c 128,-1,21
 794 181 794 181 822 241 c 0,22,23
 840 277 840 277 850 363 c 1,24,-1
 996 363 l 1,25,26
 978 230 978 230 942 158 c 128,-1,27
 906 86 906 86 818.5 29.5 c 128,-1,28
 731 -27 731 -27 592 -27 c 0,29,30
 124 -27 124 -27 124 720 c 0,0,1
EndSplineSet
EndChar

StartChar: D
Encoding: 36 68 37
Width: 1120
GlyphClass: 2
Flags: W
HStem: 0 131<291 664.789> 1344 131<291 664.959>
VStem: 146 145<131 1344> 832 152<337.17 1132.12>
LayerCount: 2
Fore
SplineSet
136 0 m 1,0,1
 136 11 136 11 138 56 c 1,2,-1
 146 429 l 1,3,-1
 146 1046 l 1,4,-1
 138 1419 l 1,5,6
 136 1464 136 1464 136 1475 c 1,7,-1
 470 1475 l 2,8,9
 610 1475 610 1475 692 1442 c 0,10,11
 838 1382 838 1382 900 1244 c 0,12,13
 984 1057 984 1057 984 777.5 c 128,-1,14
 984 498 984 498 942 346.5 c 128,-1,15
 900 195 900 195 822 121.5 c 128,-1,16
 744 48 744 48 670 24 c 128,-1,17
 596 0 596 0 470 0 c 2,18,-1
 136 0 l 1,0,1
291 131 m 1,19,-1
 460 131 l 2,20,21
 644 131 644 131 726 223 c 0,22,23
 783 287 783 287 807.5 406.5 c 128,-1,24
 832 526 832 526 832 768.5 c 128,-1,25
 832 1011 832 1011 784 1156 c 0,26,27
 720 1344 720 1344 460 1344 c 2,28,-1
 291 1344 l 1,29,-1
 291 131 l 1,19,-1
EndSplineSet
EndChar

StartChar: E
Encoding: 37 69 38
Width: 1120
GlyphClass: 2
Flags: W
HStem: 0 131<325 950> 688 131<325 768> 1344 131<325 936>
VStem: 180 145<131 688 819 1344>
LayerCount: 2
Fore
SplineSet
170 0 m 1,0,1
 170 11 170 11 172 56 c 1,2,-1
 180 428 l 1,3,-1
 180 1044 l 1,4,-1
 172 1419 l 1,5,6
 170 1464 170 1464 170 1475 c 1,7,-1
 936 1475 l 1,8,-1
 936 1344 l 1,9,-1
 325 1344 l 1,10,-1
 325 819 l 1,11,-1
 768 819 l 1,12,-1
 768 688 l 1,13,-1
 325 688 l 1,14,-1
 325 131 l 1,15,-1
 950 131 l 1,16,-1
 950 0 l 1,17,-1
 170 0 l 1,0,1
EndSplineSet
EndChar

StartChar: F
Encoding: 38 70 39
Width: 1120
GlyphClass: 2
Flags: W
HStem: 0 21G<164 332> 701 131<319 800> 1344 131<319 956>
VStem: 174 145<0 701 832 1344>
LayerCount: 2
Fore
SplineSet
164 0 m 1,0,1
 164 11 164 11 166 55 c 1,2,-1
 174 429 l 1,3,-1
 174 1044 l 1,4,-1
 170 1230 l 1,5,-1
 164 1475 l 1,6,-1
 956 1475 l 1,7,-1
 956 1344 l 1,8,-1
 319 1344 l 1,9,-1
 319 832 l 1,10,-1
 800 832 l 1,11,-1
 800 701 l 1,12,-1
 319 701 l 1,13,-1
 319 429 l 1,14,15
 320 235 320 235 332 0 c 1,16,-1
 164 0 l 1,0,1
EndSplineSet
EndChar

StartChar: G
Encoding: 39 71 40
Width: 1120
GlyphClass: 2
Flags: W
HStem: -27 139<419.771 719.759> 0 21G<868 1014> 604 131<520 868> 1094 21G<794 954> 1364 139<431.71 712.951>
VStem: 106 152<331.17 1130> 794 160<1094 1280.99> 868 146<0 122 284.051 604>
LayerCount: 2
Fore
SplineSet
106 728 m 128,-1,1
 106 1016 106 1016 160 1177 c 0,2,3
 270 1503 270 1503 576 1503 c 0,4,5
 742 1503 742 1503 839 1395 c 128,-1,6
 936 1287 936 1287 948 1139 c 0,7,8
 951 1113 951 1113 954 1094 c 1,9,-1
 794 1094 l 1,10,11
 794 1164 794 1164 789 1190 c 0,12,13
 775 1272 775 1272 715.5 1318 c 128,-1,14
 656 1364 656 1364 564 1364 c 128,-1,15
 472 1364 472 1364 397 1293.5 c 128,-1,16
 322 1223 322 1223 290 1085.5 c 128,-1,17
 258 948 258 948 258 718 c 0,18,19
 258 360 258 360 352 225 c 0,20,21
 432 112 432 112 566 112 c 0,22,23
 738 112 738 112 820 277 c 0,24,25
 848 333 848 333 858 402 c 128,-1,26
 868 471 868 471 868 604 c 1,27,-1
 520 604 l 1,28,-1
 520 735 l 1,29,-1
 1014 735 l 1,30,-1
 1014 0 l 1,31,-1
 868 0 l 1,32,-1
 868 122 l 1,33,34
 810.82421875 47.671875 810.82421875 47.671875 725.412109375 10.3359375 c 128,-1,35
 640 -27 640 -27 552 -27 c 0,36,37
 406 -27 406 -27 300 58.5 c 128,-1,38
 194 144 194 144 150 292 c 128,-1,0
 106 440 106 440 106 728 c 128,-1,1
EndSplineSet
EndChar

StartChar: H
Encoding: 40 72 41
Width: 1120
GlyphClass: 2
Flags: W
HStem: 0 21G<150 318 802 970> 696 131<305 814> 1455 20G<150 318 802 970>
VStem: 160 145<0 696 827 1475> 814 146<0 696 827 1475>
LayerCount: 2
Fore
SplineSet
150 0 m 1,0,1
 150 11 150 11 152 55 c 1,2,-1
 160 429 l 1,3,-1
 160 1042 l 1,4,-1
 156 1229 l 1,5,-1
 150 1475 l 1,6,-1
 318 1475 l 1,7,8
 306 1227 306 1227 305 1042 c 1,9,-1
 305 827 l 1,10,-1
 814 827 l 1,11,-1
 814 1042 l 2,12,13
 814 1241 814 1241 802 1475 c 1,14,-1
 970 1475 l 1,15,16
 970 1457 970 1457 968 1420 c 1,17,-1
 960 1042 l 1,18,-1
 960 429 l 1,19,-1
 968 55 l 1,20,21
 970 18 970 18 970 0 c 1,22,-1
 802 0 l 1,23,24
 814 243 814 243 814 429 c 2,25,-1
 814 696 l 1,26,-1
 305 696 l 1,27,-1
 305 429 l 1,28,29
 306 235 306 235 318 0 c 1,30,-1
 150 0 l 1,0,1
EndSplineSet
EndChar

StartChar: I
Encoding: 41 73 42
Width: 1120
GlyphClass: 2
Flags: W
HStem: 0 131<284 484 642 836> 1344 131<284 484 642 836>
VStem: 490 145<131 1344>
LayerCount: 2
Fore
SplineSet
284 0 m 1,0,-1
 284 131 l 1,1,-1
 484 131 l 1,2,-1
 490 430 l 1,3,-1
 490 1045 l 1,4,-1
 484 1344 l 1,5,-1
 284 1344 l 1,6,-1
 284 1475 l 1,7,-1
 836 1475 l 1,8,-1
 836 1344 l 1,9,-1
 642 1344 l 1,10,-1
 635 1045 l 1,11,-1
 635 430 l 1,12,-1
 642 131 l 1,13,-1
 836 131 l 1,14,-1
 836 0 l 1,15,-1
 284 0 l 1,0,-1
EndSplineSet
EndChar

StartChar: J
Encoding: 42 74 43
Width: 1120
GlyphClass: 2
Flags: W
HStem: -27 139<401.643 695.281> 1344 131<532 802>
VStem: 168 146<197.271 629.875> 810 145<222.452 1344>
LayerCount: 2
Fore
SplineSet
156 635 m 1,0,-1
 326 635 l 1,1,2
 314 470 314 470 314 432 c 2,3,-1
 314 357 l 2,4,5
 314 255 314 255 356 200 c 0,6,7
 424 112 424 112 546 112 c 0,8,9
 623 112 623 112 687.5 151 c 128,-1,10
 752 190 752 190 774 239 c 128,-1,11
 796 288 796 288 800 318 c 128,-1,12
 804 348 804 348 808 479 c 1,13,-1
 810 504 l 1,14,-1
 810 1046 l 2,15,16
 810 1115 810 1115 802 1344 c 1,17,-1
 532 1344 l 1,18,-1
 532 1475 l 1,19,-1
 964 1475 l 1,20,-1
 962 1428 l 1,21,-1
 962 1367 l 1,22,-1
 955 1046 l 1,23,-1
 955 504 l 1,24,-1
 952 471 l 1,25,26
 946 318 946 318 943 286 c 128,-1,27
 940 254 940 254 924 215 c 0,28,29
 885 109 885 109 785.5 41 c 128,-1,30
 686 -27 686 -27 529 -27 c 128,-1,31
 372 -27 372 -27 270 77.5 c 128,-1,32
 168 182 168 182 168 361 c 2,33,-1
 168 432 l 1,34,-1
 156 635 l 1,0,-1
EndSplineSet
EndChar

StartChar: K
Encoding: 43 75 44
Width: 1120
GlyphClass: 2
Flags: W
HStem: 0 21G<94 260 807.815 1026> 1455 20G<94 260 736 800.442>
VStem: 100 149<0 692 826 1475> 824 202<0 202>
DStem2: 400 743 264 692 0.644326 -0.764751<0 841.404>
LayerCount: 2
Fore
SplineSet
94 0 m 1,0,1
 94 56 l 1,2,-1
 100 246 l 1,3,-1
 104 430 l 1,4,-1
 104 1045 l 1,5,-1
 100 1230 l 1,6,-1
 94 1419 l 1,7,8
 94 1475 l 1,9,-1
 260 1475 l 1,10,-1
 258 1419 l 1,11,-1
 249 1045 l 1,12,-1
 249 826 l 1,13,-1
 268 829 l 2,14,15
 338 840 338 840 438 948 c 128,-1,16
 538 1056 538 1056 624 1205.5 c 128,-1,17
 710 1355 710 1355 762 1491 c 1,18,-1
 910 1414 l 1,19,20
 879 1355 879 1355 762.5 1167 c 128,-1,21
 646 979 646 979 576 898 c 128,-1,22
 506 817 506 817 400 743 c 1,23,-1
 1026 0 l 1,24,-1
 824 0 l 1,25,-1
 264 692 l 1,26,-1
 249 692 l 1,27,-1
 249 430 l 1,28,-1
 258 56 l 1,29,-1
 260 0 l 1,30,-1
 94 0 l 1,0,1
EndSplineSet
EndChar

StartChar: L
Encoding: 44 76 45
Width: 1120
GlyphClass: 2
Flags: W
HStem: 0 131<328 956> 1455 20G<164 328>
VStem: 174 145<131 1475>
LayerCount: 2
Fore
SplineSet
164 0 m 1,0,1
 164 11 164 11 166 56 c 1,2,-1
 174 428 l 1,3,-1
 174 1045 l 1,4,-1
 166 1420 l 1,5,6
 164 1464 164 1464 164 1475 c 1,7,-1
 328 1475 l 1,8,9
 328 1456 328 1456 326 1420 c 1,10,-1
 319 1045 l 1,11,-1
 319 428 l 1,12,-1
 328 131 l 1,13,-1
 956 131 l 1,14,-1
 956 0 l 1,15,-1
 164 0 l 1,0,1
EndSplineSet
EndChar

StartChar: M
Encoding: 45 77 46
Width: 1120
GlyphClass: 2
Flags: W
HStem: 0 21G<100 268 852 1020> 1455 20G<110 270.054 849.946 1010>
VStem: 110 145<0 1129> 864 146<0 1129>
DStem2: 262 1475 255 1129 0.373551 -0.92761<318.338 797.749> 560 735 560 404 0.373551 0.92761<0 479.038>
LayerCount: 2
Fore
SplineSet
100 0 m 1,0,1
 100 11 100 11 102 55 c 1,2,-1
 110 430 l 1,3,-1
 110 1475 l 1,4,-1
 262 1475 l 1,5,-1
 560 735 l 1,6,-1
 858 1475 l 1,7,-1
 1010 1475 l 1,8,-1
 1010 430 l 1,9,-1
 1020 0 l 1,10,-1
 852 0 l 1,11,12
 864 259 864 259 864 430 c 2,13,-1
 864 1129 l 1,14,-1
 560 404 l 1,15,-1
 255 1129 l 1,16,-1
 255 430 l 1,17,18
 256 235 256 235 268 0 c 1,19,-1
 100 0 l 1,0,1
EndSplineSet
EndChar

StartChar: N
Encoding: 46 78 47
Width: 1120
GlyphClass: 2
Flags: W
HStem: 0 21G<166 333 795.923 942> 1455 20G<176 358.051 786 954>
VStem: 176 145<0 1182> 796 146<367 1475>
DStem2: 350 1475 321 1182 0.374463 -0.927242<260.822 1194.39>
LayerCount: 2
Fore
SplineSet
166 0 m 1,0,1
 166 11 166 11 168 55 c 1,2,-1
 176 430 l 1,3,-1
 176 1475 l 1,4,-1
 350 1475 l 1,5,-1
 796 367 l 1,6,-1
 796 1043 l 1,7,-1
 788 1420 l 1,8,9
 786 1457 786 1457 786 1475 c 1,10,-1
 954 1475 l 1,11,-1
 952 1433 l 1,12,-1
 952 1388 l 1,13,-1
 942 1043 l 1,14,-1
 942 -14 l 1,15,-1
 804 -14 l 1,16,-1
 321 1182 l 1,17,-1
 321 430 l 2,18,19
 321 235 321 235 333 0 c 1,20,-1
 166 0 l 1,0,1
EndSplineSet
EndChar

StartChar: O
Encoding: 47 79 48
Width: 1120
GlyphClass: 2
Flags: W
HStem: -27 139<420.86 701.909> 1364 139<417.542 698.91>
VStem: 107.745 152<326.918 1147.01> 859.745 152.51<328.828 1152.58>
LayerCount: 2
Fore
SplineSet
107.745117188 776.5 m 128,-1,1
 107.745117188 1039 107.745117188 1039 155.745117188 1187 c 128,-1,2
 203.745117188 1335 203.745117188 1335 308.745117188 1419 c 128,-1,3
 413.745117188 1503 413.745117188 1503 565.745117188 1503 c 0,4,5
 667.745117188 1503 667.745117188 1503 755.745117188 1455 c 0,6,7
 937.745117188 1357 937.745117188 1357 986.745117188 1097 c 0,8,9
 1012.25488281 963.56640625 1012.25488281 963.56640625 1012.25488281 708.841796875 c 0,10,11
 1012.25488281 438.576171875 1012.25488281 438.576171875 964 289.288085938 c 128,-1,12
 915.745117188 140 915.745117188 140 810.745117188 56.5 c 128,-1,13
 705.745117188 -27 705.745117188 -27 559.745117188 -27 c 0,14,15
 341.745117188 -27 341.745117188 -27 217.745117188 154 c 0,16,17
 157.745117188 242 157.745117188 242 132.745117188 378 c 128,-1,0
 107.745117188 514 107.745117188 514 107.745117188 776.5 c 128,-1,1
337.745117188 1228 m 128,-1,19
 259.745117188 1092 259.745117188 1092 259.745117188 729 c 128,-1,20
 259.745117188 366 259.745117188 366 343.745117188 239 c 128,-1,21
 427.745117188 112 427.745117188 112 564.745117188 112 c 128,-1,22
 701.745117188 112 701.745117188 112 780.745117188 247.5 c 128,-1,23
 859.745117188 383 859.745117188 383 859.745117188 741 c 0,24,25
 859.745117188 936 859.745117188 936 839.745117188 1053.5 c 128,-1,26
 819.745117188 1171 819.745117188 1171 773.745117188 1241 c 0,27,28
 692.745117188 1364 692.745117188 1364 554.245117188 1364 c 128,-1,18
 415.745117188 1364 415.745117188 1364 337.745117188 1228 c 128,-1,19
EndSplineSet
EndChar

StartChar: P
Encoding: 48 80 49
Width: 1120
GlyphClass: 2
Flags: W
HStem: 0 21G<172 339> 578 129<327 665.552> 1344 131<327 685.428>
VStem: 182 145<0 578 707 1344> 796 152<836.09 1222.33>
LayerCount: 2
Fore
SplineSet
172 0 m 1,0,1
 172 11 172 11 174 55 c 1,2,-1
 182 431 l 1,3,-1
 182 1044 l 1,4,-1
 178 1230 l 1,5,-1
 172 1475 l 1,6,-1
 485 1475 l 2,7,8
 655 1475 655 1475 754.5 1423.5 c 128,-1,9
 854 1372 854 1372 901 1262.5 c 128,-1,10
 948 1153 948 1153 948 1025 c 0,11,12
 948 726 948 726 710 622 c 0,13,14
 650 596 650 596 591 587 c 128,-1,15
 532 578 532 578 417 578 c 2,16,-1
 327 578 l 1,17,-1
 327 431 l 2,18,19
 327 235 327 235 339 0 c 1,20,-1
 172 0 l 1,0,1
327 707 m 1,21,-1
 446 707 l 2,22,23
 589 707 589 707 657 745 c 0,24,25
 796 824 796 824 796 1022 c 0,26,27
 796 1130 796 1130 758 1210 c 0,28,29
 704 1324 704 1324 582 1340 c 0,30,31
 547 1344 547 1344 452 1344 c 2,32,-1
 327 1344 l 1,33,-1
 327 707 l 1,21,-1
EndSplineSet
EndChar

StartChar: Q
Encoding: 49 81 50
Width: 1120
GlyphClass: 2
Flags: W
HStem: -27 139<405.224 684.694> 1364 139<399.711 680.299>
VStem: 89 152<328.936 1148.2> 842 152<327.182 1153.31>
LayerCount: 2
Fore
SplineSet
89 777 m 128,-1,1
 89 1040 89 1040 137.5 1188 c 128,-1,2
 186 1336 186 1336 290 1419.5 c 128,-1,3
 394 1503 394 1503 521 1503 c 0,4,5
 764 1503 764 1503 885 1321 c 0,6,7
 943 1232 943 1232 968.5 1096 c 128,-1,8
 994 960 994 960 994 699 c 128,-1,9
 994 438 994 438 952 310 c 128,-1,10
 910 182 910 182 850 112 c 1,11,-1
 1031 -121 l 1,12,-1
 846 -121 l 1,13,-1
 742 24 l 1,14,15
 651 -27 651 -27 542 -27 c 0,16,17
 321 -27 321 -27 199 154 c 0,18,19
 140 242 140 242 114.5 378 c 128,-1,0
 89 514 89 514 89 777 c 128,-1,1
319.5 1229 m 128,-1,21
 241 1094 241 1094 241 730 c 128,-1,22
 241 366 241 366 325.5 239 c 128,-1,23
 410 112 410 112 547 112 c 128,-1,24
 684 112 684 112 763 246.5 c 128,-1,25
 842 381 842 381 842 741 c 0,26,27
 842 937 842 937 822 1054 c 128,-1,28
 802 1171 802 1171 756 1241 c 0,29,30
 675 1364 675 1364 536.5 1364 c 128,-1,20
 398 1364 398 1364 319.5 1229 c 128,-1,21
EndSplineSet
EndChar

StartChar: R
Encoding: 50 82 51
Width: 1120
GlyphClass: 2
Flags: W
HStem: 0 21G<101 267 826.431 1019> 608 131<256 482.404> 1344 131<256 634.782>
VStem: 111 145<0 608 739 1344> 737 152<872.916 1241.58> 838 181<0 181>
DStem2: 627 643 484 612 0.520537 -0.853839<0 658.852>
LayerCount: 2
Fore
SplineSet
101 0 m 1,0,1
 101 21 101 21 102 56 c 2,2,-1
 107 245 l 1,3,-1
 111 428 l 1,4,-1
 111 1041 l 1,5,-1
 107 1228 l 1,6,-1
 102 1419 l 2,7,8
 101 1453 101 1453 101 1475 c 1,9,-1
 451 1475 l 2,10,11
 755.28515625 1475 755.28515625 1475 844.5 1267.5 c 0,12,13
 889 1164 889 1164 889 1055 c 0,14,15
 889 893 889 893 808 779 c 0,16,17
 761 714 761 714 627 643 c 1,18,-1
 1019 0 l 1,19,-1
 838 0 l 1,20,-1
 484 612 l 1,21,22
 433 608 433 608 372 608 c 2,23,-1
 256 608 l 1,24,-1
 256 428 l 1,25,-1
 265 56 l 1,26,-1
 267 0 l 1,27,-1
 101 0 l 1,0,1
256 739 m 1,28,-1
 430 739 l 2,29,30
 545 739 545 739 608 782 c 0,31,32
 737 870 737 870 737 1061 c 128,-1,33
 737 1252 737 1252 613 1312 c 0,34,35
 546 1344 546 1344 380 1344 c 2,36,-1
 256 1344 l 1,37,-1
 256 739 l 1,28,-1
EndSplineSet
EndChar

StartChar: S
Encoding: 51 83 52
Width: 1120
GlyphClass: 2
Flags: W
HStem: -27 139<399.807 724.898> 1364 139<424.302 734.197>
VStem: 182 152<1008.68 1276.43> 848 152<230.229 530.669>
DStem2: 682 798 428 780 0.860927 -0.508729<-402.687 278.223>
LayerCount: 2
Fore
SplineSet
120 221 m 1,0,-1
 234 313 l 1,1,2
 282 246 282 246 318 214 c 0,3,4
 433 112 433 112 560.5 112 c 128,-1,5
 688 112 688 112 768 189 c 128,-1,6
 848 266 848 266 848 375.5 c 128,-1,7
 848 485 848 485 796 539 c 0,8,9
 742 593 742 593 604 676 c 1,10,-1
 428 780 l 2,11,12
 300 856 300 856 241 943.5 c 128,-1,13
 182 1031 182 1031 182 1142 c 0,14,15
 182 1296 182 1296 287 1399.5 c 128,-1,16
 392 1503 392 1503 558 1503 c 0,17,18
 778.76953125 1503 778.76953125 1503 978 1318 c 1,19,-1
 888 1210 l 1,20,21
 830 1258 830 1258 800 1279 c 0,22,23
 682 1364 682 1364 576 1364 c 128,-1,24
 470 1364 470 1364 402 1302 c 128,-1,25
 334 1240 334 1240 334 1145 c 128,-1,26
 334 1050 334 1050 395 990.5 c 128,-1,27
 456 931 456 931 520 893 c 2,28,-1
 682 798 l 2,29,30
 840 705 840 705 907 637.5 c 128,-1,31
 974 570 974 570 987 507.5 c 128,-1,32
 1000 445 1000 445 1000 391 c 0,33,34
 1000 226 1000 226 910 115 c 0,35,36
 794 -27 794 -27 575 -27 c 128,-1,37
 356 -27 356 -27 198 129 c 0,38,39
 170 157 170 157 120 221 c 1,0,-1
EndSplineSet
EndChar

StartChar: T
Encoding: 52 84 53
Width: 1120
GlyphClass: 2
Flags: W
HStem: 0 21G<478 646> 1344 131<68 490 635 1052>
VStem: 490 145<0 1344>
LayerCount: 2
Fore
SplineSet
68 1344 m 1,0,-1
 68 1475 l 1,1,-1
 1052 1475 l 1,2,-1
 1052 1344 l 1,3,-1
 635 1344 l 1,4,-1
 635 429 l 1,5,-1
 644 56 l 1,6,-1
 646 0 l 1,7,-1
 478 0 l 1,8,-1
 490 429 l 1,9,-1
 490 1344 l 1,10,-1
 68 1344 l 1,0,-1
EndSplineSet
EndChar

StartChar: U
Encoding: 53 85 54
Width: 1120
GlyphClass: 2
Flags: W
HStem: -27 139<423.146 697.915> 1455 20G<152 318 802 968>
VStem: 162 145<232.898 1475> 814 145<238.609 1475>
LayerCount: 2
Fore
SplineSet
152 1475 m 1,0,-1
 318 1475 l 1,1,2
 306.922851562 1243.30761719 306.922851562 1243.30761719 306.922851562 1151.96191406 c 128,-1,3
 306.922851562 1060.61523438 306.922851562 1060.61523438 307 1047 c 2,4,-1
 307 502 l 1,5,-1
 308 434 l 1,6,7
 312 334 312 334 320 305 c 0,8,9
 346 212 346 212 414 162 c 128,-1,10
 482 112 482 112 573 112 c 128,-1,11
 664 112 664 112 735 189.5 c 128,-1,12
 806 267 806 267 810 388 c 2,13,-1
 814 502 l 1,14,-1
 814 1047 l 2,15,16
 814 1226 814 1226 802 1475 c 1,17,-1
 968 1475 l 1,18,-1
 962 1229 l 1,19,-1
 959 1047 l 1,20,-1
 959 502 l 2,21,22
 959 293 959 293 904.5 187.5 c 128,-1,23
 850 82 850 82 750 27.5 c 128,-1,24
 650 -27 650 -27 560 -27 c 0,25,26
 428 -27 428 -27 310 69 c 128,-1,27
 192 165 192 165 170 349 c 0,28,29
 162 411 162 411 162 502 c 2,30,-1
 162 1047 l 1,31,-1
 154 1420 l 1,32,33
 152 1464 152 1464 152 1475 c 1,0,-1
EndSplineSet
EndChar

StartChar: V
Encoding: 54 86 55
Width: 1120
GlyphClass: 2
Flags: W
HStem: -14 21G<451.762 773.912> 1455 20G<124 293.298 825.718 996>
VStem: 124 165<1310 1475> 830 166<1309 1475>
DStem2: 289 1475 124 1475 0.210111 -0.977677<0 449.387 1095.26 1289.79> 560 214 664 -14 0.20937 0.977836<0 1289.58>
LayerCount: 2
Fore
SplineSet
124 1475 m 1,0,-1
 289 1475 l 1,1,-1
 560 214 l 1,2,-1
 830 1475 l 1,3,-1
 996 1475 l 1,4,5
 883.823242188 1033.39160156 883.823242188 1033.39160156 664 -14 c 1,6,-1
 456 -14 l 1,7,-1
 374 373 l 2,8,9
 276 838 276 838 238.5 1004.5 c 128,-1,10
 201 1171 201 1171 124 1475 c 1,0,-1
EndSplineSet
EndChar

StartChar: W
Encoding: 55 87 56
Width: 1120
GlyphClass: 2
Flags: W
HStem: -14 21G<193 374.886 745.114 937.257> 1455 20G<82 252.5 868.5 1038>
VStem: 82 167<1018.53 1475> 859.5 62.5<-14 1089>
DStem2: 287 744 115 1165 0.0912008 -0.995833<-467.923 433.574> 324 312 369 -14 0.302727 0.953077<0 379.288> 560 1055 560 635 0.303892 -0.952707<400.137 779.883>
LayerCount: 2
Fore
SplineSet
82 1475 m 1,0,-1
 249 1475 l 1,1,2
 256 1107 256 1107 287 744 c 2,3,-1
 324 312 l 1,4,-1
 560 1055 l 1,5,-1
 797 312 l 1,6,-1
 834 744 l 2,7,8
 854 976 854 976 859.5 1089 c 128,-1,9
 865 1202 865 1202 872 1475 c 1,10,-1
 1038 1475 l 1,11,12
 952.513671875 690.357421875 952.513671875 690.357421875 922 -14 c 1,13,-1
 751 -14 l 1,14,-1
 560 635 l 1,15,-1
 369 -14 l 1,16,-1
 198 -14 l 1,17,18
 188 231 188 231 184.5 290 c 128,-1,19
 181 349 181 349 150 732.5 c 128,-1,20
 119 1116 119 1116 115 1165 c 128,-1,21
 111 1214 111 1214 82 1475 c 1,0,-1
EndSplineSet
EndChar

StartChar: X
Encoding: 56 88 57
Width: 1120
GlyphClass: 2
Flags: W
HStem: 0 21G<122 355 763 998> 1455 20G<132 357 753 986>
DStem2: 122 0 296 0 0.423726 0.905791<73.7283 724.537 854.872 875.676 1165.15 1629.26> 560 897 486 743 0.424733 -0.905319<-11.3303 0 273.406 924.2>
LayerCount: 2
Fore
SplineSet
122 0 m 1,0,-1
 486 743 l 1,1,2
 340 1051 340 1051 132 1475 c 1,3,-1
 306 1475 l 1,4,5
 408 1227 408 1227 560 897 c 1,6,7
 692 1182 692 1182 814 1475 c 1,8,-1
 986 1475 l 1,9,-1
 636 748 l 1,10,11
 808 382 808 382 998 0 c 1,12,-1
 824 0 l 1,13,14
 702 295 702 295 560 595 c 1,15,16
 414 281 414 281 296 0 c 1,17,-1
 122 0 l 1,0,-1
EndSplineSet
EndChar

StartChar: Y
Encoding: 57 89 58
Width: 1120
GlyphClass: 2
Flags: W
HStem: 0 21G<476 644> 1455 20G<106 348 771.5 1014>
VStem: 487 146<0 725.016>
DStem2: 271 1475 123 1437 0.408625 -0.912702<0 732.341> 560 802 633 624 0.403808 0.914844<0 731.987>
LayerCount: 2
Fore
SplineSet
106 1475 m 1,0,-1
 271 1475 l 1,1,2
 425 1100 425 1100 560 802 c 1,3,4
 695 1100 695 1100 848 1475 c 1,5,-1
 1014 1475 l 1,6,7
 807 1025 807 1025 633 624 c 1,8,-1
 633 430 l 1,9,-1
 642 56 l 1,10,-1
 644 0 l 1,11,-1
 476 0 l 1,12,13
 477 43 477 43 483 246 c 1,14,-1
 487 430 l 1,15,-1
 487 624 l 1,16,17
 350 940 350 940 123 1437 c 1,18,-1
 106 1475 l 1,0,-1
EndSplineSet
EndChar

StartChar: Z
Encoding: 58 90 59
Width: 1120
GlyphClass: 2
Flags: W
HStem: 0 131<323 980> 1344 131<163 758>
DStem2: 140 111 323 131 0.437817 0.899064<98.1019 470.116>
LayerCount: 2
Fore
SplineSet
140 0 m 1,0,-1
 140 111 l 1,1,2
 343 478 343 478 758 1344 c 1,3,-1
 163 1344 l 1,4,-1
 163 1475 l 1,5,-1
 931 1475 l 1,6,-1
 931 1365 l 1,7,8
 664 841 664 841 323 131 c 1,9,-1
 980 131 l 1,10,-1
 980 0 l 1,11,-1
 140 0 l 1,0,-1
EndSplineSet
EndChar

StartChar: bracketleft
Encoding: 59 91 60
Width: 1120
GlyphClass: 2
Flags: W
HStem: -49 131<406 859> 1393 131<406 859>
VStem: 261 145<82 1393>
LayerCount: 2
Fore
SplineSet
261 -49 m 1,0,-1
 261 1524 l 1,1,-1
 859 1524 l 1,2,-1
 859 1393 l 1,3,-1
 406 1393 l 1,4,-1
 406 82 l 1,5,-1
 859 82 l 1,6,-1
 859 -49 l 1,7,-1
 261 -49 l 1,0,-1
EndSplineSet
EndChar

StartChar: backslash
Encoding: 60 92 61
Width: 1120
GlyphClass: 2
Flags: W
DStem2: 325 1528 175 1528 0.365598 -0.930773<0 1643.75>
LayerCount: 2
Fore
SplineSet
175 1528 m 1,0,-1
 325 1528 l 1,1,-1
 945 -53 l 1,2,-1
 796 -53 l 1,3,-1
 175 1528 l 1,0,-1
EndSplineSet
EndChar

StartChar: bracketright
Encoding: 61 93 62
Width: 1120
GlyphClass: 2
Flags: W
HStem: -49 131<261 714> 1393 131<261 714>
VStem: 714 145<82 1393>
LayerCount: 2
Fore
SplineSet
261 -49 m 1,0,-1
 261 82 l 1,1,-1
 714 82 l 1,2,-1
 714 1393 l 1,3,-1
 261 1393 l 1,4,-1
 261 1524 l 1,5,-1
 859 1524 l 1,6,-1
 859 -49 l 1,7,-1
 261 -49 l 1,0,-1
EndSplineSet
EndChar

StartChar: asciicircum
Encoding: 62 94 63
Width: 1120
GlyphClass: 2
Flags: W
HStem: 1203 272<336 784>
DStem2: 156 711 364 711 0.382209 0.924076<79.4995 609.058> 648 1475 560 1203 0.382209 -0.924076<217.714 747.272>
LayerCount: 2
Fore
SplineSet
156 711 m 1,0,-1
 472 1475 l 1,1,-1
 648 1475 l 1,2,-1
 964 711 l 1,3,-1
 756 711 l 1,4,-1
 560 1203 l 1,5,-1
 364 711 l 1,6,-1
 156 711 l 1,0,-1
EndSplineSet
EndChar

StartChar: underscore
Encoding: 63 95 64
Width: 1120
GlyphClass: 2
Flags: W
HStem: -283 143<33 1087>
LayerCount: 2
Fore
SplineSet
33 -140 m 1,0,-1
 1087 -140 l 1,1,-1
 1087 -283 l 1,2,-1
 33 -283 l 1,3,-1
 33 -140 l 1,0,-1
EndSplineSet
EndChar

StartChar: grave
Encoding: 64 96 65
Width: 1120
GlyphClass: 2
Flags: W
HStem: 1189 388
VStem: 323.5 473
LayerCount: 2
Fore
SplineSet
323.5 1451 m 1,0,-1
 435.5 1577 l 1,1,-1
 796.5 1289 l 1,2,-1
 719.5 1189 l 1,3,-1
 323.5 1451 l 1,0,-1
EndSplineSet
EndChar

StartChar: a
Encoding: 65 97 66
Width: 1120
GlyphClass: 2
Flags: W
HStem: -27 139<386.618 627.268> 594 139<409.126 726.489> 982 139<351.448 688.206>
VStem: 170 152<176.536 506.176> 754 146<6.8042 113 240.243 561.082 679 914.891>
DStem2: 246 1046 284 910 0.950865 0.309606<0 280.442>
LayerCount: 2
Fore
SplineSet
170 345 m 128,-1,1
 170 514 170 514 264 620 c 0,2,3
 366.134765625 733 366.134765625 733 525 733 c 0,4,5
 604 733 604 733 754 679 c 1,6,-1
 754 732 l 2,7,8
 754 801 754 801 747 835 c 128,-1,9
 740 869 740 869 720 901 c 0,10,11
 668 982 668 982 565 982 c 128,-1,12
 462 982 462 982 340 933 c 0,13,14
 306 918 306 918 284 910 c 1,15,-1
 246 1046 l 1,16,17
 366 1092 366 1092 428 1106.5 c 128,-1,18
 490 1121 490 1121 558 1121 c 0,19,20
 716 1121 716 1121 808 1016.5 c 128,-1,21
 900 912 900 912 900 732 c 2,22,-1
 900 344 l 2,23,24
 900 221 900 221 909 155.5 c 128,-1,25
 918 90 918 90 950 -12 c 1,26,-1
 810 -29 l 1,27,28
 805 -16 805 -16 791.5 13 c 128,-1,29
 778 42 778 42 764 113 c 1,30,31
 708 47 708 47 646 10 c 128,-1,32
 584 -27 584 -27 494 -27 c 0,33,34
 344 -27 344 -27 257 74.5 c 128,-1,0
 170 176 170 176 170 345 c 128,-1,1
322 341 m 128,-1,36
 322 217 322 217 378 164.5 c 128,-1,37
 434 112 434 112 500 112 c 0,38,39
 634 112 634 112 754 299 c 1,40,-1
 754 546 l 1,41,42
 626 594 626 594 538 594 c 256,43,44
 450 594 450 594 386 529.5 c 128,-1,35
 322 465 322 465 322 341 c 128,-1,36
EndSplineSet
EndChar

StartChar: b
Encoding: 66 98 67
Width: 1120
GlyphClass: 2
Flags: W
HStem: -27 139<426.509 697.993> 982 139<381.631 683.449> 1481 20G<167 334>
VStem: 178 145<219.947 928.071 1055 1501> 851 152<294.904 785.975>
LayerCount: 2
Fore
SplineSet
117 -12 m 1,0,1
 123 11 123 11 142.5 80 c 128,-1,2
 162 149 162 149 170 245 c 128,-1,3
 178 341 178 341 178 591 c 2,4,-1
 178 1089 l 1,5,-1
 174 1257 l 2,6,7
 168 1468 168 1468 167 1501 c 1,8,-1
 334 1501 l 1,9,-1
 332 1447 l 1,10,-1
 323 1089 l 1,11,-1
 323 1055 l 1,12,13
 439 1121 439 1121 556 1121 c 0,14,15
 715 1121 715 1121 834 1006 c 0,16,17
 1003 845 1003 845 1003 536 c 128,-1,18
 1003 227 1003 227 828 76 c 0,19,20
 707 -27 707 -27 552.5 -27 c 128,-1,21
 398 -27 398 -27 295 102 c 1,22,23
 285 49 285 49 261 -29 c 1,24,-1
 117 -12 l 1,0,1
323 290 m 1,25,26
 376 192 376 192 431 152 c 128,-1,27
 486 112 486 112 558 112 c 0,28,29
 668 112 668 112 747 201 c 0,30,31
 851 319 851 319 851 537 c 0,32,33
 851 816 851 816 698 928 c 0,34,35
 624 982 624 982 520 982 c 128,-1,36
 416 982 416 982 323 890 c 1,37,-1
 323 290 l 1,25,26
EndSplineSet
EndChar

StartChar: c
Encoding: 67 99 68
Width: 1120
GlyphClass: 2
Flags: W
HStem: -27 139<448.178 744.745> 982 139<437.008 742.38>
VStem: 125 152<300.588 799.496>
LayerCount: 2
Fore
SplineSet
125 540 m 0,0,1
 125 934 125 934 381 1069 c 0,2,3
 480 1121 480 1121 580 1121 c 0,4,5
 781 1121 781 1121 904 989 c 0,6,7
 939 952 939 952 995 875 c 1,8,-1
 865 789 l 1,9,10
 826 856 826 856 807 879 c 0,11,12
 723 982 723 982 593 982 c 0,13,14
 497 982 497 982 417 924 c 0,15,16
 277 822 277 822 277 538 c 256,17,18
 277 254 277 254 452 152 c 0,19,20
 520 112 520 112 593 112 c 0,21,22
 716 112 716 112 826 219 c 0,23,24
 836 229 836 229 886 284 c 1,25,-1
 989 178 l 1,26,27
 932 117 932 117 897 88 c 0,28,29
 758 -27 758 -27 601 -27 c 0,30,31
 363 -27 363 -27 230 157 c 0,32,33
 125 302 125 302 125 540 c 0,0,1
EndSplineSet
EndChar

StartChar: d
Encoding: 68 100 69
Width: 1120
GlyphClass: 2
Flags: W
HStem: -27 139<423.467 694.782> 982 139<436.047 737.564> 1481 20G<784.251 952.251>
VStem: 117.749 152.502<295.942 786.992> 796.251 145<219.617 928.071 1055 1501>
LayerCount: 2
Fore
SplineSet
270.250976562 96 m 0,0,1
 117.749023438 246.5078125 117.749023438 246.5078125 117.749023438 545.512695312 c 128,-1,2
 117.749023438 844.516601562 117.749023438 844.516601562 286.250976562 1007 c 0,3,4
 404.250976562 1121 404.250976562 1121 562.250976562 1121 c 0,5,6
 680.250976562 1121 680.250976562 1121 796.250976562 1055 c 1,7,-1
 796.250976562 1089 l 1,8,-1
 786.250976562 1447 l 1,9,-1
 784.250976562 1501 l 1,10,-1
 952.250976562 1501 l 1,11,12
 950.250976562 1468 950.250976562 1468 944.250976562 1257 c 1,13,-1
 941.250976562 1089 l 1,14,-1
 941.250976562 591 l 2,15,16
 941.250976562 322 941.250976562 322 950.750976562 228.5 c 128,-1,17
 960.250976562 135 960.250976562 135 1002.25097656 -12 c 1,18,-1
 858.250976562 -29 l 1,19,20
 836.250976562 45 836.250976562 45 824.250976562 102 c 1,21,22
 721.250976562 -27 721.250976562 -27 558.750976562 -27 c 128,-1,23
 396.250976562 -27 396.250976562 -27 270.250976562 96 c 0,0,1
270.250976562 538 m 0,24,25
 270.250976562 319 270.250976562 319 374.250976562 201 c 0,26,27
 452.250976562 112 452.250976562 112 562.250976562 112 c 0,28,29
 637.250976562 112 637.250976562 112 690.750976562 152.5 c 128,-1,30
 744.250976562 193 744.250976562 193 796.250976562 290 c 1,31,-1
 796.250976562 890 l 1,32,33
 703.250976562 982 703.250976562 982 598.750976562 982 c 128,-1,34
 494.250976562 982 494.250976562 982 422.250976562 928 c 0,35,36
 270.250976562 814 270.250976562 814 270.250976562 538 c 0,24,25
EndSplineSet
EndChar

StartChar: e
Encoding: 69 101 70
Width: 1120
GlyphClass: 2
Flags: W
HStem: -27 139<418.065 792.918> 504 131<264 856> 982 139<422.619 711.045>
VStem: 118 146<279.145 504>
LayerCount: 2
Fore
SplineSet
118 542 m 0,0,1
 118 781 118 781 228 941 c 0,2,3
 283 1022 283 1022 373.5 1071.5 c 128,-1,4
 464 1121 464 1121 574 1121 c 0,5,6
 798 1121 798 1121 914 927 c 0,7,8
 1002 778 1002 778 1002 573 c 0,9,10
 1002 564 1002 564 1000 504 c 1,11,-1
 264 504 l 1,12,-1
 264 501 l 2,13,14
 264 224 264 224 448 140 c 0,15,16
 510 112 510 112 580 112 c 0,17,18
 728 112 728 112 930 219 c 1,19,-1
 994 82 l 1,20,21
 920 50 920 50 912 47 c 0,22,23
 728 -27 728 -27 570 -27 c 0,24,25
 487 -27 487 -27 411 1 c 0,26,27
 216 72 216 72 150 308 c 0,28,29
 118 421 118 421 118 542 c 0,0,1
264 635 m 1,30,-1
 856 635 l 1,31,32
 842 742 842 742 820 800 c 128,-1,33
 798 858 798 858 754 902 c 0,34,35
 675 982 675 982 567.5 982 c 128,-1,36
 460 982 460 982 376 899 c 0,37,38
 334 858 334 858 309 806 c 128,-1,39
 284 754 284 754 264 635 c 1,30,-1
EndSplineSet
EndChar

StartChar: f
Encoding: 70 102 71
Width: 1120
GlyphClass: 2
Flags: W
HStem: 0 21G<378 546> 963 131<110 390 535 886> 1434 139<591.298 909.26>
VStem: 390 145<0 963 1094 1376.48>
LayerCount: 2
Fore
SplineSet
110 963 m 1,0,-1
 110 1094 l 1,1,-1
 390 1094 l 1,2,-1
 390 1201 l 6,3,4
 390 1292 390 1292 402 1342 c 4,5,6
 428 1446 428 1446 523 1509.5 c 132,-1,7
 618 1573 618 1573 734 1573 c 132,-1,8
 850 1573 850 1573 1010 1505 c 5,9,-1
 1010 1349 l 5,10,11
 870 1407 870 1407 825 1420.5 c 132,-1,12
 780 1434 780 1434 730 1434 c 4,13,14
 619 1434 619 1434 576.98828125 1372.71289062 c 132,-1,15
 534.9765625 1311.42480469 534.9765625 1311.42480469 534.9765625 1201.21386719 c 0,16,17
 534.9765625 1198.62109375 534.9765625 1198.62109375 535 1196 c 6,18,-1
 535 1094 l 1,19,-1
 886 1094 l 1,20,-1
 886 963 l 1,21,-1
 535 963 l 1,22,-1
 535 460 l 1,23,-1
 538 262 l 1,24,25
 542 101 542 101 546 0 c 1,26,-1
 378 0 l 1,27,28
 379 22 379 22 384.5 231 c 128,-1,29
 390 440 390 440 390 460 c 2,30,-1
 390 963 l 1,31,-1
 110 963 l 1,0,-1
EndSplineSet
EndChar

StartChar: g
Encoding: 71 103 72
Width: 1120
GlyphClass: 2
Flags: W
HStem: -422 139<394.755 706.819> 16 139<389.4 698.21> 982 139<408.049 703.219> 1074 20G<838.5 990.5>
VStem: 129.5 151.982<268.675 823.978> 803.5 146<-183.744 113 245.441 897.496> 845.5 145<1021.85 1094>
LayerCount: 2
Fore
SplineSet
129.5 500 m 0,0,1
 129.5 716 129.5 716 163.5 824 c 0,2,3
 259.5 1120 259.5 1120 549.5 1121 c 0,4,5
 685.5 1121 685.5 1121 823.5 1021 c 1,6,7
 831.5 1048 831.5 1048 845.5 1094 c 1,8,-1
 990.5 1094 l 1,9,10
 949.5 909 949.5 909 949.5 802 c 2,11,-1
 949.5 -6 l 2,12,13
 949.5 -263 949.5 -263 727.5 -377 c 0,14,15
 640.5 -422 640.5 -422 553.5 -422 c 0,16,17
 365.5 -422 365.5 -422 233.5 -290 c 0,18,19
 227.5 -284 227.5 -284 193.5 -252 c 1,20,-1
 301.5 -158 l 1,21,22
 407.5 -283 407.5 -283 557.5 -283 c 0,23,24
 666.5 -283 666.5 -283 735 -215 c 128,-1,25
 803.5 -147 803.5 -147 803.5 9 c 2,26,-1
 803.5 113 l 1,27,28
 677.5 16 677.5 16 511.5 16 c 0,29,30
 399.5 16 399.5 16 309.5 87 c 0,31,32
 129.5 228 129.5 228 129.5 500 c 0,0,1
281.482421875 497.919921875 m 0,33,34
 281.482421875 493.482421875 281.482421875 493.482421875 281.5 489 c 0,35,36
 281.5 306 281.5 306 353.5 230.5 c 128,-1,37
 425.5 155 425.5 155 537.5 155 c 0,38,39
 691.5 155 691.5 155 803.5 292 c 1,40,-1
 803.5 854 l 1,41,42
 691.5 982 691.5 982 547.5 982 c 0,43,44
 443.5 982 443.5 982 375.5 909 c 0,45,46
 281.482421875 811.366210938 281.482421875 811.366210938 281.482421875 497.919921875 c 0,33,34
EndSplineSet
EndChar

StartChar: h
Encoding: 72 104 73
Width: 1120
GlyphClass: 2
Flags: W
HStem: 0 21G<177 344 775 943> 982 139<527.923 732.08> 1481 20G<177 344>
VStem: 187 145<0 675.67 933 1501> 787 146<0 922.917>
LayerCount: 2
Fore
SplineSet
177 0 m 1,0,1
 177 11 177 11 179 55 c 1,2,-1
 187 430 l 1,3,-1
 187 1088 l 1,4,-1
 183 1256 l 1,5,-1
 179 1445 l 1,6,7
 177 1490 177 1490 177 1501 c 1,8,-1
 344 1501 l 1,9,-1
 342 1460 l 1,10,-1
 342 1414 l 1,11,-1
 332 1088 l 1,12,-1
 332 933 l 1,13,-1
 353 957 l 1,14,15
 403 1017 403 1017 456 1053 c 0,16,17
 558 1121 558 1121 652 1121 c 128,-1,18
 746 1121 746 1121 815 1058 c 128,-1,19
 884 995 884 995 908.5 915.5 c 128,-1,20
 933 836 933 836 933 697 c 2,21,-1
 933 430 l 1,22,-1
 941 55 l 1,23,24
 943 19 943 19 943 0 c 1,25,-1
 775 0 l 1,26,27
 787 243 787 243 787 430 c 2,28,-1
 787 650 l 2,29,30
 787 865 787 865 737 932 c 0,31,32
 698.904296875 982 698.904296875 982 627 982 c 0,33,34
 589 982 589 982 523.5 935.5 c 128,-1,35
 458 889 458 889 410 816 c 128,-1,36
 362 743 362 743 347 682 c 1,37,-1
 332 539 l 1,38,-1
 332 430 l 2,39,40
 332 235 332 235 344 0 c 1,41,-1
 177 0 l 1,0,1
EndSplineSet
EndChar

StartChar: i
Encoding: 73 105 74
Width: 1120
GlyphClass: 2
Flags: W
HStem: 0 21G<607 772> 963 131<304 607> 1245 262<594.222 776.808>
VStem: 554 262<1284.71 1467.29> 615 146<0 963>
LayerCount: 2
Fore
SplineSet
304 963 m 1,0,-1
 304 1094 l 1,1,-1
 772 1094 l 1,2,3
 761 788 761 788 761 665 c 2,4,-1
 761 430 l 2,5,6
 761 300 761 300 772 0 c 1,7,-1
 607 0 l 1,8,9
 607 21 607 21 608 56 c 2,10,-1
 612 246 l 1,11,-1
 615 430 l 1,12,-1
 615 665 l 1,13,-1
 607 963 l 1,14,-1
 304 963 l 1,0,-1
554 1376.5 m 128,-1,16
 554 1431 554 1431 593 1469 c 128,-1,17
 632 1507 632 1507 686 1507 c 128,-1,18
 740 1507 740 1507 778 1468.5 c 128,-1,19
 816 1430 816 1430 816 1376 c 256,20,21
 816 1322 816 1322 778 1283.5 c 128,-1,22
 740 1245 740 1245 685 1245 c 256,23,24
 630 1245 630 1245 592 1283.5 c 128,-1,15
 554 1322 554 1322 554 1376.5 c 128,-1,16
EndSplineSet
EndChar

StartChar: j
Encoding: 74 106 75
Width: 1120
GlyphClass: 2
Flags: W
HStem: -333 139<415.954 652.515> 963 131<416 720> 1245 262<706.222 887.778>
VStem: 192 152<-121.522 109> 666 262<1284.71 1467.29> 726 146<-116.449 963>
LayerCount: 2
Fore
SplineSet
192 61 m 0,0,1
 192 78 192 78 194 109 c 1,2,-1
 348 109 l 1,3,4
 345 47 345 47 344 28 c 0,5,6
 344 -76 344 -76 400 -135 c 128,-1,7
 456 -194 456 -194 517 -194 c 0,8,9
 636 -194 636 -194 690 -106 c 0,10,11
 717 -61 717 -61 721.5 -4.5 c 128,-1,12
 726 52 726 52 726 345 c 2,13,-1
 726 664 l 1,14,-1
 720 963 l 1,15,-1
 416 963 l 1,16,-1
 416 1094 l 1,17,-1
 884 1094 l 1,18,19
 873 788 873 788 872 664 c 1,20,-1
 872 345 l 2,21,22
 872 49 872 49 870 13 c 0,23,24
 863 -144 863 -144 766.5 -238.5 c 128,-1,25
 670 -333 670 -333 534 -333 c 0,26,27
 462 -333 462 -333 395 -302.5 c 128,-1,28
 328 -272 328 -272 284 -220 c 0,29,30
 192 -112 192 -112 192 61 c 0,0,1
666 1376.5 m 128,-1,32
 666 1431 666 1431 705 1469 c 128,-1,33
 744 1507 744 1507 798 1507 c 128,-1,34
 852 1507 852 1507 890 1468.5 c 128,-1,35
 928 1430 928 1430 928 1376 c 256,36,37
 928 1322 928 1322 889 1283.5 c 128,-1,38
 850 1245 850 1245 796 1245 c 128,-1,39
 742 1245 742 1245 704 1283.5 c 128,-1,31
 666 1322 666 1322 666 1376.5 c 128,-1,32
EndSplineSet
EndChar

StartChar: k
Encoding: 75 107 76
Width: 1120
GlyphClass: 2
Flags: W
HStem: 0 21G<132.5 298.5 771.787 987.5> 1074 20G<644.5 902.5> 1481 20G<132.5 298.5>
VStem: 142.5 144.909<0 434 614 1501> 788.5 199<0 199>
LayerCount: 2
Fore
SplineSet
132.5 0 m 1,0,1
 132.5 21 132.5 21 134.5 56 c 1,2,-1
 142.5 430 l 1,3,-1
 142.5 1071 l 1,4,-1
 134.5 1446 l 1,5,6
 132.5 1479 132.5 1479 132.5 1501 c 1,7,-1
 298.5 1501 l 1,8,-1
 296.5 1445 l 1,9,10
 287.5 1089 287.5 1089 287.5 1071 c 2,11,-1
 287.5 614 l 1,12,13
 578.5 897 578.5 897 710.5 1094 c 1,14,-1
 902.5 1094 l 1,15,16
 744.5 897 744.5 897 671.5 814.5 c 128,-1,17
 598.5 732 598.5 732 460.5 594 c 1,18,-1
 987.5 0 l 1,19,-1
 788.5 0 l 1,20,-1
 366.5 505 l 1,21,-1
 287.5 434 l 1,22,-1
 287.5 430 l 2,23,24
 287.409179688 428.272460938 287.409179688 428.272460938 287.409179688 403.5 c 128,-1,25
 287.409179688 378.727539062 287.409179688 378.727539062 296.5 56 c 1,26,-1
 298.5 0 l 1,27,-1
 132.5 0 l 1,0,1
EndSplineSet
EndChar

StartChar: l
Encoding: 76 108 77
Width: 1120
GlyphClass: 2
Flags: W
HStem: 0 21G<627.463 792> 1370 131<328 628>
VStem: 638 144<0 1370>
LayerCount: 2
Fore
SplineSet
328 1370 m 1,0,-1
 328 1501 l 1,1,-1
 792 1501 l 1,2,-1
 786 1256 l 1,3,-1
 782 1071 l 1,4,-1
 782 429 l 1,5,-1
 792 0 l 1,6,-1
 628 0 l 1,7,8
 626.92578125 15.037109375 626.92578125 15.037109375 630 55 c 1,9,-1
 638 429 l 1,10,-1
 638 1071 l 1,11,12
 630 1291 630 1291 628 1370 c 1,13,-1
 328 1370 l 1,0,-1
EndSplineSet
EndChar

StartChar: m
Encoding: 77 109 78
Width: 1120
GlyphClass: 2
Flags: W
HStem: 0 21G<130 294 496 660 862 1026> 982 140<342.082 488.358 702.951 856.624> 1074 20G<94 250>
VStem: 140 143<0 920.464> 506 142<0 926.426> 872 143<0 969.891>
LayerCount: 2
Fore
SplineSet
94 1094 m 1,0,-1
 246 1094 l 1,1,2
 254 1073 254 1073 266 1018 c 1,3,4
 360 1122 360 1122 472 1122 c 0,5,6
 560 1122 560 1122 620 1018 c 1,7,8
 679 1076 679 1076 720.5 1099 c 128,-1,9
 762 1122 762 1122 808 1122 c 256,10,11
 854 1122 854 1122 904 1094.5 c 128,-1,12
 954 1067 954 1067 977 1028.5 c 128,-1,13
 1000 990 1000 990 1007 939.5 c 128,-1,14
 1014 889 1014 889 1015 757 c 1,15,-1
 1015 430 l 1,16,-1
 1018 246 l 1,17,18
 1024 44 1024 44 1026 0 c 1,19,-1
 862 0 l 1,20,21
 872 332 872 332 872 430 c 2,22,-1
 872 816 l 2,23,24
 872 885 872 885 867 910.5 c 128,-1,25
 862 936 862 936 841 959 c 128,-1,26
 820 982 820 982 786 982 c 0,27,28
 728 982 728 982 654 879 c 1,29,30
 648 788 648 788 648 679 c 2,31,-1
 648 430 l 1,32,-1
 652 246 l 1,33,34
 658 37 658 37 660 0 c 1,35,-1
 496 0 l 1,36,37
 498 44 498 44 502 246 c 2,38,-1
 506 430 l 1,39,-1
 506 670 l 2,40,41
 506 891 506 891 489 936.5 c 128,-1,42
 472 982 472 982 428 982 c 0,43,44
 352 982 352 982 288 858 c 1,45,46
 282.857421875 738 282.857421875 738 282.857421875 711.286132812 c 128,-1,47
 282.857421875 684.571289062 282.857421875 684.571289062 283 679 c 2,48,-1
 283 430 l 1,49,-1
 292 56 l 2,50,51
 292 27 292 27 294 0 c 1,52,-1
 130 0 l 1,53,54
 140 332 140 332 140 430 c 2,55,-1
 140 623 l 2,56,57
 140 791 140 791 130 889.5 c 128,-1,58
 120 988 120 988 94 1094 c 1,0,-1
EndSplineSet
EndChar

StartChar: n
Encoding: 78 110 79
Width: 1120
GlyphClass: 2
Flags: W
HStem: 0 21G<186 354 802 970> 982 139<539.139 755.371> 1074 20G<150 299.5>
VStem: 150 139<955 1094> 196 146<0 755.756> 814 145<0 920.766>
LayerCount: 2
Fore
SplineSet
150 1094 m 1,0,-1
 289 1094 l 1,1,2
 310 1007 310 1007 318 908 c 1,3,-1
 354 957 l 2,4,5
 387 1003 387 1003 475.5 1062 c 128,-1,6
 564 1121 564 1121 677 1121 c 128,-1,7
 790 1121 790 1121 874 1027 c 0,8,9
 921 974 921 974 939.5 900.5 c 128,-1,10
 958 827 958 827 959 696 c 1,11,-1
 959 429 l 1,12,-1
 962 246 l 1,13,14
 968 43 968 43 970 0 c 1,15,-1
 802 0 l 1,16,-1
 814 429 l 1,17,-1
 814 649 l 2,18,19
 814 843 814 843 776 911 c 0,20,21
 758 942 758 942 727 962 c 128,-1,22
 696 982 696 982 664 982 c 0,23,24
 595 982 595 982 520.5 924.5 c 128,-1,25
 446 867 446 867 394 771 c 128,-1,26
 342 675 342 675 342 539 c 2,27,-1
 342 429 l 1,28,-1
 352 56 l 1,29,-1
 354 0 l 1,30,-1
 186 0 l 1,31,-1
 188 56 l 1,32,33
 196 387 196 387 196 429 c 2,34,-1
 196 513 l 1,35,36
 195 753 195 753 187.5 846 c 128,-1,37
 180 939 180 939 150 1094 c 1,0,-1
EndSplineSet
EndChar

StartChar: o
Encoding: 79 111 80
Width: 1120
GlyphClass: 2
Flags: W
HStem: -27 139<407.665 712.161> 982 139<408.145 707.768>
VStem: 125 152<281.396 812.339> 843 152<280.999 818.726>
LayerCount: 2
Fore
SplineSet
125 545 m 0,0,1
 125 936 125 936 358 1068 c 0,2,3
 450 1121 450 1121 579.5 1121 c 128,-1,4
 709 1121 709 1121 822 1026 c 0,5,6
 995 880 995 880 995 547 c 0,7,8
 995 157 995 157 762 26 c 0,9,10
 670 -27 670 -27 560 -27 c 0,11,12
 411 -27 411 -27 298 68 c 0,13,14
 125 213 125 213 125 545 c 0,0,1
277 547 m 256,15,16
 277 353 277 353 343 232.5 c 128,-1,17
 409 112 409 112 560 112 c 256,18,19
 711 112 711 112 777 232.5 c 128,-1,20
 843 353 843 353 843 544 c 0,21,22
 843 982 843 982 555 982 c 0,23,24
 409 982 409 982 343 861.5 c 128,-1,25
 277 741 277 741 277 547 c 256,15,16
EndSplineSet
EndChar

StartChar: p
Encoding: 80 112 81
Width: 1120
GlyphClass: 2
Flags: W
HStem: -422 21G<167 334> -27 139<381.372 683.778> 980 139<424.846 697.03>
VStem: 178 145<-422 40 166.515 873.788> 851 152<305.435 795.42>
LayerCount: 2
Fore
SplineSet
117 1104 m 1,0,-1
 261 1121 l 1,1,-1
 267 1100 l 1,2,3
 282 1055 282 1055 295 990 c 1,4,5
 398 1119 398 1119 561.5 1119 c 128,-1,6
 725 1119 725 1119 850 994 c 0,7,8
 1003 840 1003 840 1003 544.5 c 128,-1,9
 1003 249 1003 249 834 87 c 0,10,11
 715 -27 715 -27 571 -27 c 128,-1,12
 427 -27 427 -27 323 40 c 1,13,-1
 323 3 l 1,14,-1
 332 -367 l 1,15,-1
 334 -422 l 1,16,-1
 167 -422 l 1,17,18
 178 -118 178 -118 178 3 c 2,19,-1
 178 501 l 2,20,21
 178 726 178 726 173 812.5 c 128,-1,22
 168 899 168 899 149 983 c 1,23,-1
 117 1104 l 1,0,-1
323 205 m 1,24,25
 415 112 415 112 519 112 c 128,-1,26
 623 112 623 112 698 166 c 0,27,28
 851 277 851 277 851 555 c 0,29,30
 851 773 851 773 746 891 c 0,31,32
 668 980 668 980 558 980 c 0,33,34
 483 980 483 980 429 939.5 c 128,-1,35
 375 899 375 899 323 802 c 1,36,-1
 323 205 l 1,24,25
EndSplineSet
EndChar

StartChar: q
Encoding: 81 113 82
Width: 1120
GlyphClass: 2
Flags: W
HStem: -422 21G<786 953> -27 139<436.219 738.389> 980 139<423.778 693.333>
VStem: 117 152<307.033 793.043> 797 145<-422 40 166.515 872.053>
LayerCount: 2
Fore
SplineSet
117 554.5 m 128,-1,1
 117 860 117 860 292 1014 c 0,2,3
 411 1119 411 1119 566.5 1119 c 128,-1,4
 722 1119 722 1119 825 990 c 1,5,6
 840 1062 840 1062 859 1121 c 1,7,-1
 1003 1104 l 1,8,-1
 995 1074 l 1,9,10
 959 947 959 947 950.5 854.5 c 128,-1,11
 942 762 942 762 942 501 c 2,12,-1
 942 3 l 1,13,-1
 951 -367 l 1,14,-1
 953 -422 l 1,15,-1
 786 -422 l 1,16,17
 787 -380 787 -380 793 -176 c 1,18,-1
 797 3 l 1,19,-1
 797 40 l 1,20,21
 693 -27 693 -27 549 -27 c 128,-1,22
 405 -27 405 -27 286 88 c 0,23,0
 117 249 117 249 117 554.5 c 128,-1,1
269 555 m 0,24,25
 269 277 269 277 422 166 c 0,26,27
 497 112 497 112 600.5 112 c 128,-1,28
 704 112 704 112 797 205 c 1,29,-1
 797 802 l 1,30,31
 744 900 744 900 689 940 c 128,-1,32
 634 980 634 980 562 980 c 0,33,34
 452 980 452 980 374 891 c 0,35,36
 269 773 269 773 269 555 c 0,24,25
EndSplineSet
EndChar

StartChar: r
Encoding: 82 114 83
Width: 1120
GlyphClass: 2
Flags: W
HStem: 0 21G<209.5 377.5> 982 139<578.938 775.08> 1074 20G<171.5 324.5>
VStem: 221.5 145<0 691.861> 803.5 145<754 931.449>
LayerCount: 2
Fore
SplineSet
171.5 1094 m 1,0,-1
 313.5 1094 l 1,1,2
 335.5 1000 335.5 1000 351.5 871 c 1,3,-1
 366.5 899 l 2,4,5
 413.5 985 413.5 985 503.5 1053 c 128,-1,6
 593.5 1121 593.5 1121 700.5 1121 c 128,-1,7
 807.5 1121 807.5 1121 873.5 1042 c 0,8,9
 912.5 994 912.5 994 928 936.5 c 128,-1,10
 943.5 879 943.5 879 948.5 754 c 1,11,-1
 803.5 754 l 1,12,13
 801.5 884 801.5 884 777.5 933 c 128,-1,14
 753.5 982 753.5 982 695.5 982 c 0,15,16
 603.5 982 603.5 982 513.5 874 c 128,-1,17
 423.5 766 423.5 766 387.5 618 c 0,18,19
 366.5 536 366.5 536 366.5 478 c 2,20,-1
 366.5 431 l 1,21,-1
 375.5 56 l 1,22,-1
 377.5 0 l 1,23,-1
 209.5 0 l 1,24,-1
 211.5 56 l 1,25,26
 221.5 412 221.5 412 221.5 431 c 2,27,-1
 221.5 514 l 2,28,29
 221.5 865 221.5 865 171.5 1094 c 1,0,-1
EndSplineSet
EndChar

StartChar: s
Encoding: 83 115 84
Width: 1120
GlyphClass: 2
Flags: W
HStem: -27 139<430.739 745.05> 982 139<449.477 741.426>
VStem: 238 152<725.732 923.851> 800 152<164.594 395.553>
DStem2: 654 613 511 521 0.936329 -0.351123<-269.334 192.307>
LayerCount: 2
Fore
SplineSet
168 164 m 1,0,-1
 252 285 l 1,1,2
 432 112 432 112 614 112 c 0,3,4
 696 112 696 112 748 157.5 c 128,-1,5
 800 203 800 203 800 282 c 0,6,7
 800 411 800 411 623 479 c 1,8,-1
 511 521 l 2,9,10
 238 624 238 624 238 827 c 0,11,12
 238 934 238 934 327.5 1027.5 c 128,-1,13
 417 1121 417 1121 577 1121 c 256,14,15
 737 1121 737 1121 873 1031 c 0,16,17
 917 1001 917 1001 930 992 c 1,18,-1
 863 868 l 1,19,20
 692 982 692 982 577 982 c 0,21,22
 500 982 500 982 445 934 c 128,-1,23
 390 886 390 886 390 826 c 128,-1,24
 390 766 390 766 438.5 721 c 128,-1,25
 487 676 487 676 563 647 c 2,26,-1
 654 613 l 2,27,28
 735 582 735 582 801.5 542 c 128,-1,29
 868 502 868 502 910 433 c 128,-1,30
 952 364 952 364 952 281 c 0,31,32
 952 156 952 156 858 64.5 c 128,-1,33
 764 -27 764 -27 619 -27 c 0,34,35
 394 -27 394 -27 168 164 c 1,0,-1
EndSplineSet
EndChar

StartChar: t
Encoding: 84 116 85
Width: 1120
GlyphClass: 2
Flags: W
HStem: -27 139<531.692 768.104> 963 131<106 348 494 884>
VStem: 348 146<171.317 963 1094 1434>
LayerCount: 2
Fore
SplineSet
106 963 m 1,0,-1
 106 1094 l 1,1,-1
 348 1094 l 1,2,-1
 338 1434 l 1,3,-1
 506 1434 l 1,4,5
 502 1298 502 1298 494 1094 c 1,6,-1
 884 1094 l 1,7,-1
 884 963 l 1,8,-1
 494 963 l 1,9,-1
 494 366 l 2,10,11
 494 227 494 227 523 169.5 c 128,-1,12
 552 112 552 112 624 112 c 128,-1,13
 696 112 696 112 743 139.5 c 128,-1,14
 790 167 790 167 825 218 c 128,-1,15
 860 269 860 269 872 296 c 1,16,-1
 1014 260 l 1,17,18
 1002 238 1002 238 984 204 c 0,19,20
 860 -27 860 -27 626 -27 c 0,21,22
 484 -27 484 -27 408 75 c 0,23,24
 366 132 366 132 357 215.5 c 128,-1,25
 348 299 348 299 348 366 c 2,26,-1
 348 963 l 1,27,-1
 106 963 l 1,0,-1
EndSplineSet
EndChar

StartChar: u
Encoding: 85 117 86
Width: 1120
GlyphClass: 2
Flags: W
HStem: -27 139<362.332 584.009> 0 21G<818.5 968> 1074 20G<152 318 766 932>
VStem: 162 145<169.08 1094> 777 145<333.721 1094> 828 140<0 140>
LayerCount: 2
Fore
SplineSet
152 1094 m 1,0,-1
 318 1094 l 1,1,-1
 316 1038 l 1,2,-1
 307 665 l 1,3,-1
 307 445 l 2,4,5
 307 251 307 251 344.5 181.5 c 128,-1,6
 382 112 382 112 454.5 112 c 128,-1,7
 527 112 527 112 601 168.5 c 128,-1,8
 675 225 675 225 726 321.5 c 128,-1,9
 777 418 777 418 777 555 c 2,10,-1
 777 665 l 1,11,-1
 768 1038 l 1,12,-1
 766 1094 l 1,13,-1
 932 1094 l 1,14,-1
 932 1066 l 1,15,-1
 931 1038 l 1,16,17
 922 698 922 698 922 665 c 2,18,-1
 922 581 l 1,19,20
 923 340 923 340 931 243 c 128,-1,21
 939 146 939 146 968 0 c 1,22,-1
 828 0 l 1,23,24
 809 77 809 77 800 187 c 1,25,-1
 763 137 l 2,26,27
 710 67 710 67 621.5 20 c 128,-1,28
 533 -27 533 -27 453 -27 c 0,29,30
 331 -27 331 -27 247 67 c 0,31,32
 200 120 200 120 181 193.5 c 128,-1,33
 162 267 162 267 162 398 c 2,34,-1
 162 665 l 1,35,-1
 158 848 l 1,36,-1
 153 1038 l 2,37,38
 152 1072 152 1072 152 1094 c 1,0,-1
EndSplineSet
EndChar

StartChar: v
Encoding: 86 118 87
Width: 1120
GlyphClass: 2
Flags: W
HStem: -27 264<344 776> 1100 20G<133 302.957 817.043 987>
VStem: 133 164<956 1120> 823 164<956 1120>
DStem2: 297 1120 133 1120 0.285455 -0.958392<0 921.335> 560 237 644 -27 0.285455 0.958392<0 921.335>
LayerCount: 2
Fore
SplineSet
133 1120 m 1,0,-1
 297 1120 l 1,1,-1
 560 237 l 1,2,-1
 823 1120 l 1,3,-1
 987 1120 l 1,4,-1
 807 552 l 2,5,6
 697 205 697 205 644 -27 c 1,7,-1
 476 -27 l 1,8,9
 429 186 429 186 313 552 c 2,10,-1
 133 1120 l 1,0,-1
EndSplineSet
EndChar

StartChar: w
Encoding: 87 119 88
Width: 1120
GlyphClass: 2
Flags: W
HStem: -27 21G<171 399.393 720.735 901.5> 1100 20G<53 230.667 889.333 1067>
VStem: 889 178<886.641 1120>
DStem2: 339 262 394 -27 0.260362 0.965511<0 380.541> 635 842 562 596 0.25457 -0.967054<219.312 598.059>
LayerCount: 2
Fore
SplineSet
53 1120 m 1,0,-1
 229 1120 l 1,1,-1
 231 1096 l 2,2,3
 252 841 252 841 273 681 c 128,-1,4
 294 521 294 521 339 262 c 1,5,6
 436 605 436 605 489 842 c 1,7,-1
 635 842 l 1,8,9
 672 657 672 657 781 262 c 1,10,11
 853 674 853 674 889 1096 c 2,12,-1
 891 1120 l 1,13,-1
 1067 1120 l 1,14,15
 1045 1033 1045 1033 981 627 c 128,-1,16
 917 221 917 221 886 -27 c 1,17,-1
 726 -27 l 1,18,-1
 562 596 l 1,19,-1
 394 -27 l 1,20,-1
 234 -27 l 1,21,22
 108 886 108 886 53 1120 c 1,0,-1
EndSplineSet
EndChar

StartChar: x
Encoding: 88 120 89
Width: 1120
GlyphClass: 2
Flags: W
HStem: 0 21G<44 248.642 871.274 1076> 1074 20G<127 313.316 799.941 983>
VStem: 44 191<0 191> 127 173<921 1094> 813 170<924 1094> 885 191<0 191>
DStem2: 44 0 235 0 0.564413 0.825492<107.803 682.782> 300 1094 127 1094 0.569522 -0.821976<0 467.255 656.309 1232.41> 475 585 559 475 0.564413 0.825492<-618.372 -43.3934 146.47 610.947>
LayerCount: 2
Fore
SplineSet
44 0 m 1,0,-1
 475 585 l 1,1,-1
 127 1094 l 1,2,-1
 300 1094 l 1,3,-1
 559 705 l 1,4,-1
 813 1094 l 1,5,-1
 983 1094 l 1,6,-1
 642 589 l 1,7,-1
 1076 0 l 1,8,-1
 885 0 l 1,9,-1
 559 475 l 1,10,-1
 235 0 l 1,11,-1
 44 0 l 1,0,-1
EndSplineSet
EndChar

StartChar: y
Encoding: 89 121 90
Width: 1120
GlyphClass: 2
Flags: W
HStem: -338 139<229.539 399.335> 1074 20G<198 369.171 910.404 1082>
DStem2: 362 1094 198 1094 0.348533 -0.937297<0 799.888> 552 142 662 42 0.370782 0.92872<-362.317 0 214.478 1019.85>
LayerCount: 2
Fore
SplineSet
38 -98 m 1,0,-1
 162 -34 l 1,1,2
 170 -51 170 -51 174 -60 c 0,3,4
 230 -199 230 -199 314 -199 c 0,5,6
 353 -199 353 -199 381.5 -174.5 c 128,-1,7
 410 -150 410 -150 462 -60.5 c 128,-1,8
 514 29 514 29 552 142 c 1,9,-1
 198 1094 l 1,10,-1
 362 1094 l 1,11,-1
 632 341 l 1,12,-1
 918 1094 l 1,13,-1
 1082 1094 l 1,14,-1
 662 42 l 1,15,16
 581 -158 581 -158 502.5 -248 c 128,-1,17
 424 -338 424 -338 314 -338 c 0,18,19
 172 -338 172 -338 86 -207 c 0,20,21
 64 -174 64 -174 38 -98 c 1,0,-1
EndSplineSet
EndChar

StartChar: z
Encoding: 90 122 91
Width: 1120
GlyphClass: 2
Flags: W
HStem: 0 131<328 986> 963 131<222 770>
DStem2: 140 121 328 131 0.599095 0.800678<120.637 1051.6>
LayerCount: 2
Fore
SplineSet
134 0 m 1,0,-1
 134 113 l 1,1,-1
 140 121 l 1,2,3
 573 692 573 692 770 963 c 1,4,-1
 222 963 l 1,5,-1
 222 1094 l 1,6,-1
 961 1094 l 1,7,-1
 961 981 l 1,8,-1
 956 974 l 1,9,10
 537 420 537 420 328 131 c 1,11,-1
 986 131 l 1,12,-1
 986 0 l 1,13,-1
 134 0 l 1,0,-1
EndSplineSet
EndChar

StartChar: braceleft
Encoding: 91 123 92
Width: 1120
GlyphClass: 2
Flags: W
HStem: -49 131<521.695 899> 1393 131<518.24 899>
VStem: 338 145<121.189 607.832 856.683 1356.67>
LayerCount: 2
Fore
SplineSet
171 664 m 1,0,-1
 171 802 l 1,1,2
 239 818 239 818 288.5 855.5 c 128,-1,3
 338 893 338 893 338 978 c 2,4,-1
 338 1232 l 2,5,6
 338 1391 338 1391 411.5 1457.5 c 128,-1,7
 485 1524 485 1524 660 1524 c 2,8,-1
 899 1524 l 1,9,-1
 899 1393 l 1,10,-1
 671 1393 l 2,11,12
 512 1393 512 1393 490 1300 c 0,13,14
 482 1269 482 1269 483 1189 c 2,15,-1
 483 970 l 2,16,17
 483 874 483 874 432 820.5 c 128,-1,18
 381 767 381 767 317 732 c 1,19,20
 379 697 379 697 431 641 c 128,-1,21
 483 585 483 585 483 492 c 2,22,-1
 483 293 l 2,23,24
 482 206 482 206 492 172 c 0,25,26
 518 82 518 82 671 82 c 2,27,-1
 899 82 l 1,28,-1
 899 -49 l 1,29,-1
 667 -49 l 2,30,31
 494 -49 494 -49 416 21.5 c 128,-1,32
 338 92 338 92 338 264 c 2,33,-1
 338 487 l 2,34,35
 338 572 338 572 288.5 609 c 128,-1,36
 239 646 239 646 171 664 c 1,0,-1
EndSplineSet
EndChar

StartChar: bar
Encoding: 92 124 93
Width: 1120
GlyphClass: 2
Flags: W
HStem: -422 21G<493.5 626.5>
VStem: 493.5 133<-422 1626>
LayerCount: 2
Fore
SplineSet
493.5 -422 m 1,0,-1
 493.5 1626 l 1,1,-1
 626.5 1626 l 1,2,-1
 626.5 -422 l 1,3,-1
 493.5 -422 l 1,0,-1
EndSplineSet
EndChar

StartChar: braceright
Encoding: 93 125 94
Width: 1120
GlyphClass: 2
Flags: W
HStem: -49 131<221 601.432> 1393 131<221 602.012>
VStem: 637 145<121.189 607.832 856.683 1354.19>
LayerCount: 2
Fore
SplineSet
221 -49 m 1,0,-1
 221 82 l 1,1,-1
 449 82 l 2,2,3
 606 82 606 82 629 175 c 0,4,5
 637 207 637 207 637 293 c 2,6,-1
 637 492 l 2,7,8
 637 585 637 585 689 640.5 c 128,-1,9
 741 696 741 696 803 732 c 1,10,11
 740 767 740 767 688.5 819 c 128,-1,12
 637 871 637 871 637 970 c 2,13,-1
 637 1189 l 2,14,15
 636 1272 636 1272 628 1304 c 0,16,17
 604 1391 604 1391 449 1393 c 1,18,-1
 221 1393 l 1,19,-1
 221 1524 l 1,20,-1
 460 1524 l 2,21,22
 555 1524 555 1524 611 1510 c 0,23,24
 782 1466 782 1466 782 1232 c 2,25,-1
 782 978 l 2,26,27
 782 893 782 893 831.5 855.5 c 128,-1,28
 881 818 881 818 949 802 c 1,29,-1
 949 664 l 1,30,31
 881 646 881 646 831.5 609 c 128,-1,32
 782 572 782 572 782 487 c 2,33,-1
 782 264 l 2,34,35
 782 92 782 92 704 21.5 c 128,-1,36
 626 -49 626 -49 454 -49 c 2,37,-1
 221 -49 l 1,0,-1
EndSplineSet
EndChar

StartChar: asciitilde
Encoding: 94 126 95
Width: 1120
GlyphClass: 2
Flags: W
HStem: 478 180<664 859> 703 170<241 427>
VStem: 42 140<506 565>
LayerCount: 2
Fore
SplineSet
774.200195312 658 m 0,0,1
 876.286132812 658 876.286132812 658 927.200195312 856 c 1,2,-1
 1078.40039062 837 l 1,3,4
 1058.59960938 739 1058.59960938 739 1024.40039062 662.5 c 128,-1,5
 990.200195312 586 990.200195312 586 918.200195312 532 c 128,-1,6
 846.200195312 478 846.200195312 478 785.900390625 478 c 128,-1,7
 725.599609375 478 725.599609375 478 672.5 501 c 128,-1,8
 619.400390625 524 619.400390625 524 524 592.5 c 128,-1,9
 428.599609375 661 428.599609375 661 386.299804688 682 c 128,-1,10
 344 703 344 703 313.400390625 703 c 0,11,12
 250.400390625 703 250.400390625 703 212.599609375 603 c 0,13,14
 198.200195312 565 198.200195312 565 181.099609375 472 c 1,15,-1
 41.599609375 510 l 1,16,17
 47 554 47 554 47 565 c 0,18,19
 62.2998046875 695 62.2998046875 695 137.450195312 784 c 128,-1,20
 212.599609375 873 212.599609375 873 317.900390625 873 c 128,-1,21
 423.200195312 873 423.200195312 873 596 749 c 0,22,23
 673.400390625 694 673.400390625 694 707.599609375 676 c 128,-1,24
 741.799804688 658 741.799804688 658 774.200195312 658 c 0,0,1
EndSplineSet
EndChar

StartChar: exclamdown
Encoding: 96 161 96
Width: 1120
GlyphClass: 2
Flags: W
HStem: 774 330<447.546 672.454>
VStem: 395 330<825.021 1051.45> 458 200<-400 -2.46659> 486 135<228.467 626>
LayerCount: 2
Fore
SplineSet
395 939 m 256,0,1
 395 1008 395 1008 443.5 1056 c 128,-1,2
 492 1104 492 1104 560.5 1104 c 128,-1,3
 629 1104 629 1104 677 1055.5 c 128,-1,4
 725 1007 725 1007 725 938.5 c 128,-1,5
 725 870 725 870 677 822 c 128,-1,6
 629 774 629 774 560 774 c 256,7,8
 491 774 491 774 443 822 c 128,-1,9
 395 870 395 870 395 939 c 256,0,1
458 -400 m 1,10,-1
 486 626 l 1,11,-1
 621 626 l 1,12,-1
 658 -400 l 1,13,-1
 458 -400 l 1,10,-1
EndSplineSet
EndChar

StartChar: cent
Encoding: 97 162 97
Width: 1120
GlyphClass: 2
Flags: W
VStem: 123 152<529.096 1039.91> 512 145<-62 224.781 352 1209 1346 1536>
LayerCount: 2
Fore
SplineSet
123 784 m 0,0,1
 123 1139 123 1139 352 1285 c 0,2,3
 424 1331 424 1331 493 1342 c 1,4,-1
 512 1346 l 1,5,-1
 512 1536 l 1,6,-1
 657 1536 l 1,7,-1
 657 1346 l 1,8,-1
 675 1346 l 2,9,10
 716 1346 716 1346 788.5 1307 c 128,-1,11
 861 1268 861 1268 897 1231 c 128,-1,12
 933 1194 933 1194 997 1110 c 1,13,-1
 861 1021 l 1,14,15
 786 1179 786 1179 657 1211 c 1,16,-1
 657 349 l 1,17,-1
 663 349 l 1,18,19
 775 384 775 384 888 518 c 1,20,-1
 991 412 l 1,21,-1
 959 380 l 2,22,23
 831 251 831 251 657 216 c 1,24,-1
 657 -62 l 1,25,-1
 512 -62 l 1,26,-1
 512 216 l 1,27,28
 337 244 337 244 230 390 c 128,-1,29
 123 536 123 536 123 784 c 0,0,1
275 792.5 m 128,-1,31
 275 595 275 595 337.5 492.5 c 128,-1,32
 400 390 400 390 499 357 c 1,33,-1
 512 352 l 1,34,-1
 512 1209 l 1,35,36
 465 1198 465 1198 420.5 1165 c 128,-1,37
 376 1132 376 1132 351 1097 c 0,38,30
 275 990 275 990 275 792.5 c 128,-1,31
EndSplineSet
EndChar

StartChar: sterling
Encoding: 98 163 98
Width: 1120
GlyphClass: 2
Flags: W
HStem: -27 139<678.696 916.261> 47 139<405.511 678.696> 758 131<70 268 458 832> 1363 139<465.469 762.793>
VStem: 223.494 152.506<894.045 1273.56> 356 151.503<309.686 741.178>
LayerCount: 2
Fore
SplineSet
70 758 m 1,0,-1
 70 889 l 1,1,-1
 268 889 l 1,2,3
 223.494140625 1059.11035156 223.494140625 1059.11035156 223.494140625 1128.95996094 c 128,-1,4
 223.494140625 1198.71679688 223.494140625 1198.71679688 249.747070312 1265.35839844 c 128,-1,5
 276 1332 276 1332 319 1382.5 c 128,-1,6
 362 1433 362 1433 444 1467.5 c 128,-1,7
 526 1502 526 1502 620 1502 c 128,-1,8
 714 1502 714 1502 805 1457 c 128,-1,9
 896 1412 896 1412 950 1335 c 0,10,11
 966 1313 966 1313 1004 1239 c 1,12,-1
 862 1192 l 1,13,14
 854 1206 854 1206 852 1213 c 0,15,16
 816 1284 816 1284 756 1323.5 c 128,-1,17
 696 1363 696 1363 632 1363 c 0,18,19
 504 1363 504 1363 440 1297 c 128,-1,20
 376 1231 376 1231 376 1137 c 128,-1,21
 376 1043 376 1043 416 889 c 1,22,-1
 832 889 l 1,23,-1
 832 758 l 1,24,-1
 458 758 l 1,25,26
 507.502929688 578.171875 507.502929688 578.171875 507.502929688 464.1484375 c 128,-1,27
 507.502929688 350.124023438 507.502929688 350.124023438 432 217 c 1,28,-1
 404 166 l 1,29,30
 469 186 469 186 541.5 186 c 128,-1,31
 614 186 614 186 696 149 c 128,-1,32
 778 112 778 112 808 112 c 0,33,34
 872 112 872 112 962 194 c 1,35,-1
 1050 96 l 1,36,37
 1005 51 1005 51 981.5 31 c 128,-1,38
 958 11 958 11 909 -8 c 128,-1,39
 860 -27 860 -27 804 -27 c 128,-1,40
 748 -27 748 -27 677 3.5 c 128,-1,41
 606 34 606 34 582 40.5 c 128,-1,42
 558 47 558 47 513 47 c 128,-1,43
 468 47 468 47 441 39.5 c 128,-1,44
 414 32 414 32 345 3.5 c 128,-1,45
 276 -25 276 -25 264 -33 c 1,46,-1
 182 72 l 1,47,48
 200 100 200 100 251 191 c 128,-1,49
 302 282 302 282 329 348.5 c 128,-1,50
 356 415 356 415 356 495 c 128,-1,51
 356 575 356 575 308 758 c 1,52,-1
 70 758 l 1,0,-1
EndSplineSet
EndChar

StartChar: currency
Encoding: 99 164 99
Width: 1120
GlyphClass: 2
Flags: W
HStem: 400 125<432.406 686.176> 973 125<432.685 686.962>
VStem: 226 125<607.409 890.591> 768 125.02<608.317 889.58>
DStem2: 180 1235 80 1135 0.700967 -0.713193<1.22262 284.005 942.052 1225.98> 80 360 180 261 0.701375 0.712793<0 284.471 943.392 1225.47>
LayerCount: 2
Fore
SplineSet
80 360 m 1,0,-1
 276 562 l 1,1,2
 226 644 226 644 226 749 c 256,3,4
 226 854 226 854 276 936 c 1,5,-1
 80 1135 l 1,6,-1
 180 1235 l 1,7,-1
 372 1040 l 1,8,9
 456 1098 456 1098 561 1098 c 128,-1,10
 666 1098 666 1098 748 1040 c 1,11,-1
 938 1235 l 1,12,-1
 1040 1135 l 1,13,-1
 844 936 l 1,14,15
 893.01953125 851.686523438 893.01953125 851.686523438 893.01953125 750.73046875 c 128,-1,16
 893.01953125 649.774414062 893.01953125 649.774414062 842 561 c 1,17,-1
 1040 360 l 1,18,-1
 938 261 l 1,19,-1
 748 457 l 1,20,21
 666 400 666 400 559 400 c 128,-1,22
 452 400 452 400 372 457 c 1,23,-1
 180 261 l 1,24,-1
 80 360 l 1,0,-1
351 749 m 256,25,26
 351 653 351 653 410.5 589 c 128,-1,27
 470 525 470 525 559 525 c 128,-1,28
 648 525 648 525 708 589 c 128,-1,29
 768 653 768 653 768 748 c 128,-1,30
 768 843 768 843 709 908 c 128,-1,31
 650 973 650 973 561 973 c 128,-1,32
 472 973 472 973 411.5 909 c 128,-1,33
 351 845 351 845 351 749 c 256,25,26
EndSplineSet
EndChar

StartChar: yen
Encoding: 100 165 100
Width: 1120
GlyphClass: 2
Flags: W
HStem: 0 21G<476 644> 494 131<202 487 633 917> 754 131<172 372 747 948> 1455 20G<107 347 769 1013>
VStem: 487 146<0 494>
DStem2: 271 1475 107 1475 0.408131 -0.912924<0 579.846 723.111 732.347> 560 802 690 754 0.408131 0.912924<0 9.23664 152.093 731.939>
LayerCount: 2
Fore
SplineSet
107 1475 m 1,0,-1
 271 1475 l 1,1,2
 423 1103 423 1103 560 802 c 1,3,4
 690 1089 690 1089 848 1475 c 1,5,-1
 1013 1475 l 1,6,7
 837 1090 837 1090 747 885 c 1,8,-1
 948 885 l 1,9,-1
 948 754 l 1,10,-1
 690 754 l 1,11,-1
 633 625 l 1,12,-1
 917 625 l 1,13,-1
 917 494 l 1,14,-1
 633 494 l 1,15,-1
 633 430 l 1,16,-1
 642 56 l 1,17,-1
 644 0 l 1,18,-1
 476 0 l 1,19,20
 478 43 478 43 483 246 c 2,21,-1
 487 430 l 1,22,-1
 487 494 l 1,23,-1
 202 494 l 1,24,-1
 202 625 l 1,25,-1
 487 625 l 1,26,-1
 430 754 l 1,27,-1
 172 754 l 1,28,-1
 172 885 l 1,29,-1
 372 885 l 1,30,-1
 107 1475 l 1,0,-1
EndSplineSet
EndChar

StartChar: brokenbar
Encoding: 101 166 101
Width: 1120
GlyphClass: 2
Flags: W
HStem: -422 21G<493.5 626.5>
VStem: 493.5 133<-422 275 932 1626>
LayerCount: 2
Fore
SplineSet
493.5 275 m 1,0,-1
 626.5 275 l 1,1,-1
 626.5 -422 l 1,2,-1
 493.5 -422 l 1,3,-1
 493.5 275 l 1,0,-1
493.5 932 m 1,4,-1
 493.5 1626 l 1,5,-1
 626.5 1626 l 1,6,-1
 626.5 932 l 1,7,-1
 493.5 932 l 1,4,-1
EndSplineSet
EndChar

StartChar: section
Encoding: 102 167 102
Width: 1120
GlyphClass: 2
Flags: W
HStem: -101 139<418.589 689.145> 1363 139<430.121 701.344>
VStem: 149.5 138.489<744.402 938.18> 219.5 149<87.6614 262> 231.5 152<1115.96 1321.03> 735.5 152<81.3201 286.3> 751.5 150<1141 1314.35> 831.5 139<465.245 658.435>
DStem2: 513.5 601 276.5 600 0.799292 -0.600942<-312.779 296.949> 435.5 1109 381.5 967 0.799292 -0.600942<42.172 637.538>
LayerCount: 2
Fore
SplineSet
149.5 831 m 0,0,1
 149.5 893 149.5 893 183.5 951 c 128,-1,2
 217.5 1009 217.5 1009 277.5 1045 c 1,3,-1
 289.5 1053 l 1,4,5
 231.5 1121 231.5 1121 231.5 1234.5 c 128,-1,6
 231.5 1348 231.5 1348 319.5 1425 c 128,-1,7
 407.5 1502 407.5 1502 555.5 1502 c 0,8,9
 741.5 1502 741.5 1502 835.5 1387 c 0,10,11
 900.5 1307 900.5 1307 901.5 1201 c 0,12,13
 901.5 1187 901.5 1187 897.5 1141 c 1,14,-1
 751.5 1141 l 1,15,-1
 751.5 1180 l 2,16,17
 751.5 1363 751.5 1363 565.5 1363 c 0,18,19
 481.5 1363 481.5 1363 432.5 1325 c 128,-1,20
 383.5 1287 383.5 1287 383.5 1220.5 c 128,-1,21
 383.5 1154 383.5 1154 435.5 1109 c 0,22,23
 460.5 1086 460.5 1086 630 963 c 128,-1,24
 799.5 840 799.5 840 842.5 803 c 0,25,26
 970.5 695 970.5 695 970.5 573 c 0,27,28
 970.5 511 970.5 511 934 450.5 c 128,-1,29
 897.5 390 897.5 390 829.5 350 c 1,30,31
 887.5 275 887.5 275 887.5 164 c 128,-1,32
 887.5 53 887.5 53 799.5 -24 c 128,-1,33
 711.5 -101 711.5 -101 565.5 -101 c 0,34,35
 377.5 -101 377.5 -101 283.5 15 c 0,36,37
 219.5 95 219.5 95 219.5 204 c 0,38,39
 219.5 215 219.5 215 221.5 262 c 1,40,-1
 368.5 262 l 1,41,-1
 368.5 223 l 1,42,43
 369.5 38 369.5 38 553.5 38 c 0,44,45
 637.5 38 637.5 38 686.5 76.5 c 128,-1,46
 735.5 115 735.5 115 735.5 181.5 c 128,-1,47
 735.5 248 735.5 248 683.5 294 c 0,48,49
 662.5 312 662.5 312 491 437.5 c 128,-1,50
 319.5 563 319.5 563 276.5 600 c 0,51,52
 149.5 708 149.5 708 149.5 831 c 0,0,1
737.5 436 m 1,53,54
 831.5 472.782226562 831.5 472.782226562 831.5 569.5 c 0,55,56
 831.5 613 831.5 613 787.5 658 c 128,-1,57
 743.5 703 743.5 703 607.5 800.5 c 128,-1,58
 471.5 898 471.5 898 381.5 967 c 1,59,-1
 371.5 962 l 1,60,61
 333.5 947 333.5 947 310.745117188 912.372070312 c 128,-1,62
 287.989257812 877.745117188 287.989257812 877.745117188 287.989257812 834.13671875 c 128,-1,63
 287.989257812 790.528320312 287.989257812 790.528320312 332.745117188 744.263671875 c 128,-1,64
 377.5 698 377.5 698 513.5 601 c 128,-1,65
 649.5 504 649.5 504 737.5 436 c 1,53,54
EndSplineSet
EndChar

StartChar: dieresis
Encoding: 103 168 103
Width: 1120
GlyphClass: 2
Flags: W
HStem: 1217 283<276.801 474.199 645.801 843.199>
VStem: 234 283<1259.8 1457.2> 603 283<1259.8 1457.2>
LayerCount: 2
Fore
SplineSet
234 1359 m 128,-1,1
 234 1418 234 1418 275.5 1459 c 128,-1,2
 317 1500 317 1500 376 1500 c 128,-1,3
 435 1500 435 1500 476 1458.5 c 128,-1,4
 517 1417 517 1417 517 1358 c 256,5,6
 517 1299 517 1299 475.5 1258 c 128,-1,7
 434 1217 434 1217 375.5 1217 c 128,-1,8
 317 1217 317 1217 275.5 1258.5 c 128,-1,0
 234 1300 234 1300 234 1359 c 128,-1,1
603 1358.5 m 128,-1,10
 603 1418 603 1418 644.5 1459 c 128,-1,11
 686 1500 686 1500 745 1500 c 128,-1,12
 804 1500 804 1500 845 1458.5 c 128,-1,13
 886 1417 886 1417 886 1358.5 c 128,-1,14
 886 1300 886 1300 844.5 1258.5 c 128,-1,15
 803 1217 803 1217 744.5 1217 c 128,-1,16
 686 1217 686 1217 644.5 1258 c 128,-1,9
 603 1299 603 1299 603 1358.5 c 128,-1,10
EndSplineSet
EndChar

StartChar: copyright
Encoding: 104 169 104
Width: 1120
GlyphClass: 2
Flags: W
HStem: 531 84<412.349 705.638> 703 84<481.726 649.447> 1182 84<484.305 644.314> 1363 84<414.327 704.108>
VStem: 144 90<800.593 1174.96> 355 90<817.832 1147.09> 655 91<794.491 868 1115 1145.81> 886 90<802.752 1176.48>
LayerCount: 2
Fore
SplineSet
144 987 m 0,0,1
 144 1163 144 1163 250 1294 c 0,2,3
 308 1365 308 1365 391 1406 c 128,-1,4
 474 1447 474 1447 570.5 1447 c 128,-1,5
 667 1447 667 1447 765 1385.5 c 128,-1,6
 863 1324 863 1324 919.5 1217.5 c 128,-1,7
 976 1111 976 1111 976 989 c 0,8,9
 976 815 976 815 869 685 c 0,10,11
 742.805664062 531 742.805664062 531 548 531 c 0,12,13
 451 531 451 531 353 593 c 0,14,15
 256 655 256 655 200 760.5 c 128,-1,16
 144 866 144 866 144 987 c 0,0,1
234 967.5 m 128,-1,18
 234 843 234 843 322 735 c 0,19,20
 420.571289062 615 420.571289062 615 566.5 615 c 0,21,22
 639 615 639 615 715.5 662.5 c 128,-1,23
 792 710 792 710 839 797.5 c 128,-1,24
 886 885 886 885 886 989 c 0,25,26
 886 1136 886 1136 798 1243 c 0,27,28
 753 1298 753 1298 688.5 1330.5 c 128,-1,29
 624 1363 624 1363 552.5 1363 c 128,-1,30
 481 1363 481 1363 404.5 1315.5 c 128,-1,31
 328 1268 328 1268 281 1180 c 128,-1,17
 234 1092 234 1092 234 967.5 c 128,-1,18
355 984.5 m 128,-1,33
 355 1266 355 1266 570 1266 c 0,34,35
 638 1266 638 1266 685 1231 c 128,-1,36
 732 1196 732 1196 739 1142 c 2,37,-1
 743 1115 l 1,38,-1
 649 1115 l 1,39,40
 646 1140 646 1140 644 1146 c 0,41,42
 630 1182 630 1182 570 1182 c 0,43,44
 445 1182 445 1182 445 984.5 c 128,-1,45
 445 787 445 787 565 787 c 0,46,47
 645 787 645 787 655 848 c 0,48,49
 656 858 656 858 657 868 c 1,50,-1
 750 868 l 1,51,52
 748 855 748 855 746 841 c 0,53,54
 738 786 738 786 706 754 c 0,55,56
 655 703 655 703 564 703 c 0,57,32
 355 703 355 703 355 984.5 c 128,-1,33
EndSplineSet
EndChar

StartChar: ordfeminine
Encoding: 105 170 105
Width: 1120
GlyphClass: 2
Flags: W
HStem: 543 106<445.53 616.008> 924 106<455.313 665.554> 1114 21G<374.615 442.5> 1161 107<387.623 645.791>
VStem: 307 114<675.076 889.891> 668 110<701.899 911.238 1000 1141.18>
LayerCount: 2
Fore
SplineSet
307 781.5 m 128,-1,1
 307 889 307 889 370.5 959.5 c 128,-1,2
 434 1030 434 1030 536 1030 c 0,3,4
 585 1030 585 1030 668 1000 c 1,5,-1
 668 1018 l 2,6,7
 668 1161 668 1161 562 1161 c 0,8,9
 505 1161 505 1161 380 1114 c 1,10,-1
 352 1218 l 1,11,12
 481 1268 481 1268 570.5 1268 c 128,-1,13
 660 1268 660 1268 719 1201 c 128,-1,14
 778 1134 778 1134 778 1018 c 2,15,-1
 778 780 l 2,16,17
 778 703 778 703 785 658.5 c 128,-1,18
 792 614 792 614 813 553 c 1,19,-1
 706 540 l 1,20,21
 703 549 703 549 698 559 c 128,-1,22
 693 569 693 569 679 616 c 1,23,24
 610 543 610 543 515 543 c 128,-1,25
 420 543 420 543 363.5 608.5 c 128,-1,0
 307 674 307 674 307 781.5 c 128,-1,1
421 784 m 128,-1,27
 421 717 421 717 448.5 683 c 128,-1,28
 476 649 476 649 521 649 c 0,29,30
 596 649 596 649 668 756 c 1,31,-1
 668 897 l 1,32,33
 594 924 594 924 544.5 924 c 128,-1,34
 495 924 495 924 458 887.5 c 128,-1,26
 421 851 421 851 421 784 c 128,-1,27
EndSplineSet
EndChar

StartChar: guillemotleft
Encoding: 106 171 106
Width: 1120
GlyphClass: 2
Flags: W
DStem2: 254 741 60 741 0.724353 -0.689429<0 631.725> 60 741 254 741 0.727589 0.686013<141.152 769.665> 602 741 406 741 0.724353 -0.689429<0 630.277> 406 741 602 741 0.727589 0.686013<142.608 769.665>
LayerCount: 2
Fore
SplineSet
60 741 m 1,0,-1
 620 1269 l 1,1,-1
 714 1172 l 1,2,-1
 254 741 l 1,3,-1
 714 308 l 1,4,-1
 620 208 l 1,5,-1
 60 741 l 1,0,-1
406 741 m 1,6,-1
 966 1269 l 1,7,-1
 1060 1172 l 1,8,-1
 602 741 l 1,9,-1
 1060 308 l 1,10,-1
 966 208 l 1,11,-1
 406 741 l 1,6,-1
EndSplineSet
EndChar

StartChar: logicalnot
Encoding: 107 172 107
Width: 1120
GlyphClass: 2
Flags: W
HStem: 0 21G<936.5 1039.5> 494 96<80.5 936.5>
VStem: 936.5 103<0 494>
LayerCount: 2
Fore
SplineSet
80.5 494 m 1,0,-1
 80.5 590 l 1,1,-1
 1039.5 590 l 1,2,-1
 1039.5 0 l 1,3,-1
 936.5 0 l 1,4,-1
 936.5 494 l 1,5,-1
 80.5 494 l 1,0,-1
EndSplineSet
EndChar

StartChar: uni00AD
Encoding: 108 173 108
Width: 1120
GlyphClass: 2
Flags: W
HStem: 668 131<293.5 826.5>
VStem: 293.5 533<668 799>
LayerCount: 2
Fore
SplineSet
293.5 668 m 1,0,-1
 293.5 799 l 1,1,-1
 826.5 799 l 1,2,-1
 826.5 668 l 1,3,-1
 293.5 668 l 1,0,-1
EndSplineSet
EndChar

StartChar: registered
Encoding: 109 174 109
Width: 1120
GlyphClass: 2
Flags: W
HStem: 531 84<414.532 706.75> 933 78<489 560> 1188 78<489 630.082> 1363 84<416.759 705.566>
VStem: 144 90<801.479 1173.97> 392 97<721 933 1011 1188> 660 89.5029<1025.19 1173.04> 886 90<797.689 1173.09>
DStem2: 650 954 560 933 0.592681 -0.805438<0 223.228>
LayerCount: 2
Fore
SplineSet
144 986 m 0,0,1
 144 1162 144 1162 250 1293 c 0,2,3
 374.465820312 1447 374.465820312 1447 570 1447 c 0,4,5
 666 1447 666 1447 764 1385.5 c 128,-1,6
 862 1324 862 1324 919 1216.5 c 128,-1,7
 976 1109 976 1109 976 988 c 0,8,9
 976 815 976 815 868 685 c 0,10,11
 743.944335938 531 743.944335938 531 547 531 c 0,12,13
 450 531 450 531 354 593 c 256,14,15
 257 655 257 655 200.5 760.5 c 128,-1,16
 144 866 144 866 144 986 c 0,0,1
234 988 m 0,17,18
 234 843 234 843 322 735 c 0,19,20
 369 679 369 679 432.5 647 c 128,-1,21
 496 615 496 615 560 615 c 0,22,23
 686 615 686 615 788 721 c 1,24,-1
 710 721 l 1,25,-1
 560 933 l 1,26,-1
 489 933 l 1,27,-1
 489 867 l 1,28,-1
 494 721 l 1,29,-1
 392 721 l 1,30,-1
 392 746 l 1,31,-1
 396 867 l 1,32,-1
 396 1117 l 1,33,-1
 392 1240 l 1,34,-1
 392 1266 l 1,35,-1
 554 1266 l 2,36,37
 618 1266 618 1266 662 1246 c 0,38,39
 749.502929688 1204.76367188 749.502929688 1204.76367188 749.502929688 1104.25683594 c 128,-1,40
 749.502929688 1003.75097656 749.502929688 1003.75097656 650 954 c 1,41,-1
 806 742 l 1,42,43
 886 849 886 849 886 990.5 c 128,-1,44
 886 1132 886 1132 796 1242 c 0,45,46
 698.767578125 1363 698.767578125 1363 552 1363 c 0,47,48
 480 1363 480 1363 404 1315 c 128,-1,49
 328 1267 328 1267 281 1179 c 128,-1,50
 234 1091 234 1091 234 988 c 0,17,18
489 1011 m 1,51,-1
 546 1011 l 2,52,53
 660 1011 660 1011 660 1106 c 0,54,55
 660 1153 660 1153 631 1170.5 c 128,-1,56
 602 1188 602 1188 524 1188 c 2,57,-1
 489 1188 l 1,58,-1
 489 1011 l 1,51,-1
EndSplineSet
EndChar

StartChar: macron
Encoding: 110 175 110
Width: 1120
GlyphClass: 2
Flags: W
HStem: 1733 143<33 1087>
LayerCount: 2
Fore
SplineSet
33 1733 m 1,0,-1
 33 1876 l 1,1,-1
 1087 1876 l 1,2,-1
 1087 1733 l 1,3,-1
 33 1733 l 1,0,-1
EndSplineSet
EndChar

StartChar: degree
Encoding: 111 176 111
Width: 1120
GlyphClass: 2
Flags: W
HStem: 855 139<433.137 687.8> 1369 139<433.25 687.345>
VStem: 211 152<1063.4 1299.42> 757 152<1062.95 1300.8>
LayerCount: 2
Fore
SplineSet
211 1183 m 128,-1,1
 211 1320 211 1320 314 1414 c 128,-1,2
 417 1508 417 1508 561 1508 c 128,-1,3
 705 1508 705 1508 807 1413 c 256,4,5
 909 1318 909 1318 909 1182 c 128,-1,6
 909 1046 909 1046 807.5 950.5 c 128,-1,7
 706 855 706 855 560 855 c 256,8,9
 414 855 414 855 312.5 950.5 c 128,-1,0
 211 1046 211 1046 211 1183 c 128,-1,1
363 1182 m 128,-1,11
 363 1104 363 1104 420.5 1049 c 128,-1,12
 478 994 478 994 560 994 c 256,13,14
 642 994 642 994 699.5 1048.5 c 128,-1,15
 757 1103 757 1103 757 1182 c 256,16,17
 757 1261 757 1261 699 1315 c 128,-1,18
 641 1369 641 1369 559.5 1369 c 128,-1,19
 478 1369 478 1369 420.5 1314.5 c 128,-1,10
 363 1260 363 1260 363 1182 c 128,-1,11
EndSplineSet
EndChar

StartChar: plusminus
Encoding: 112 177 112
Width: 1120
GlyphClass: 2
Flags: W
HStem: 0 143<60 1060> 664 143<60 488 631 1060>
VStem: 488 143<180 664 807 1294>
LayerCount: 2
Fore
SplineSet
60 0 m 1,0,-1
 60 143 l 1,1,-1
 1060 143 l 1,2,-1
 1060 0 l 1,3,-1
 60 0 l 1,0,-1
60 664 m 1,4,-1
 60 807 l 1,5,-1
 488 807 l 1,6,-1
 488 1294 l 1,7,-1
 631 1294 l 1,8,-1
 631 807 l 1,9,-1
 1060 807 l 1,10,-1
 1060 664 l 1,11,-1
 631 664 l 1,12,-1
 631 180 l 1,13,-1
 488 180 l 1,14,-1
 488 664 l 1,15,-1
 60 664 l 1,4,-1
EndSplineSet
EndChar

StartChar: uni00B2
Encoding: 113 178 113
Width: 1120
GlyphClass: 2
Flags: W
HStem: 712 117<462 796> 1370 118<499.854 660.833>
VStem: 666 128<1198.42 1363.65>
LayerCount: 2
Fore
SplineSet
324 712 m 1,0,1
 325 819 325 819 333.5 864 c 128,-1,2
 342 909 342 909 376 965.5 c 128,-1,3
 410 1022 410 1022 508 1099.5 c 128,-1,4
 606 1177 606 1177 636 1215 c 128,-1,5
 666 1253 666 1253 666 1291 c 0,6,7
 666 1370 666 1370 582 1370 c 0,8,9
 527 1370 527 1370 502.5 1338 c 128,-1,10
 478 1306 478 1306 472 1225 c 1,11,-1
 336 1225 l 1,12,13
 338 1239 338 1239 340 1258 c 0,14,15
 350 1348 350 1348 390 1400 c 0,16,17
 456 1488 456 1488 568 1488 c 128,-1,18
 680 1488 680 1488 737 1433 c 128,-1,19
 794 1378 794 1378 794 1305.5 c 128,-1,20
 794 1233 794 1233 768 1187 c 128,-1,21
 742 1141 742 1141 698 1101 c 128,-1,22
 654 1061 654 1061 566 986 c 128,-1,23
 478 911 478 911 462 829 c 1,24,-1
 796 829 l 1,25,-1
 796 712 l 1,26,-1
 324 712 l 1,0,1
EndSplineSet
EndChar

StartChar: uni00B3
Encoding: 114 179 114
Width: 1120
GlyphClass: 2
Flags: W
HStem: 700 118<462.786 666.317> 1058 119<494 641.189> 1370 118<468.856 640.709>
VStem: 663 128<1201.34 1348.47> 695 128<845.607 1028.33>
LayerCount: 2
Fore
SplineSet
297 872 m 1,0,-1
 418 939 l 1,1,2
 433 908 433 908 442 892 c 0,3,4
 483 818 483 818 554.5 818 c 128,-1,5
 626 818 626 818 660.5 849 c 128,-1,6
 695 880 695 880 695 933 c 0,7,8
 695 1058 695 1058 534 1058 c 2,9,-1
 494 1058 l 1,10,-1
 494 1177 l 1,11,12
 532 1177 532 1177 564.5 1179 c 128,-1,13
 597 1181 597 1181 630 1210.5 c 128,-1,14
 663 1240 663 1240 663 1279 c 128,-1,15
 663 1318 663 1318 634 1344 c 128,-1,16
 605 1370 605 1370 562 1370 c 0,17,18
 486 1370 486 1370 440 1286 c 0,19,20
 430 1267 430 1267 426 1259 c 1,21,-1
 309 1323 l 1,22,23
 316 1335 316 1335 325 1349 c 0,24,25
 410 1488 410 1488 562 1488 c 0,26,27
 667 1488 667 1488 729 1423 c 128,-1,28
 791 1358 791 1358 791 1276 c 0,29,30
 791 1230 791 1230 776 1201.5 c 128,-1,31
 761 1173 761 1173 716 1129 c 1,32,-1
 734 1117 l 1,33,34
 823 1056 823 1056 823 948 c 128,-1,35
 823 840 823 840 753 770 c 128,-1,36
 683 700 683 700 562 700 c 0,37,38
 481 700 481 700 425.5 732.5 c 128,-1,39
 370 765 370 765 315 845 c 1,40,-1
 297 872 l 1,0,-1
EndSplineSet
EndChar

StartChar: acute
Encoding: 115 180 115
Width: 1120
GlyphClass: 2
Flags: W
HStem: 1189 388
VStem: 323.5 473
LayerCount: 2
Fore
SplineSet
323.5 1289 m 1,0,-1
 683.5 1577 l 1,1,-1
 796.5 1451 l 1,2,-1
 399.5 1189 l 1,3,-1
 323.5 1289 l 1,0,-1
EndSplineSet
EndChar

StartChar: mu
Encoding: 116 181 116
Width: 1120
GlyphClass: 2
Flags: W
HStem: -27 139<431.392 678.672> 0 21G<796 941> 1074 20G<168 334 784 952>
VStem: 178 145<-440 99 230 1094> 796 145<0 108 240.006 1094>
LayerCount: 2
Fore
SplineSet
168 -440 m 1,0,1
 168 -418 168 -418 170 -383 c 1,2,-1
 178 -10 l 1,3,-1
 178 665 l 1,4,-1
 170 1038 l 1,5,6
 168 1071 168 1071 168 1094 c 1,7,-1
 334 1094 l 1,8,-1
 332 1038 l 1,9,-1
 323 665 l 1,10,-1
 323 496 l 2,11,12
 322.959960938 489.559570312 322.959960938 489.559570312 322.959960938 483.283203125 c 0,13,14
 322.959960938 332.639648438 322.959960938 332.639648438 346 276 c 0,15,16
 384 177 384 177 466 134 c 0,17,18
 508 112 508 112 552 112 c 0,19,20
 644 112 644 112 716 191 c 0,21,22
 760 238 760 238 778 307.5 c 128,-1,23
 796 377 796 377 796 496 c 2,24,-1
 796 665 l 2,25,26
 796 785 796 785 784 1094 c 1,27,-1
 952 1094 l 1,28,-1
 950 1038 l 1,29,-1
 941 665 l 1,30,-1
 941 0 l 1,31,-1
 796 0 l 1,32,-1
 796 108 l 1,33,34
 694 -27 694 -27 560 -27 c 256,35,36
 427 -27 427 -27 323 99 c 1,37,-1
 323 -10 l 1,38,-1
 332 -383 l 1,39,-1
 334 -440 l 1,40,-1
 168 -440 l 1,0,1
EndSplineSet
EndChar

StartChar: paragraph
Encoding: 117 182 117
Width: 1120
GlyphClass: 2
Flags: W
HStem: 1358 117<626.752 817.752 950.752 1035.75>
VStem: 84.248 542.504<865.691 1256.12> 493.752 133<-223 654> 817.752 133<-223 1358>
LayerCount: 2
Fore
SplineSet
150.751953125 826 m 0,0,1
 84.248046875 928.778320312 84.248046875 928.778320312 84.248046875 1064.23632812 c 128,-1,2
 84.248046875 1199.6953125 84.248046875 1199.6953125 154 1297.34765625 c 128,-1,3
 223.751953125 1395 223.751953125 1395 312.751953125 1435 c 128,-1,4
 401.751953125 1475 401.751953125 1475 531.751953125 1475 c 2,5,-1
 1035.75195312 1475 l 1,6,-1
 1035.75195312 1358 l 1,7,-1
 950.751953125 1358 l 1,8,-1
 950.751953125 -223 l 1,9,-1
 817.751953125 -223 l 1,10,-1
 817.751953125 1358 l 1,11,-1
 626.751953125 1358 l 1,12,-1
 626.751953125 -223 l 1,13,-1
 493.751953125 -223 l 1,14,-1
 493.751953125 654 l 1,15,16
 262.751953125 654 262.751953125 654 150.751953125 826 c 0,0,1
EndSplineSet
EndChar

StartChar: periodcentered
Encoding: 118 183 118
Width: 1120
GlyphClass: 2
Flags: W
HStem: 415 277<464.032 656.738>
VStem: 421.747 276.506<457.285 649.447>
LayerCount: 2
Fore
SplineSet
421.747070312 554.5 m 128,-1,1
 421.747070312 612 421.747070312 612 462.747070312 652 c 128,-1,2
 503.747070312 692 503.747070312 692 560.747070312 692 c 128,-1,3
 617.747070312 692 617.747070312 692 658 650.740234375 c 128,-1,4
 698.252929688 609.481445312 698.252929688 609.481445312 698.252929688 552.494140625 c 128,-1,5
 698.252929688 495.505859375 698.252929688 495.505859375 658 455.252929688 c 128,-1,6
 617.747070312 415 617.747070312 415 559.747070312 415 c 128,-1,7
 501.747070312 415 501.747070312 415 461.747070312 456 c 128,-1,0
 421.747070312 497 421.747070312 497 421.747070312 554.5 c 128,-1,1
EndSplineSet
EndChar

StartChar: cedilla
Encoding: 119 184 119
Width: 1120
GlyphClass: 2
Flags: W
HStem: -428 123<402.49 621.547>
VStem: 624 152<-298.266 -209.732>
LayerCount: 2
Fore
SplineSet
344 -367 m 1,0,-1
 389 -255 l 1,1,2
 492 -305 492 -305 534 -305 c 128,-1,3
 576 -305 576 -305 600 -288 c 128,-1,4
 624 -271 624 -271 624 -250 c 256,5,6
 624 -229 624 -229 601 -214 c 128,-1,7
 578 -199 578 -199 538.5 -199 c 128,-1,8
 499 -199 499 -199 424 -222 c 1,9,-1
 518 39 l 1,10,-1
 646 39 l 1,11,-1
 598 -99 l 1,12,13
 679 -103 679 -103 727.5 -146 c 128,-1,14
 776 -189 776 -189 776 -254.5 c 128,-1,15
 776 -320 776 -320 722.5 -374 c 128,-1,16
 669 -428 669 -428 577 -428 c 128,-1,17
 485 -428 485 -428 344 -367 c 1,0,-1
EndSplineSet
EndChar

StartChar: uni00B9
Encoding: 120 185 120
Width: 1120
GlyphClass: 2
Flags: W
HStem: 712 117<362 500 632 768> 1309 124<352 476>
VStem: 500 132<829 1352>
LayerCount: 2
Fore
SplineSet
352 1309 m 1,0,-1
 352 1433 l 1,1,-1
 632 1516 l 1,2,-1
 632 829 l 1,3,-1
 768 829 l 1,4,-1
 768 712 l 1,5,-1
 362 712 l 1,6,-1
 362 829 l 1,7,-1
 500 829 l 1,8,-1
 500 1352 l 1,9,-1
 352 1309 l 1,0,-1
EndSplineSet
EndChar

StartChar: ordmasculine
Encoding: 121 186 121
Width: 1120
GlyphClass: 2
Flags: W
HStem: 543 106<442.92 676.78> 1162 106<443.941 676.695>
VStem: 266.997 114<713.472 1094.17> 738.997 114.006<713.079 1093.95>
LayerCount: 2
Fore
SplineSet
266.997070312 900 m 128,-1,1
 266.997070312 1064 266.997070312 1064 332.997070312 1155 c 0,2,3
 414.997070312 1268 414.997070312 1268 563.997070312 1268 c 0,4,5
 629.997070312 1268 629.997070312 1268 689.997070312 1238 c 0,6,7
 853.002929688 1156.49707031 853.002929688 1156.49707031 853.002929688 905.75 c 128,-1,8
 853.002929688 655.002929688 853.002929688 655.002929688 688.997070312 573 c 0,9,10
 628.997070312 543 628.997070312 543 559.997070312 543 c 0,11,12
 423.997070312 543 423.997070312 543 345.497070312 639.5 c 128,-1,0
 266.997070312 736 266.997070312 736 266.997070312 900 c 128,-1,1
380.997070312 905.5 m 128,-1,14
 380.997070312 649 380.997070312 649 559.997070312 649 c 256,15,16
 738.997070312 649 738.997070312 649 738.997070312 905 c 0,17,18
 738.997070312 1024 738.997070312 1024 695.997070312 1093 c 128,-1,19
 652.997070312 1162 652.997070312 1162 562.997070312 1162 c 0,20,13
 380.997070312 1162 380.997070312 1162 380.997070312 905.5 c 128,-1,14
EndSplineSet
EndChar

StartChar: guillemotright
Encoding: 122 187 122
Width: 1120
GlyphClass: 2
Flags: W
DStem2: 154 1269 58 1172 0.726363 -0.687311<0 627.296> 58 308 154 208 0.72312 0.690722<0.347305 631.718> 502 1269 408 1172 0.727589 -0.686013<0 627.057> 408 308 502 208 0.724353 0.689429<0 630.277>
LayerCount: 2
Fore
SplineSet
58 308 m 1,0,-1
 518 741 l 1,1,-1
 58 1172 l 1,2,-1
 154 1269 l 1,3,-1
 712 741 l 1,4,-1
 154 208 l 1,5,-1
 58 308 l 1,0,-1
408 308 m 1,6,-1
 866 741 l 1,7,-1
 408 1172 l 1,8,-1
 502 1269 l 1,9,-1
 1062 741 l 1,10,-1
 502 208 l 1,11,-1
 408 308 l 1,6,-1
EndSplineSet
EndChar

StartChar: onequarter
Encoding: 123 188 123
Width: 1120
GlyphClass: 2
Flags: W
HStem: -6 6G<204 341.665 805 936> 182 117<672 805 936 1041> 712 117<88 227 359 494> 1309 124<79 203> 1481 20G<852.401 995>
VStem: 227 132<829 1352> 805 131<0 182 299 540>
DStem2: 204 -27 333 -27 0.39754 0.917585<51.2827 1663.25> 508 265 672 299 0.488395 0.872622<109.766 385.025>
LayerCount: 2
Fore
SplineSet
79 1309 m 1,0,-1
 79 1433 l 1,1,-1
 359 1516 l 1,2,-1
 359 829 l 1,3,-1
 494 829 l 1,4,-1
 494 712 l 1,5,-1
 88 712 l 1,6,-1
 88 829 l 1,7,-1
 227 829 l 1,8,-1
 227 1352 l 1,9,-1
 79 1309 l 1,0,-1
204 -27 m 1,10,-1
 861 1501 l 1,11,-1
 995 1501 l 1,12,-1
 333 -27 l 1,13,-1
 204 -27 l 1,10,-1
508 182 m 1,14,-1
 508 265 l 1,15,-1
 794 776 l 1,16,-1
 936 776 l 1,17,-1
 936 299 l 1,18,-1
 1041 299 l 1,19,-1
 1041 182 l 1,20,-1
 936 182 l 1,21,-1
 936 0 l 1,22,-1
 805 0 l 1,23,-1
 805 182 l 1,24,-1
 508 182 l 1,14,-1
672 299 m 1,25,-1
 805 299 l 1,26,-1
 805 540 l 1,27,-1
 672 299 l 1,25,-1
EndSplineSet
EndChar

StartChar: onehalf
Encoding: 124 189 124
Width: 1120
GlyphClass: 2
Flags: W
HStem: -27 21G<176 314.639> 0 117<716 1050> 658 118<754.496 914.032> 712 117<80 218 350 486> 1309 124<70 194> 1481 20G<825.387 966>
VStem: 218 132<829 1352> 590 135<513 623.958> 920 128<486.744 651.654>
DStem2: 176 -27 306 -27 0.396528 0.918023<51.5487 1663.65>
LayerCount: 2
Fore
SplineSet
70 1309 m 1,0,-1
 70 1433 l 1,1,-1
 350 1516 l 1,2,-1
 350 829 l 1,3,-1
 486 829 l 1,4,-1
 486 712 l 1,5,-1
 80 712 l 1,6,-1
 80 829 l 1,7,-1
 218 829 l 1,8,-1
 218 1352 l 1,9,-1
 70 1309 l 1,0,-1
176 -27 m 1,10,-1
 834 1501 l 1,11,-1
 966 1501 l 1,12,-1
 306 -27 l 1,13,-1
 176 -27 l 1,10,-1
576 0 m 1,14,15
 577 106 577 106 585.5 151.5 c 128,-1,16
 594 197 594 197 629 253 c 128,-1,17
 664 309 664 309 762 387.5 c 128,-1,18
 860 466 860 466 890 503.5 c 128,-1,19
 920 541 920 541 920 579 c 0,20,21
 920 658 920 658 836 658 c 0,22,23
 781 658 781 658 755.5 625 c 128,-1,24
 730 592 730 592 725 513 c 1,25,-1
 590 513 l 1,26,27
 610 776 610 776 836 776 c 0,28,29
 933 776 933 776 990.5 721 c 128,-1,30
 1048 666 1048 666 1048 593.5 c 128,-1,31
 1048 521 1048 521 1022 475 c 128,-1,32
 996 429 996 429 952 389 c 128,-1,33
 908 349 908 349 820 274.5 c 128,-1,34
 732 200 732 200 716 117 c 1,35,-1
 1050 117 l 1,36,-1
 1050 0 l 1,37,-1
 576 0 l 1,14,15
EndSplineSet
EndChar

StartChar: threequarters
Encoding: 125 190 125
Width: 1120
GlyphClass: 2
Flags: W
HStem: -6 6G<232 369.652 820 952> 182 117<688 820 952 1057> 700 118<228.786 432.317> 1058 119<260 407.189> 1370 118<234.856 406.709>
VStem: 429 128<1201.34 1348.47> 461 128<845.607 1028.33> 820 132<0 182 299 540>
DStem2: 232 -27 361 -27 0.397034 0.917804<51.2174 1663.26> 524 265 688 299 0.487093 0.87335<109.577 384.351>
LayerCount: 2
Fore
SplineSet
63 872 m 1,0,-1
 184 939 l 1,1,2
 199 908 199 908 208 892 c 0,3,4
 249 818 249 818 320.5 818 c 128,-1,5
 392 818 392 818 426.5 849 c 128,-1,6
 461 880 461 880 461 933 c 0,7,8
 461 1058 461 1058 300 1058 c 2,9,-1
 260 1058 l 1,10,-1
 260 1177 l 1,11,12
 298 1177 298 1177 330.5 1179 c 128,-1,13
 363 1181 363 1181 396 1210.5 c 128,-1,14
 429 1240 429 1240 429 1279 c 128,-1,15
 429 1318 429 1318 400 1344 c 128,-1,16
 371 1370 371 1370 328 1370 c 0,17,18
 252 1370 252 1370 206 1286 c 0,19,20
 196 1267 196 1267 192 1259 c 1,21,-1
 75 1323 l 1,22,23
 82 1335 82 1335 91 1349 c 0,24,25
 176 1488 176 1488 328 1488 c 0,26,27
 433 1488 433 1488 495 1423 c 128,-1,28
 557 1358 557 1358 557 1276 c 0,29,30
 557 1230 557 1230 542 1201.5 c 128,-1,31
 527 1173 527 1173 482 1129 c 1,32,-1
 500 1117 l 1,33,34
 589 1056 589 1056 589 948 c 128,-1,35
 589 840 589 840 519 770 c 128,-1,36
 449 700 449 700 328 700 c 0,37,38
 247 700 247 700 191.5 732.5 c 128,-1,39
 136 765 136 765 81 845 c 1,40,-1
 63 872 l 1,0,-1
232 -27 m 1,41,-1
 889 1501 l 1,42,-1
 1022 1501 l 1,43,-1
 361 -27 l 1,44,-1
 232 -27 l 1,41,-1
524 182 m 1,45,-1
 524 265 l 1,46,-1
 809 776 l 1,47,-1
 952 776 l 1,48,-1
 952 299 l 1,49,-1
 1057 299 l 1,50,-1
 1057 182 l 1,51,-1
 952 182 l 1,52,-1
 952 0 l 1,53,-1
 820 0 l 1,54,-1
 820 182 l 1,55,-1
 524 182 l 1,45,-1
688 299 m 1,56,-1
 820 299 l 1,57,-1
 820 540 l 1,58,-1
 688 299 l 1,56,-1
EndSplineSet
EndChar

StartChar: questiondown
Encoding: 126 191 126
Width: 1120
GlyphClass: 2
Flags: W
HStem: -427 139<422.771 694.716> 772 330<433.546 658.454>
VStem: 190 152<-209.761 76.0891> 381 330<823.021 1049.45> 485 146<358.887 634>
LayerCount: 2
Fore
SplineSet
190 -59 m 0,0,1
 190 91 190 91 286 189 c 0,2,3
 310 213 310 213 419 296 c 0,4,5
 462 330 462 330 473.5 358 c 128,-1,6
 485 386 485 386 485 463 c 2,7,-1
 485 634 l 1,8,-1
 631 634 l 1,9,-1
 631 391 l 2,10,11
 631 316 631 316 598.5 270.5 c 128,-1,12
 566 225 566 225 484.5 164 c 128,-1,13
 403 103 403 103 383 76 c 0,14,15
 342 18 342 18 342 -78.5 c 128,-1,16
 342 -175 342 -175 407.5 -231.5 c 128,-1,17
 473 -288 473 -288 553.5 -288 c 128,-1,18
 634 -288 634 -288 687 -250 c 128,-1,19
 740 -212 740 -212 756 -149 c 0,20,21
 762 -127 762 -127 767 -68 c 1,22,-1
 930 -68 l 1,23,24
 928 -87 928 -87 928 -97 c 0,25,26
 920 -194 920 -194 872 -268 c 0,27,28
 767 -427 767 -427 557 -427 c 0,29,30
 395 -427 395 -427 298 -336 c 0,31,32
 260 -300 260 -300 237 -255 c 0,33,34
 190 -164 190 -164 190 -59 c 0,0,1
381 937 m 256,35,36
 381 1006 381 1006 429.5 1054 c 128,-1,37
 478 1102 478 1102 546.5 1102 c 128,-1,38
 615 1102 615 1102 663 1053.5 c 128,-1,39
 711 1005 711 1005 711 936.5 c 128,-1,40
 711 868 711 868 663 820 c 128,-1,41
 615 772 615 772 546 772 c 256,42,43
 477 772 477 772 429 820 c 128,-1,44
 381 868 381 868 381 937 c 256,35,36
EndSplineSet
EndChar

StartChar: AE
Encoding: 133 198 133
Width: 1120
GlyphClass: 2
Flags: W
HStem: 0 131<729 1052> 438 131<375 584> 694 131<729 980> 1344 131<578 584 729 1036>
VStem: 68 156<0 156> 584 145<131 438 569 694 825 1344>
DStem2: 68 0 224 0 0.267812 0.963471<41.7787 494.845 630.433 630.433>
LayerCount: 2
Fore
SplineSet
68 0 m 1,0,-1
 478 1475 l 1,1,-1
 1036 1475 l 1,2,-1
 1036 1344 l 1,3,-1
 729 1344 l 1,4,-1
 729 825 l 1,5,-1
 980 825 l 1,6,-1
 980 694 l 1,7,-1
 729 694 l 1,8,-1
 729 131 l 1,9,-1
 1052 131 l 1,10,-1
 1052 0 l 1,11,-1
 584 0 l 1,12,-1
 584 438 l 1,13,-1
 340 438 l 1,14,-1
 224 0 l 1,15,-1
 68 0 l 1,0,-1
375 569 m 1,16,-1
 584 569 l 1,17,-1
 584 1344 l 1,18,-1
 578 1344 l 1,19,-1
 375 569 l 1,16,-1
EndSplineSet
EndChar

StartChar: Eth
Encoding: 143 208 143
Width: 1120
GlyphClass: 2
Flags: W
HStem: 0 131<342.248 717.424> 696 131<85.248 197.248 342.248 658.248> 1344 131<342.248 715.67>
VStem: 197.248 145<131 696 827 1344> 883.248 151.5<338.092 1132.04>
LayerCount: 2
Fore
SplineSet
85.248046875 696 m 1,0,-1
 85.248046875 827 l 1,1,-1
 197.248046875 827 l 1,2,-1
 197.248046875 1043 l 1,3,-1
 188.248046875 1419 l 2,4,5
 187.248046875 1454 187.248046875 1454 186.248046875 1475 c 1,6,-1
 521.248046875 1475 l 2,7,8
 658.248046875 1475 658.248046875 1475 734.248046875 1445 c 0,9,10
 889.248046875 1384 889.248046875 1384 951.248046875 1242 c 0,11,12
 1035.24804688 1054 1035.24804688 1054 1034.74804688 776 c 128,-1,13
 1034.24804688 498 1034.24804688 498 992.248046875 345 c 0,14,15
 921.248046875 90 921.248046875 90 720.248046875 25 c 0,16,17
 642.248046875 0 642.248046875 0 521.248046875 0 c 2,18,-1
 186.248046875 0 l 1,19,-1
 188.248046875 56 l 1,20,-1
 197.248046875 428 l 1,21,-1
 197.248046875 696 l 1,22,-1
 85.248046875 696 l 1,0,-1
342.248046875 131 m 1,23,-1
 512.248046875 131 l 2,24,25
 698.248046875 131 698.248046875 131 777.248046875 223 c 0,26,27
 834.248046875 289 834.248046875 289 858.748046875 406.5 c 128,-1,28
 883.248046875 524 883.248046875 524 883.248046875 768 c 128,-1,29
 883.248046875 1012 883.248046875 1012 834.248046875 1155 c 0,30,31
 768.248046875 1344 768.248046875 1344 512.248046875 1344 c 2,32,-1
 342.248046875 1344 l 1,33,-1
 342.248046875 827 l 1,34,-1
 658.248046875 827 l 1,35,-1
 658.248046875 696 l 1,36,-1
 342.248046875 696 l 1,37,-1
 342.248046875 131 l 1,23,-1
EndSplineSet
EndChar

StartChar: multiply
Encoding: 150 215 150
Width: 1120
GlyphClass: 2
Flags: W
DStem2: 158 1310 60 1212 0.660265 -0.751033<8.89527 613.906 761.859 1366.12> 64 288 162 190 0.659862 0.751387<0 598.542 746.565 1345.11>
LayerCount: 2
Fore
SplineSet
60 1212 m 1,0,-1
 158 1310 l 1,1,-1
 560 846 l 1,2,-1
 958 1306 l 1,3,-1
 1056 1207 l 1,4,-1
 658 748 l 1,5,-1
 1060 284 l 1,6,-1
 962 186 l 1,7,-1
 560 649 l 1,8,-1
 162 190 l 1,9,-1
 64 288 l 1,10,-1
 462 748 l 1,11,-1
 60 1212 l 1,0,-1
EndSplineSet
EndChar

StartChar: Oslash
Encoding: 151 216 151
Width: 1120
GlyphClass: 2
Flags: W
HStem: -27 139<419.349 701.845> 1364 139<419.786 700.501>
VStem: 109 152<373.139 1150.45> 862 152<330.106 1082.05>
DStem2: 84 18 196 -47 0.495061 0.868858<0 155.255 406.214 1301.34 1563.96 1697.26>
LayerCount: 2
Fore
SplineSet
84 18 m 1,0,-1
 190 204 l 1,1,2
 145 300 145 300 127 418.5 c 128,-1,3
 109 537 109 537 109 788.5 c 128,-1,4
 109 1040 109 1040 157 1188 c 128,-1,5
 205 1336 205 1336 309.5 1419.5 c 128,-1,6
 414 1503 414 1503 575 1503 c 128,-1,7
 736 1503 736 1503 858 1377 c 1,8,-1
 925 1494 l 1,9,-1
 1036 1429 l 1,10,-1
 938 1256 l 1,11,12
 980 1162 980 1162 997 1047.5 c 128,-1,13
 1014 933 1014 933 1014 684.5 c 128,-1,14
 1014 436 1014 436 965.5 287.5 c 128,-1,15
 917 139 917 139 812 56 c 128,-1,16
 707 -27 707 -27 549.5 -27 c 128,-1,17
 392 -27 392 -27 273 89 c 1,18,-1
 196 -47 l 1,19,-1
 84 18 l 1,0,-1
261 710.5 m 128,-1,21
 261 498 261 498 285 371 c 1,22,-1
 780 1240 l 1,23,24
 694 1364 694 1364 556.5 1364 c 128,-1,25
 419 1364 419 1364 338 1225 c 0,26,27
 297 1154 297 1154 279 1038.5 c 128,-1,20
 261 923 261 923 261 710.5 c 128,-1,21
349 223 m 1,28,29
 434 112 434 112 568 112 c 128,-1,30
 702 112 702 112 782 247.5 c 128,-1,31
 862 383 862 383 862 738 c 0,32,33
 862 968 862 968 840 1085 c 1,34,-1
 349 223 l 1,28,29
EndSplineSet
EndChar

StartChar: Thorn
Encoding: 157 222 157
Width: 1120
GlyphClass: 2
Flags: W
HStem: 0 21G<173 339> 393 127<328 668.902> 1157 131<328 680.946> 1455 20G<173 339>
VStem: 183 145<0 393 520 1157 1288 1475> 795 152<652.962 1031.34>
LayerCount: 2
Fore
SplineSet
173 0 m 1,0,1
 173 11 173 11 175 55 c 1,2,-1
 183 430 l 1,3,-1
 183 1043 l 1,4,-1
 175 1420 l 1,5,6
 173 1464 173 1464 173 1475 c 1,7,-1
 339 1475 l 1,8,9
 338 1405 338 1405 328 1288 c 1,10,-1
 485 1288 l 2,11,12
 654 1288 654 1288 754 1236.5 c 128,-1,13
 854 1185 854 1185 900.5 1075.5 c 128,-1,14
 947 966 947 966 947 837 c 0,15,16
 947 538 947 538 710 434 c 0,17,18
 653 409 653 409 595 401 c 128,-1,19
 537 393 537 393 417 393 c 2,20,-1
 328 393 l 1,21,22
 336 155 336 155 339 0 c 1,23,-1
 173 0 l 1,0,1
328 520 m 1,24,-1
 446 520 l 2,25,26
 594 520 594 520 657 557 c 0,27,28
 795 640 795 640 795 837 c 0,29,30
 794 942 794 942 756 1022 c 0,31,32
 700 1136 700 1136 582 1152 c 0,33,34
 546 1156 546 1156 452 1157 c 1,35,-1
 328 1157 l 1,36,-1
 328 520 l 1,24,-1
EndSplineSet
EndChar

StartChar: germandbls
Encoding: 158 223 158
Width: 1120
GlyphClass: 2
Flags: W
HStem: -27 139<454.52 706.012> 0 21G<187 354> 726 118<423 588.551> 1364 139<396.422 639.07>
VStem: 197 145<0 1308.12> 724 152<972.148 1275.42> 781 152<198.033 584.167>
LayerCount: 2
Fore
SplineSet
187 0 m 1,0,1
 187 11 187 11 189 55 c 1,2,-1
 197 432 l 1,3,-1
 197 1090 l 2,4,5
 197 1213 197 1213 219.5 1292.5 c 128,-1,6
 242 1372 242 1372 334.5 1437.5 c 128,-1,7
 427 1503 427 1503 531 1503 c 0,8,9
 672 1503 672 1503 774 1396 c 256,10,11
 876 1289 876 1289 876 1128 c 0,12,13
 876 918 876 918 698 799 c 1,14,15
 933 695 933 695 933 393 c 0,16,17
 933 165 933 165 804 49 c 0,18,19
 720 -27 720 -27 613.5 -27 c 128,-1,20
 507 -27 507 -27 428 26 c 0,21,22
 414 35 414 35 399 45 c 1,23,-1
 466 156 l 1,24,25
 547 112 547 112 614 112 c 128,-1,26
 681 112 681 112 731 188 c 128,-1,27
 781 264 781 264 781 382 c 0,28,29
 781 710 781 710 468 724 c 2,30,-1
 423 726 l 1,31,-1
 423 844 l 1,32,33
 598 856 598 856 674 963 c 0,34,35
 724 1034 724 1034 724 1112 c 0,36,37
 724 1265 724 1265 624 1331 c 0,38,39
 574 1364 574 1364 512 1364 c 0,40,41
 408 1364 408 1364 366 1276 c 0,42,43
 350 1242 350 1242 346 1211 c 128,-1,44
 342 1180 342 1180 342 1090 c 2,45,-1
 342 432 l 2,46,47
 342 378 342 378 352 40 c 1,48,-1
 354 0 l 1,49,-1
 187 0 l 1,0,1
EndSplineSet
EndChar

StartChar: ae
Encoding: 165 230 165
Width: 1120
GlyphClass: 2
Flags: W
HStem: -27 139<272.579 438.092 626.865 860.186> 508 131<604 890> 586 139<279.52 456.084> 981 140<257.539 436.504 622.391 798.982>
VStem: 76 152<163.718 532.151> 458 146<153.657 508 703 947.989>
LayerCount: 2
Fore
SplineSet
128 1006 m 1,0,1
 286.125 1121 286.125 1121 380 1121 c 0,2,3
 428 1121 428 1121 458 1106 c 128,-1,4
 488 1091 488 1091 528 1051 c 1,5,6
 603 1121 603 1121 701 1121 c 0,7,8
 898 1121 898 1121 982 898 c 0,9,10
 1028 775 1028 775 1028 535 c 2,11,-1
 1028 508 l 1,12,-1
 604 508 l 1,13,-1
 604 256 l 2,14,15
 604 183 604 183 629 147.5 c 128,-1,16
 654 112 654 112 724 112 c 128,-1,17
 794 112 794 112 988 226 c 1,18,-1
 1044 100 l 1,19,20
 912 23 912 23 845 -2 c 128,-1,21
 778 -27 778 -27 704 -27 c 0,22,23
 586 -27 586 -27 528 44 c 1,24,-1
 522 51 l 1,25,26
 448 -1 448 -1 446 -2 c 0,27,28
 402 -27 402 -27 338 -27 c 0,29,30
 215 -27 215 -27 145.5 72.5 c 128,-1,31
 76 172 76 172 76 346.5 c 128,-1,32
 76 521 76 521 156.5 623 c 128,-1,33
 237 725 237 725 350 725 c 0,34,35
 382 725 382 725 458 703 c 1,36,-1
 458 838 l 2,37,38
 458 917 458 917 433 949 c 128,-1,39
 408 981 408 981 371 981 c 128,-1,40
 334 981 334 981 294 959.5 c 128,-1,41
 254 938 254 938 164 869 c 1,42,-1
 128 1006 l 1,0,1
228 338 m 0,43,44
 228 224 228 224 264 168 c 128,-1,45
 300 112 300 112 356 112 c 128,-1,46
 412 112 412 112 438 153 c 0,47,48
 451 174 451 174 454.5 199 c 128,-1,49
 458 224 458 224 458 297 c 2,50,-1
 458 557 l 1,51,52
 411 586 411 586 368.5 586 c 128,-1,53
 326 586 326 586 298 561 c 0,54,55
 228 500 228 500 228 338 c 0,43,44
604 639 m 1,56,-1
 890 639 l 1,57,58
 880 753 880 753 864 813.5 c 128,-1,59
 848 874 848 874 818 915 c 0,60,61
 768 982 768 982 700 982 c 0,62,63
 604 982 604 982 604 844 c 2,64,-1
 604 639 l 1,56,-1
EndSplineSet
EndChar

StartChar: eth
Encoding: 175 240 175
Width: 1120
GlyphClass: 2
Flags: W
HStem: -27 139<408.368 713.902> 982 140<405.833 645.234> 1450 111<199.151 248.521>
VStem: 125 152<279.606 817.747> 843 152<276.694 819.163>
DStem2: 210 1262 296 1152 0.806879 0.590717<4.41268 172.842 386.059 536.636>
LayerCount: 2
Fore
SplineSet
125 547 m 0,0,1
 125 930 125 930 356 1067 c 0,2,3
 450 1122 450 1122 548 1122 c 0,4,5
 582 1122 582 1122 647 1113 c 1,6,7
 561 1218 561 1218 479 1281 c 1,8,-1
 296 1152 l 1,9,-1
 210 1262 l 1,10,-1
 351 1362 l 1,11,12
 280 1397 280 1397 126 1450 c 1,13,-1
 210 1561 l 1,14,15
 338 1535 338 1535 479 1457 c 1,16,-1
 643 1579 l 1,17,-1
 728 1464 l 1,18,-1
 605 1376 l 1,19,-1
 634 1351 l 2,20,21
 724 1274 724 1274 807 1156 c 128,-1,22
 890 1038 890 1038 931 927 c 0,23,24
 995 753 995 753 995 525.5 c 128,-1,25
 995 298 995 298 896 149 c 0,26,27
 846 73 846 73 759 23 c 128,-1,28
 672 -27 672 -27 560 -27 c 0,29,30
 408 -27 408 -27 296 68 c 0,31,32
 125 213 125 213 125 547 c 0,0,1
277 547 m 256,33,34
 277 353 277 353 342.5 232.5 c 128,-1,35
 408 112 408 112 560.5 112 c 128,-1,36
 713 112 713 112 778 232.5 c 128,-1,37
 843 353 843 353 843 544 c 0,38,39
 843 982 843 982 555 982 c 0,40,41
 407 982 407 982 342 861.5 c 128,-1,42
 277 741 277 741 277 547 c 256,33,34
EndSplineSet
EndChar

StartChar: divide
Encoding: 182 247 182
Width: 1120
GlyphClass: 2
Flags: W
HStem: 238 242<476.098 644.872> 664 143<60 1060> 997 242<476.098 644.872>
VStem: 440 242<274.613 443.387 1033.61 1202.39>
LayerCount: 2
Fore
SplineSet
60 664 m 1,0,-1
 60 807 l 1,1,-1
 1060 807 l 1,2,-1
 1060 664 l 1,3,-1
 60 664 l 1,0,-1
440 359 m 256,4,5
 440 410 440 410 475 445 c 128,-1,6
 510 480 510 480 561 480 c 128,-1,7
 612 480 612 480 647 444.5 c 128,-1,8
 682 409 682 409 682 359 c 256,9,10
 682 309 682 309 646 273.5 c 128,-1,11
 610 238 610 238 560 238 c 256,12,13
 510 238 510 238 475 273 c 128,-1,14
 440 308 440 308 440 359 c 256,4,5
440 1118.5 m 128,-1,16
 440 1169 440 1169 475 1204 c 128,-1,17
 510 1239 510 1239 561 1239 c 128,-1,18
 612 1239 612 1239 647 1203.5 c 128,-1,19
 682 1168 682 1168 682 1118 c 256,20,21
 682 1068 682 1068 646 1032.5 c 128,-1,22
 610 997 610 997 560 997 c 256,23,24
 510 997 510 997 475 1032.5 c 128,-1,15
 440 1068 440 1068 440 1118.5 c 128,-1,16
EndSplineSet
EndChar

StartChar: oslash
Encoding: 183 248 183
Width: 1120
GlyphClass: 2
Flags: W
HStem: -27 139<410.55 710.656> 982 139<410.952 711.92>
VStem: 124 152<310.528 820.372> 842 152<280.939 805.427>
DStem2: 124 44 224 -35 0.569554 0.821954<0 118.512 320.655 1015.59 1206.91 1349.84>
LayerCount: 2
Fore
SplineSet
124 44 m 1,0,-1
 210 170 l 1,1,2
 163 250 163 250 143.5 337 c 128,-1,3
 124 424 124 424 124 547 c 0,4,5
 124 936 124 936 356 1068 c 0,6,7
 449 1121 449 1121 572.5 1121 c 128,-1,8
 696 1121 696 1121 810 1037 c 1,9,-1
 898 1161 l 1,10,-1
 996 1082 l 1,11,-1
 898 941 l 1,12,13
 937 878 937 878 965.5 794 c 128,-1,14
 994 710 994 710 994 548 c 0,15,16
 994 157 994 157 760 26 c 0,17,18
 668 -27 668 -27 560 -27 c 0,19,20
 412 -27 412 -27 296 69 c 1,21,-1
 224 -35 l 1,22,-1
 124 44 l 1,0,-1
276 546 m 0,23,24
 276 406 276 406 306 308 c 1,25,-1
 732 923 l 1,26,27
 662 982 662 982 562 982 c 0,28,29
 276 982 276 982 276 546 c 0,23,24
376 185 m 1,30,31
 448 112 448 112 558 112 c 0,32,33
 710 112 710 112 776 232.5 c 128,-1,34
 842 353 842 353 842 530 c 128,-1,35
 842 707 842 707 806 807 c 1,36,-1
 376 185 l 1,30,31
EndSplineSet
EndChar

StartChar: thorn
Encoding: 189 254 189
Width: 1120
GlyphClass: 2
Flags: W
HStem: -426 21G<193.749 361.749> -27 139<404.899 654.906> 982 139<448.448 668.752>
VStem: 203.749 145<-426 39 163.75 873.968 1022 1368.97> 823.749 152.502<301.66 795.079>
LayerCount: 2
Fore
SplineSet
143.749023438 1488 m 1,0,-1
 285.749023438 1505 l 1,1,2
 348.749023438 1316 348.749023438 1316 348.749023438 1134 c 2,3,-1
 348.749023438 1022 l 1,4,5
 415.749023438 1077 415.749023438 1077 461.749023438 1099 c 128,-1,6
 507.749023438 1121 507.749023438 1121 564.749023438 1121 c 128,-1,7
 621.749023438 1121 621.749023438 1121 694.749023438 1086.5 c 0,8,9
 976.250976562 953.461914062 976.250976562 953.461914062 976.250976562 544.946289062 c 0,10,11
 976.250976562 244.46875 976.250976562 244.46875 807.749023438 87 c 0,12,13
 735.749023438 20 735.749023438 20 664.749023438 -3.5 c 128,-1,14
 593.749023438 -27 593.749023438 -27 563.749023438 -27 c 0,15,16
 462.749023438 -27 462.749023438 -27 348.749023438 39 c 1,17,-1
 348.749023438 6 l 1,18,19
 349.749023438 -15 349.749023438 -15 359.749023438 -370 c 1,20,-1
 361.749023438 -426 l 1,21,-1
 193.749023438 -426 l 1,22,-1
 195.749023438 -370 l 1,23,24
 203.749023438 -13 203.749023438 -13 203.749023438 6 c 2,25,-1
 203.749023438 885 l 2,26,27
 203.749023438 1155 203.749023438 1155 194.749023438 1244 c 128,-1,28
 185.749023438 1333 185.749023438 1333 143.749023438 1488 c 1,0,-1
348.749023438 204 m 1,29,30
 437.749023438 112 437.749023438 112 531.749023438 112 c 0,31,32
 569.749023438 112 569.749023438 112 623.749023438 138 c 0,33,34
 823.749023438 235 823.749023438 235 823.749023438 545.5 c 128,-1,35
 823.749023438 856 823.749023438 856 639.749023438 956 c 0,36,37
 591.749023438 982 591.749023438 982 557.749023438 982 c 0,38,39
 443.749023438 982 443.749023438 982 348.749023438 805 c 1,40,-1
 348.749023438 204 l 1,29,30
EndSplineSet
EndChar

StartChar: dcaron
Encoding: 202 271 202
Width: 1120
GlyphClass: 2
Flags: W
HStem: -27 139<296.322 516.365> 982 139<308.724 559.312> 1481 20G<607 774>
VStem: 46 152<251.126 830.782> 618 145<219.617 928.071 1055 1501>
LayerCount: 2
Fore
SplineSet
46 545 m 128,-1,1
 46 841 46 841 174 1007 c 0,2,3
 263 1121 263 1121 385 1121 c 256,4,5
 503 1121 503 1121 618 1055 c 1,6,-1
 618 1089 l 1,7,-1
 609 1447 l 1,8,-1
 607 1501 l 1,9,-1
 774 1501 l 1,10,11
 773 1468 773 1468 767 1257 c 2,12,-1
 763 1089 l 1,13,-1
 763 591 l 2,14,15
 763 322 763 322 772.5 228.5 c 128,-1,16
 782 135 782 135 825 -12 c 1,17,-1
 680 -29 l 1,18,19
 658 45 658 45 646 102 c 1,20,21
 597 40 597 40 527 6.5 c 128,-1,22
 457 -27 457 -27 384 -27 c 0,23,24
 257 -27 257 -27 162 98 c 0,25,0
 46 249 46 249 46 545 c 128,-1,1
198 567 m 128,-1,27
 198 323 198 323 265 201 c 0,28,29
 313 112 313 112 387 112 c 128,-1,30
 461 112 461 112 515 154.5 c 128,-1,31
 569 197 569 197 618 290 c 1,32,-1
 618 890 l 1,33,34
 525 982 525 982 416 982 c 0,35,36
 347 982 347 982 298 926 c 0,37,26
 198 811 198 811 198 567 c 128,-1,27
795 1205 m 1,38,-1
 924 1533 l 1,39,-1
 1074 1476 l 1,40,-1
 909 1148 l 1,41,-1
 795 1205 l 1,38,-1
EndSplineSet
EndChar

StartChar: dcroat
Encoding: 203 273 203
Width: 1120
GlyphClass: 2
Flags: W
HStem: -27 139<387.158 658.825> 982 139<401.365 701.551> 1223 131<475.751 753.751 911.751 1037.75> 1481 20G<749.751 915.751>
VStem: 82.249 151.502<296.705 787.561> 759.751 145<216.604 928.071 1055 1223 1354 1501>
LayerCount: 2
Fore
SplineSet
235.750976562 96 m 0,0,1
 82.2490234375 248.498046875 82.2490234375 248.498046875 82.2490234375 546.989257812 c 128,-1,2
 82.2490234375 845.48046875 82.2490234375 845.48046875 249.750976562 1007 c 0,3,4
 369.750976562 1121 369.750976562 1121 527.750976562 1121 c 0,5,6
 645.750976562 1121 645.750976562 1121 759.750976562 1055 c 1,7,-1
 759.750976562 1089 l 1,8,-1
 757.750976562 1223 l 1,9,-1
 475.750976562 1223 l 1,10,-1
 475.750976562 1354 l 1,11,-1
 753.750976562 1354 l 1,12,13
 751.750976562 1435 751.750976562 1435 749.750976562 1475 c 1,14,-1
 749.750976562 1501 l 1,15,-1
 915.750976562 1501 l 1,16,17
 915.750976562 1467 915.750976562 1467 913.750976562 1401 c 2,18,-1
 911.750976562 1354 l 1,19,-1
 1037.75097656 1354 l 1,20,-1
 1037.75097656 1223 l 1,21,-1
 904.750976562 1223 l 1,22,-1
 904.750976562 591 l 2,23,24
 904.750976562 322 904.750976562 322 914.250976562 228.5 c 128,-1,25
 923.750976562 135 923.750976562 135 967.750976562 -12 c 1,26,-1
 821.750976562 -29 l 1,27,28
 799.750976562 45 799.750976562 45 787.750976562 102 c 1,29,30
 684.750976562 -27 684.750976562 -27 522.250976562 -27 c 128,-1,31
 359.750976562 -27 359.750976562 -27 235.750976562 96 c 0,0,1
233.750976562 539 m 0,32,33
 233.750976562 319 233.750976562 319 337.750976562 201 c 0,34,35
 415.750976562 112 415.750976562 112 525.750976562 112 c 0,36,37
 600.750976562 112 600.750976562 112 655.250976562 152.5 c 128,-1,38
 709.750976562 193 709.750976562 193 759.750976562 290 c 1,39,-1
 759.750976562 890 l 1,40,41
 666.750976562 982 666.750976562 982 563.250976562 982 c 128,-1,42
 459.750976562 982 459.750976562 982 387.750976562 928 c 0,43,44
 233.750976562 814 233.750976562 814 233.750976562 539 c 0,32,33
EndSplineSet
EndChar

StartChar: uni0122
Encoding: 214 290 214
Width: 1120
GlyphClass: 2
Flags: W
HStem: -27 139<419.771 719.759> 0 21G<868 1014> 604 131<520 868> 1094 21G<794 954> 1364 139<431.71 712.951>
VStem: 106 152<331.17 1130> 794 160<1094 1280.99> 868 146<0 122 284.051 604>
LayerCount: 2
Fore
SplineSet
106 728 m 128,-1,1
 106 1016 106 1016 160 1177 c 0,2,3
 270 1503 270 1503 576 1503 c 0,4,5
 742 1503 742 1503 839 1395 c 128,-1,6
 936 1287 936 1287 948 1139 c 0,7,8
 951 1113 951 1113 954 1094 c 1,9,-1
 794 1094 l 1,10,11
 794 1164 794 1164 789 1190 c 0,12,13
 775 1272 775 1272 715.5 1318 c 128,-1,14
 656 1364 656 1364 564 1364 c 128,-1,15
 472 1364 472 1364 397 1293.5 c 128,-1,16
 322 1223 322 1223 290 1085.5 c 128,-1,17
 258 948 258 948 258 718 c 0,18,19
 258 360 258 360 352 225 c 0,20,21
 432 112 432 112 566 112 c 0,22,23
 738 112 738 112 820 277 c 0,24,25
 848 333 848 333 858 402 c 128,-1,26
 868 471 868 471 868 604 c 1,27,-1
 520 604 l 1,28,-1
 520 735 l 1,29,-1
 1014 735 l 1,30,-1
 1014 0 l 1,31,-1
 868 0 l 1,32,-1
 868 122 l 1,33,34
 810.82421875 47.671875 810.82421875 47.671875 725.412109375 10.3359375 c 128,-1,35
 640 -27 640 -27 552 -27 c 0,36,37
 406 -27 406 -27 300 58.5 c 128,-1,38
 194 144 194 144 150 292 c 128,-1,0
 106 440 106 440 106 728 c 128,-1,1
392 -406 m 1,39,-1
 520 -78 l 1,40,-1
 694 -135 l 1,41,-1
 530 -463 l 1,42,-1
 392 -406 l 1,39,-1
EndSplineSet
EndChar

StartChar: uni0123
Encoding: 215 291 215
Width: 1120
GlyphClass: 2
Flags: W
HStem: -334 139<394.213 695.313> 93 139<407.89 698.21> 982 139<408.049 703.711> 1074 20G<838.5 990.5>
VStem: 129.5 151.495<383.241 827.819> 803.5 146<-71.9382 190 322.441 897.496> 845.5 145<1021.85 1094>
LayerCount: 2
Fore
SplineSet
129.5 594 m 0,0,1
 129.5 716 129.5 716 163.5 824 c 0,2,3
 259.5 1120 259.5 1120 549.5 1121 c 0,4,5
 687.5 1121 687.5 1121 823.5 1021 c 1,6,7
 831.5 1048 831.5 1048 845.5 1094 c 1,8,-1
 990.5 1094 l 1,9,10
 949.5 909 949.5 909 949.5 802 c 2,11,-1
 949.5 112 l 2,12,13
 949.5 -175 949.5 -175 727.5 -289 c 0,14,15
 640.5 -334 640.5 -334 553.5 -334 c 0,16,17
 373.5 -334 373.5 -334 233.5 -202 c 0,18,19
 227.5 -196 227.5 -196 193.5 -164 c 1,20,-1
 301.5 -70 l 1,21,22
 407.5 -195 407.5 -195 557.5 -195 c 0,23,24
 666.5 -195 666.5 -195 735 -112 c 128,-1,25
 803.5 -29 803.5 -29 803.5 127 c 2,26,-1
 803.5 190 l 1,27,28
 677.5 93 677.5 93 511.5 93 c 0,29,30
 399.5 93 399.5 93 309.5 164 c 0,31,32
 129.5 305 129.5 305 129.5 594 c 0,0,1
335.5 853 m 0,33,34
 280.995117188 741.017578125 280.995117188 741.017578125 280.995117188 589.870117188 c 128,-1,35
 280.995117188 438.721679688 280.995117188 438.721679688 353.248046875 335.361328125 c 128,-1,36
 425.5 232 425.5 232 537.5 232 c 0,37,38
 691.5 232 691.5 232 803.5 369 c 1,39,-1
 803.5 854 l 1,40,41
 691.5 982 691.5 982 547.5 982 c 0,42,43
 443.5 982 443.5 982 375.5 909 c 0,44,45
 349.5 882 349.5 882 335.5 853 c 0,33,34
433.5 1267 m 1,46,-1
 599.5 1595 l 1,47,-1
 737.5 1538 l 1,48,-1
 607.5 1210 l 1,49,-1
 433.5 1267 l 1,46,-1
EndSplineSet
EndChar

StartChar: dotlessi
Encoding: 223 305 223
Width: 1120
GlyphClass: 2
Flags: W
HStem: 0 21G<627.463 792> 963 131<328 628>
VStem: 638 149<0 963>
LayerCount: 2
Fore
SplineSet
328 963 m 1,0,-1
 328 1094 l 1,1,-1
 792 1094 l 1,2,-1
 787 849 l 1,3,-1
 782 665 l 1,4,-1
 782 429 l 1,5,-1
 787 245 l 1,6,-1
 792 0 l 1,7,-1
 628 0 l 1,8,9
 626.92578125 15.037109375 626.92578125 15.037109375 630 55 c 1,10,-1
 638 429 l 1,11,-1
 638 665 l 1,12,13
 630 884 630 884 628 963 c 1,14,-1
 328 963 l 1,0,-1
EndSplineSet
EndChar

StartChar: IJ
Encoding: 224 306 224
Width: 1120
GlyphClass: 2
Flags: W
HStem: -27 139<619.203 812.647> 0 131<80 199 355 463> 1344 131<80 199 355 478 666 880>
VStem: 80 398<0 107 1344 1475> 205 145<131 1344> 417 145<171.974 635> 886 146<198.145 1344>
LayerCount: 2
Fore
SplineSet
80 0 m 1,0,-1
 80 131 l 1,1,-1
 199 131 l 1,2,-1
 205 429 l 1,3,-1
 205 1046 l 1,4,-1
 199 1344 l 1,5,-1
 80 1344 l 1,6,-1
 80 1475 l 1,7,-1
 478 1475 l 1,8,-1
 478 1344 l 1,9,-1
 355 1344 l 1,10,-1
 350 1046 l 1,11,-1
 350 429 l 1,12,-1
 355 131 l 1,13,-1
 463 131 l 1,14,15
 417 228 417 228 417 363 c 2,16,-1
 417 433 l 2,17,18
 417 490 417 490 405 635 c 1,19,-1
 572 635 l 1,20,-1
 571 607 l 1,21,22
 562 460 562 460 562 433 c 2,23,-1
 562 357 l 2,24,25
 562 261 562 261 589 202 c 0,26,27
 631 112 631 112 716 112 c 0,28,29
 806.40625 112 806.40625 112 858.5 228.5 c 0,30,31
 886 290 886 290 886 503 c 2,32,-1
 886 1046 l 1,33,-1
 880 1344 l 1,34,-1
 666 1344 l 1,35,-1
 666 1475 l 1,36,-1
 1040 1475 l 1,37,-1
 1038 1419 l 1,38,-1
 1032 1046 l 1,39,-1
 1032 503 l 2,40,41
 1032 356 1032 356 1022 286 c 0,42,43
 999 118 999 118 895 34 c 0,44,45
 817 -27 817 -27 713 -27 c 0,46,47
 561 -27 561 -27 478 107 c 1,48,-1
 478 0 l 1,49,-1
 80 0 l 1,0,-1
EndSplineSet
EndChar

StartChar: ij
Encoding: 225 307 225
Width: 1120
GlyphClass: 2
Flags: W
HStem: -334 139<575.913 769.685> 963 131<91 226 631 824> 1245 262<207.222 389.808 807.222 989.293>
VStem: 167 262<1284.71 1467.29> 233 145<109 963> 767 262<1284.71 1467.29> 830 146<-130.303 963>
LayerCount: 2
Fore
SplineSet
91 963 m 1,0,-1
 91 1094 l 1,1,-1
 385 1094 l 1,2,3
 385 1069 385 1069 384 1038 c 2,4,-1
 378 664 l 1,5,-1
 378 430 l 2,6,7
 378 410 378 410 384 178 c 1,8,-1
 385 109 l 1,9,-1
 520 109 l 1,10,-1
 520 27 l 2,11,12
 520 -70 520 -70 562.5 -132.5 c 128,-1,13
 605 -195 605 -195 660 -195 c 0,14,15
 767 -195 767 -195 807 -89 c 0,16,17
 823 -44 823 -44 826 10.5 c 128,-1,18
 829 65 829 65 830 345 c 1,19,-1
 830 664 l 1,20,-1
 824 963 l 1,21,-1
 631 963 l 1,22,-1
 631 1094 l 1,23,-1
 985 1094 l 1,24,25
 984 1051 984 1051 980 848 c 2,26,-1
 976 664 l 1,27,-1
 976 345 l 1,28,29
 975 50 975 50 974 12 c 0,30,31
 967 -147 967 -147 881.5 -240.5 c 128,-1,32
 796 -334 796 -334 672 -334 c 128,-1,33
 548 -334 548 -334 471 -245.5 c 128,-1,34
 394 -157 394 -157 378 0 c 1,35,-1
 226 0 l 1,36,37
 226 15 226 15 227 56 c 2,38,-1
 233 430 l 1,39,-1
 233 664 l 1,40,-1
 226 963 l 1,41,-1
 91 963 l 1,0,-1
167 1376.5 m 128,-1,43
 167 1431 167 1431 206 1469 c 128,-1,44
 245 1507 245 1507 299 1507 c 128,-1,45
 353 1507 353 1507 391 1468.5 c 128,-1,46
 429 1430 429 1430 429 1376 c 256,47,48
 429 1322 429 1322 391 1283.5 c 128,-1,49
 353 1245 353 1245 298 1245 c 256,50,51
 243 1245 243 1245 205 1283.5 c 128,-1,42
 167 1322 167 1322 167 1376.5 c 128,-1,43
767 1376.5 m 128,-1,53
 767 1431 767 1431 806 1469 c 128,-1,54
 845 1507 845 1507 899 1507 c 128,-1,55
 953 1507 953 1507 991 1468.5 c 128,-1,56
 1029 1430 1029 1430 1029 1376 c 256,57,58
 1029 1322 1029 1322 990.5 1283.5 c 128,-1,59
 952 1245 952 1245 897.5 1245 c 128,-1,60
 843 1245 843 1245 805 1283.5 c 128,-1,52
 767 1322 767 1322 767 1376.5 c 128,-1,53
EndSplineSet
EndChar

StartChar: uni0136
Encoding: 226 310 226
Width: 1120
GlyphClass: 2
Flags: W
HStem: 0 21G<94 260 807.815 1026> 1455 20G<94 260 736 800.442>
VStem: 100 149<0 692 826 1475> 824 202<0 202>
DStem2: 400 743 264 692 0.644326 -0.764751<0 841.404>
LayerCount: 2
Fore
SplineSet
94 0 m 1,0,1
 94 56 l 1,2,-1
 100 246 l 1,3,-1
 104 430 l 1,4,-1
 104 1045 l 1,5,-1
 100 1230 l 1,6,-1
 94 1419 l 1,7,8
 94 1475 l 1,9,-1
 260 1475 l 1,10,-1
 258 1419 l 1,11,-1
 249 1045 l 1,12,-1
 249 826 l 1,13,-1
 268 829 l 2,14,15
 338 840 338 840 438 948 c 128,-1,16
 538 1056 538 1056 624 1205.5 c 128,-1,17
 710 1355 710 1355 762 1491 c 1,18,-1
 910 1414 l 1,19,20
 879 1355 879 1355 762.5 1167 c 128,-1,21
 646 979 646 979 576 898 c 128,-1,22
 506 817 506 817 400 743 c 1,23,-1
 1026 0 l 1,24,-1
 824 0 l 1,25,-1
 264 692 l 1,26,-1
 249 692 l 1,27,-1
 249 430 l 1,28,-1
 258 56 l 1,29,-1
 260 0 l 1,30,-1
 94 0 l 1,0,1
358 -406 m 1,31,-1
 486 -78 l 1,32,-1
 662 -135 l 1,33,-1
 496 -463 l 1,34,-1
 358 -406 l 1,31,-1
EndSplineSet
EndChar

StartChar: uni0137
Encoding: 227 311 227
Width: 1120
GlyphClass: 2
Flags: W
HStem: 0 21G<132.5 298.5 771.787 987.5> 1074 20G<644.5 902.5> 1481 20G<132.5 298.5>
VStem: 142.5 144.909<0 434 614 1501> 788.5 199<0 199>
LayerCount: 2
Fore
SplineSet
132.5 0 m 1,0,1
 132.5 21 132.5 21 134.5 56 c 1,2,-1
 142.5 430 l 1,3,-1
 142.5 1071 l 1,4,-1
 134.5 1446 l 1,5,6
 132.5 1479 132.5 1479 132.5 1501 c 1,7,-1
 298.5 1501 l 1,8,-1
 296.5 1445 l 1,9,10
 287.5 1089 287.5 1089 287.5 1071 c 2,11,-1
 287.5 614 l 1,12,13
 578.5 897 578.5 897 710.5 1094 c 1,14,-1
 902.5 1094 l 1,15,16
 744.5 897 744.5 897 671.5 814.5 c 128,-1,17
 598.5 732 598.5 732 460.5 594 c 1,18,-1
 987.5 0 l 1,19,-1
 788.5 0 l 1,20,-1
 366.5 505 l 1,21,-1
 287.5 434 l 1,22,-1
 287.5 430 l 2,23,24
 287.409179688 428.272460938 287.409179688 428.272460938 287.409179688 403.5 c 128,-1,25
 287.409179688 378.727539062 287.409179688 378.727539062 296.5 56 c 1,26,-1
 298.5 0 l 1,27,-1
 132.5 0 l 1,0,1
334.5 -406 m 1,28,-1
 462.5 -78 l 1,29,-1
 636.5 -135 l 1,30,-1
 472.5 -463 l 1,31,-1
 334.5 -406 l 1,28,-1
EndSplineSet
EndChar

StartChar: kgreenlandic
Encoding: 228 312 228
Width: 1120
GlyphClass: 2
Flags: W
HStem: 0 21G<132 298 772.202 988> 1074 20G<132 298 647.5 902>
VStem: 141 146<0 435 615 1094> 789 199<0 199>
LayerCount: 2
Fore
SplineSet
132 0 m 1,0,-1
 133 28 l 1,1,-1
 133 56 l 1,2,-1
 141 431 l 1,3,-1
 141 664 l 2,4,5
 141 682 141 682 139.5 731 c 128,-1,6
 138 780 138 780 137 864.5 c 128,-1,7
 136 949 136 949 133 1067 c 1,8,-1
 132 1094 l 1,9,-1
 298 1094 l 1,10,-1
 297 1066 l 2,11,12
 293 940 293 940 289 755 c 2,13,-1
 287 664 l 1,14,-1
 287 615 l 1,15,16
 586 908 586 908 709 1094 c 1,17,-1
 902 1094 l 1,18,19
 725 877 725 877 658 801.5 c 128,-1,20
 591 726 591 726 459 595 c 1,21,-1
 988 0 l 1,22,-1
 789 0 l 1,23,-1
 364 506 l 1,24,-1
 287 435 l 1,25,-1
 287 431 l 2,26,27
 287 304 287 304 298 0 c 1,28,-1
 132 0 l 1,0,-1
EndSplineSet
EndChar

StartChar: uni013B
Encoding: 231 315 231
Width: 1120
GlyphClass: 2
Flags: W
HStem: 0 131<328 956> 1455 20G<164 328>
VStem: 174 145<131 1475>
LayerCount: 2
Fore
SplineSet
164 0 m 1,0,1
 164 11 164 11 166 56 c 1,2,-1
 174 428 l 1,3,-1
 174 1045 l 1,4,-1
 166 1420 l 1,5,6
 164 1464 164 1464 164 1475 c 1,7,-1
 328 1475 l 1,8,9
 328 1456 328 1456 326 1420 c 1,10,-1
 319 1045 l 1,11,-1
 319 428 l 1,12,-1
 328 131 l 1,13,-1
 956 131 l 1,14,-1
 956 0 l 1,15,-1
 164 0 l 1,0,1
376 -406 m 1,16,-1
 504 -78 l 1,17,-1
 678 -135 l 1,18,-1
 514 -463 l 1,19,-1
 376 -406 l 1,16,-1
EndSplineSet
EndChar

StartChar: uni013C
Encoding: 232 316 232
Width: 1120
GlyphClass: 2
Flags: W
HStem: 0 21G<589.463 754> 1370 131<290 590>
VStem: 600 145<0 1370>
LayerCount: 2
Fore
SplineSet
290 1370 m 1,0,-1
 290 1501 l 1,1,-1
 754 1501 l 1,2,-1
 748 1256 l 1,3,-1
 745 1071 l 1,4,-1
 745 429 l 1,5,-1
 754 0 l 1,6,-1
 590 0 l 1,7,8
 588.92578125 15.037109375 588.92578125 15.037109375 592 55 c 1,9,-1
 600 429 l 1,10,-1
 600 1071 l 1,11,12
 592 1291 592 1291 590 1370 c 1,13,-1
 290 1370 l 1,0,-1
528 -406 m 1,14,-1
 656 -78 l 1,15,-1
 830 -135 l 1,16,-1
 666 -463 l 1,17,-1
 528 -406 l 1,14,-1
EndSplineSet
EndChar

StartChar: Lcaron
Encoding: 233 317 233
Width: 1120
GlyphClass: 2
Flags: W
HStem: 0 131<328 956> 1455 20G<164 328>
VStem: 174 145<131 1475>
LayerCount: 2
Fore
SplineSet
164 0 m 1,0,1
 164 11 164 11 166 56 c 1,2,-1
 174 428 l 1,3,-1
 174 1045 l 1,4,-1
 166 1420 l 1,5,6
 164 1464 164 1464 164 1475 c 1,7,-1
 328 1475 l 1,8,9
 328 1456 328 1456 326 1420 c 1,10,-1
 319 1045 l 1,11,-1
 319 428 l 1,12,-1
 328 131 l 1,13,-1
 956 131 l 1,14,-1
 956 0 l 1,15,-1
 164 0 l 1,0,1
478 1181 m 1,16,-1
 606 1510 l 1,17,-1
 780 1452 l 1,18,-1
 616 1124 l 1,19,-1
 478 1181 l 1,16,-1
EndSplineSet
EndChar

StartChar: lcaron
Encoding: 234 318 234
Width: 1120
GlyphClass: 2
Flags: W
HStem: 0 21G<445.5 610> 1370 131<146 446>
VStem: 455 149<0 1370>
LayerCount: 2
Fore
SplineSet
146 1370 m 1,0,-1
 146 1501 l 1,1,-1
 610 1501 l 1,2,-1
 604 1256 l 1,3,-1
 600 1071 l 1,4,-1
 600 429 l 1,5,-1
 604 245 l 1,6,-1
 610 0 l 1,7,-1
 446 0 l 1,8,9
 445 14 445 14 445 21.5 c 128,-1,10
 445 29 445 29 447 55 c 1,11,-1
 455 429 l 1,12,-1
 455 1071 l 1,13,14
 447 1291 447 1291 446 1370 c 1,15,-1
 146 1370 l 1,0,-1
671 1205 m 1,16,-1
 800 1533 l 1,17,-1
 974 1476 l 1,18,-1
 810 1148 l 1,19,-1
 671 1205 l 1,16,-1
EndSplineSet
EndChar

StartChar: Lslash
Encoding: 237 321 237
Width: 1120
GlyphClass: 2
Flags: W
HStem: 0 131<418 1040> 1455 20G<252 418>
VStem: 264 146<131 697 887 1475>
DStem2: 410 887 410 753 0.931843 0.362861<0 345.087>
LayerCount: 2
Fore
SplineSet
80 595 m 1,0,-1
 80 760 l 1,1,2
 132 777 132 777 202 807 c 1,3,-1
 264 831 l 1,4,-1
 264 1045 l 1,5,-1
 254 1419 l 1,6,-1
 252 1475 l 1,7,-1
 418 1475 l 1,8,9
 409.900390625 1219.40039062 409.900390625 1219.40039062 409.900390625 1139.5 c 128,-1,10
 409.900390625 1059.59960938 409.900390625 1059.59960938 410 1045 c 2,11,-1
 410 887 l 1,12,-1
 514 929 l 2,13,14
 576 954 576 954 780 1061 c 1,15,-1
 780 896 l 1,16,17
 690 866 690 866 602 831 c 2,18,-1
 410 753 l 1,19,-1
 410 429 l 1,20,-1
 418 131 l 1,21,-1
 1040 131 l 1,22,-1
 1040 0 l 1,23,-1
 252 0 l 1,24,25
 252 22 252 22 254 56 c 1,26,-1
 264 429 l 1,27,-1
 264 697 l 1,28,29
 218 673 218 673 80 595 c 1,0,-1
EndSplineSet
EndChar

StartChar: lslash
Encoding: 238 322 238
Width: 1120
GlyphClass: 2
Flags: W
HStem: 0 21G<498 662> 1085 20G<888.094 932> 1370 131<188 498>
VStem: 506 145<0 762 977 1370>
DStem2: 210 779 210 627 0.911401 0.411519<0 262.779 483.409 729.636>
LayerCount: 2
Fore
SplineSet
188 1370 m 1,0,-1
 188 1501 l 1,1,-1
 662 1501 l 1,2,3
 660 1474 660 1474 660 1445 c 2,4,-1
 651 1071 l 1,5,-1
 651 977 l 1,6,-1
 932 1105 l 1,7,-1
 932 953 l 1,8,-1
 651 825 l 1,9,-1
 651 430 l 2,10,11
 650.922851562 419.76953125 650.922851562 419.76953125 650.922851562 346.961914062 c 128,-1,12
 650.922851562 274.154296875 650.922851562 274.154296875 662 0 c 1,13,-1
 498 0 l 1,14,-1
 498 56 l 1,15,-1
 506 430 l 1,16,-1
 506 762 l 1,17,-1
 210 627 l 1,18,-1
 210 779 l 1,19,-1
 506 914 l 1,20,-1
 506 1071 l 1,21,-1
 498 1370 l 1,22,-1
 188 1370 l 1,0,-1
EndSplineSet
EndChar

StartChar: uni0145
Encoding: 241 325 241
Width: 1120
GlyphClass: 2
Flags: W
HStem: 0 21G<166 333 795.923 942> 1455 20G<176 358.051 786 954>
VStem: 176 145<0 1182> 796 146<367 1475>
DStem2: 350 1475 321 1182 0.374463 -0.927242<260.822 1194.39>
LayerCount: 2
Fore
SplineSet
166 0 m 1,0,1
 166 11 166 11 168 55 c 1,2,-1
 176 430 l 1,3,-1
 176 1475 l 1,4,-1
 350 1475 l 1,5,-1
 796 367 l 1,6,-1
 796 1043 l 1,7,-1
 788 1420 l 1,8,9
 786 1457 786 1457 786 1475 c 1,10,-1
 954 1475 l 1,11,-1
 952 1433 l 1,12,-1
 952 1388 l 1,13,-1
 942 1043 l 1,14,-1
 942 -14 l 1,15,-1
 804 -14 l 1,16,-1
 321 1182 l 1,17,-1
 321 430 l 2,18,19
 321 235 321 235 333 0 c 1,20,-1
 166 0 l 1,0,1
378 -406 m 1,21,-1
 506 -78 l 1,22,-1
 681 -135 l 1,23,-1
 516 -463 l 1,24,-1
 378 -406 l 1,21,-1
EndSplineSet
EndChar

StartChar: uni0146
Encoding: 242 326 242
Width: 1120
GlyphClass: 2
Flags: W
HStem: 0 21G<186 354 802 970> 982 139<539.139 755.371> 1074 20G<150 299.5>
VStem: 150 139<955 1094> 196 146<0 755.756> 814 145<0 920.766>
LayerCount: 2
Fore
SplineSet
150 1094 m 1,0,-1
 289 1094 l 1,1,2
 310 1007 310 1007 318 908 c 1,3,-1
 354 957 l 2,4,5
 387 1003 387 1003 475.5 1062 c 128,-1,6
 564 1121 564 1121 677 1121 c 128,-1,7
 790 1121 790 1121 874 1027 c 0,8,9
 921 974 921 974 939.5 900.5 c 128,-1,10
 958 827 958 827 959 696 c 1,11,-1
 959 429 l 1,12,-1
 962 246 l 1,13,14
 968 43 968 43 970 0 c 1,15,-1
 802 0 l 1,16,-1
 814 429 l 1,17,-1
 814 649 l 2,18,19
 814 843 814 843 776 911 c 0,20,21
 758 942 758 942 727 962 c 128,-1,22
 696 982 696 982 664 982 c 0,23,24
 595 982 595 982 520.5 924.5 c 128,-1,25
 446 867 446 867 394 771 c 128,-1,26
 342 675 342 675 342 539 c 2,27,-1
 342 429 l 1,28,-1
 352 56 l 1,29,-1
 354 0 l 1,30,-1
 186 0 l 1,31,-1
 188 56 l 1,32,33
 196 387 196 387 196 429 c 2,34,-1
 196 513 l 1,35,36
 195 753 195 753 187.5 846 c 128,-1,37
 180 939 180 939 150 1094 c 1,0,-1
420 -406 m 1,38,-1
 548 -78 l 1,39,-1
 722 -135 l 1,40,-1
 558 -463 l 1,41,-1
 420 -406 l 1,38,-1
EndSplineSet
EndChar

StartChar: napostrophe
Encoding: 245 329 245
Width: 1120
GlyphClass: 2
Flags: W
HStem: 0 21G<242 408 856 1024> 982 139<592.551 810.044> 1074 20G<206 354>
VStem: 252 145<0 756.817> 868 146<0 920.397>
LayerCount: 2
Fore
SplineSet
96 1205 m 1,0,-1
 224 1533 l 1,1,-1
 398 1476 l 1,2,-1
 234 1148 l 1,3,-1
 96 1205 l 1,0,-1
1014 429 m 1,4,-1
 1024 0 l 1,5,-1
 856 0 l 1,6,-1
 868 429 l 1,7,-1
 868 649 l 2,8,9
 868 843 868 843 830 911 c 0,10,11
 812 942 812 942 781 962 c 128,-1,12
 750 982 750 982 718 982 c 0,13,14
 649 982 649 982 574.5 924.5 c 128,-1,15
 500 867 500 867 448.490234375 771.905273438 c 128,-1,16
 396.981445312 676.811523438 396.981445312 676.811523438 396.981445312 544.118164062 c 0,17,18
 396.981445312 541.56640625 396.981445312 541.56640625 397 539 c 2,19,-1
 397 429 l 1,20,-1
 406 56 l 1,21,-1
 408 0 l 1,22,-1
 242 0 l 1,23,-1
 242 56 l 1,24,25
 252 392 252 392 252 429 c 2,26,-1
 252 597 l 2,27,28
 252 881 252 881 206 1094 c 1,29,-1
 344 1094 l 1,30,31
 364 1010 364 1010 372 908 c 1,32,-1
 408 957 l 2,33,34
 457 1025 457 1025 549.5 1073 c 128,-1,35
 642 1121 642 1121 720 1121 c 0,36,37
 842 1121 842 1121 928 1027 c 0,38,39
 975 974 975 974 994.5 900 c 128,-1,40
 1014 826 1014 826 1014 696 c 2,41,-1
 1014 429 l 1,4,-1
EndSplineSet
EndChar

StartChar: Eng
Encoding: 246 330 246
Width: 1120
GlyphClass: 2
Flags: W
HStem: -493 139<479.045 714.367> 0 21G<166 333> 1455 20G<176 358.051 786 954>
VStem: 176 145<0 1182> 789 153<-274.568 32.9136 367 1475>
DStem2: 350 1475 321 1182 0.374316 -0.927301<260.844 1194.39>
LayerCount: 2
Fore
SplineSet
166 0 m 1,0,1
 166 11 166 11 168 55 c 1,2,-1
 176 430 l 1,3,-1
 176 1475 l 1,4,-1
 350 1475 l 1,5,-1
 796 367 l 1,6,-1
 796 1043 l 1,7,-1
 788 1420 l 1,8,9
 786 1457 786 1457 786 1475 c 1,10,-1
 954 1475 l 1,11,-1
 952 1433 l 1,12,-1
 952 1388 l 1,13,-1
 942 1043 l 1,14,-1
 942 -14 l 2,15,16
 942 -127 942 -127 918.5 -224 c 128,-1,17
 895 -321 895 -321 857 -367.5 c 128,-1,18
 819 -414 819 -414 752.5 -453.5 c 128,-1,19
 686 -493 686 -493 582 -493 c 128,-1,20
 478 -493 478 -493 387 -419 c 0,21,22
 342 -384 342 -384 318.5 -341 c 128,-1,23
 295 -298 295 -298 276 -219 c 1,24,-1
 420 -219 l 1,25,26
 474 -354 474 -354 594 -354 c 0,27,28
 679 -354 679 -354 734 -290 c 128,-1,29
 789 -226 789 -226 789 -69 c 0,30,31
 789 -32 789 -32 784 35 c 1,32,-1
 321 1182 l 1,33,-1
 321 430 l 2,34,35
 321 235 321 235 333 0 c 1,36,-1
 166 0 l 1,0,1
EndSplineSet
EndChar

StartChar: eng
Encoding: 247 331 247
Width: 1120
GlyphClass: 2
Flags: W
HStem: -334 139<409.362 712.687> 0 21G<192 358> 982 139<540.268 766.911> 1074 20G<150 299>
VStem: 202 145<0 752.751> 824 146<-73.7097 920.766>
DStem2: 318 -72 214 -165 0.707107 -0.707107<0 200.487>
LayerCount: 2
Fore
SplineSet
150 1094 m 1,0,-1
 290 1094 l 1,1,2
 308 1035 308 1035 322 908 c 1,3,-1
 358 957 l 2,4,5
 392 1003 392 1003 479 1062 c 128,-1,6
 566 1121 566 1121 683 1121 c 128,-1,7
 800 1121 800 1121 884 1027 c 0,8,9
 931 974 931 974 950.5 900.5 c 128,-1,10
 970 827 970 827 970 696 c 2,11,-1
 970 125 l 2,12,13
 970 23 970 23 951 -45.5 c 128,-1,14
 932 -114 932 -114 881 -180.5 c 128,-1,15
 830 -247 830 -247 745 -290.5 c 128,-1,16
 660 -334 660 -334 571 -334 c 0,17,18
 390 -334 390 -334 252 -203 c 1,19,-1
 214 -165 l 1,20,-1
 318 -72 l 1,21,22
 346 -101 346 -101 350 -105 c 0,23,24
 437.75 -195 437.75 -195 592 -195 c 0,25,26
 668 -195 668 -195 736 -130 c 0,27,28
 824 -49 824 -49 824 125 c 2,29,-1
 824 649 l 2,30,31
 824 843 824 843 785 912.5 c 128,-1,32
 746 982 746 982 672 982 c 0,33,34
 568 982 568 982 470 876 c 0,35,36
 346 739 346 739 347 539 c 1,37,-1
 347 429 l 2,38,39
 346.922851562 421 346.922851562 421 346.922851562 360.5 c 128,-1,40
 346.922851562 300 346.922851562 300 358 0 c 1,41,-1
 192 0 l 1,42,-1
 194 56 l 1,43,44
 202 396 202 396 202 429 c 2,45,-1
 202 597 l 1,46,47
 200 885 200 885 150 1094 c 1,0,-1
EndSplineSet
EndChar

StartChar: OE
Encoding: 252 338 252
Width: 1120
GlyphClass: 2
Flags: W
HStem: -27 139<345.39 570.748> 0 131<718.755 1036.75> 694 131<718.755 933.755> 1344 131<718.755 1020.75> 1363 139<350.049 570.146>
VStem: 83.2451 151.51<268.683 1195.18> 572.755 361<694 825> 572.755 146<131 694 825 1343.96>
LayerCount: 2
Fore
SplineSet
106.5 1114.93261719 m 128,-1,1
 129.754882812 1251 129.754882812 1251 183.754882812 1339 c 0,2,3
 282.754882812 1502 282.754882812 1502 454.754882812 1502 c 0,4,5
 510.754882812 1502 510.754882812 1502 603.754882812 1475 c 1,6,-1
 1020.75488281 1475 l 1,7,-1
 1020.75488281 1344 l 1,8,-1
 718.754882812 1344 l 1,9,-1
 718.754882812 825 l 1,10,-1
 933.754882812 825 l 1,11,-1
 933.754882812 694 l 1,12,-1
 718.754882812 694 l 1,13,-1
 718.754882812 131 l 1,14,-1
 1036.75488281 131 l 1,15,-1
 1036.75488281 0 l 1,16,-1
 603.754882812 0 l 1,17,18
 513.754882812 -27 513.754882812 -27 450.754882812 -27 c 0,19,20
 191.754882812 -27 191.754882812 -27 119.754882812 288 c 0,21,22
 83.2451171875 449.25390625 83.2451171875 449.25390625 83.2451171875 714.059570312 c 128,-1,0
 83.2451171875 978.864257812 83.2451171875 978.864257812 106.5 1114.93261719 c 128,-1,1
234.754882812 724 m 128,-1,24
 234.754882812 356 234.754882812 356 294.754882812 228 c 0,25,26
 349.013671875 112 349.013671875 112 450.754882812 112 c 0,27,28
 501.754882812 112 501.754882812 112 572.754882812 131 c 1,29,-1
 572.754882812 1339 l 1,30,31
 487.754882812 1363 487.754882812 1363 454.754882812 1363 c 0,32,33
 347.754882812 1363 347.754882812 1363 291.254882812 1227.5 c 128,-1,23
 234.754882812 1092 234.754882812 1092 234.754882812 724 c 128,-1,24
EndSplineSet
EndChar

StartChar: oe
Encoding: 253 339 253
Width: 1120
GlyphClass: 2
Flags: W
HStem: -27 139<325.624 474.085 646.222 868.187> 508 131<626 886> 982 139<325.26 478.73 642.655 802.967>
VStem: 80 152<238.234 853.659> 480 146<129.016 508 639 969.837>
DStem2: 962 212 996 73 0.83205 0.5547<-246.416 2.7735>
LayerCount: 2
Fore
SplineSet
80 546 m 0,0,1
 80 876 80 876 217 1022 c 0,2,3
 310 1121 310 1121 412 1121 c 0,4,5
 474 1121 474 1121 563 1063 c 1,6,7
 615 1097 615 1097 649 1109 c 128,-1,8
 683 1121 683 1121 727 1121 c 0,9,10
 843 1121 843 1121 920 1021 c 0,11,12
 1026 883 1026 883 1026 574 c 2,13,-1
 1026 508 l 1,14,-1
 626 508 l 1,15,-1
 626 256 l 2,16,17
 626 112 626 112 726 112 c 0,18,19
 774 112 774 112 822.5 133 c 128,-1,20
 871 154 871 154 962 212 c 1,21,-1
 983 226 l 1,22,-1
 1040 100 l 1,23,24
 1025 91 1025 91 996 73 c 0,25,26
 835 -27 835 -27 715 -27 c 0,27,28
 667 -27 667 -27 632.5 -13 c 128,-1,29
 598 1 598 1 551 43 c 1,30,31
 481 -27 481 -27 402 -27 c 0,32,33
 400.571289062 -27.0283203125 400.571289062 -27.0283203125 399.13671875 -27.0283203125 c 0,34,35
 350.37109375 -27.0283203125 350.37109375 -27.0283203125 295 6 c 0,36,37
 80 132 80 132 80 546 c 0,0,1
232 516.5 m 128,-1,39
 232 282 232 282 309 177 c 0,40,41
 357 112 357 112 398 112 c 128,-1,42
 439 112 439 112 480 163 c 1,43,-1
 480 961 l 1,44,45
 450 982 450 982 419 982 c 0,46,47
 331 982 331 982 281.5 866.5 c 128,-1,38
 232 751 232 751 232 516.5 c 128,-1,39
626 639 m 1,48,-1
 886 639 l 1,49,50
 875 780 875 780 854.5 844 c 128,-1,51
 834 908 834 908 797 945 c 128,-1,52
 760 982 760 982 714 982 c 0,53,54
 626 982 626 982 626 844 c 2,55,-1
 626 639 l 1,48,-1
EndSplineSet
EndChar

StartChar: uni0156
Encoding: 256 342 256
Width: 1120
GlyphClass: 2
Flags: W
HStem: 0 21G<101 267 826.431 1019> 608 131<256 482.404> 1344 131<256 634.782>
VStem: 111 145<0 608 739 1344> 737 152<872.916 1241.58> 838 181<0 181>
DStem2: 627 643 484 612 0.520537 -0.853839<0 658.852>
LayerCount: 2
Fore
SplineSet
101 0 m 1,0,1
 101 21 101 21 102 56 c 2,2,-1
 107 245 l 1,3,-1
 111 428 l 1,4,-1
 111 1041 l 1,5,-1
 107 1228 l 1,6,-1
 102 1419 l 2,7,8
 101 1453 101 1453 101 1475 c 1,9,-1
 451 1475 l 2,10,11
 755.28515625 1475 755.28515625 1475 844.5 1267.5 c 0,12,13
 889 1164 889 1164 889 1055 c 0,14,15
 889 893 889 893 808 779 c 0,16,17
 761 714 761 714 627 643 c 1,18,-1
 1019 0 l 1,19,-1
 838 0 l 1,20,-1
 484 612 l 1,21,22
 433 608 433 608 372 608 c 2,23,-1
 256 608 l 1,24,-1
 256 428 l 1,25,-1
 265 56 l 1,26,-1
 267 0 l 1,27,-1
 101 0 l 1,0,1
256 739 m 1,28,-1
 430 739 l 2,29,30
 545 739 545 739 608 782 c 0,31,32
 737 870 737 870 737 1061 c 128,-1,33
 737 1252 737 1252 613 1312 c 0,34,35
 546 1344 546 1344 380 1344 c 2,36,-1
 256 1344 l 1,37,-1
 256 739 l 1,28,-1
361 -406 m 1,38,-1
 490 -78 l 1,39,-1
 665 -135 l 1,40,-1
 500 -463 l 1,41,-1
 361 -406 l 1,38,-1
EndSplineSet
EndChar

StartChar: uni0157
Encoding: 257 343 257
Width: 1120
GlyphClass: 2
Flags: W
HStem: 0 21G<229 396> 982 139<597.994 793.248> 1074 20G<190 344>
VStem: 240 145<0 691.484> 822 145<754 930.934>
LayerCount: 2
Fore
SplineSet
153 -406 m 1,0,-1
 282 -78 l 1,1,-1
 456 -135 l 1,2,-1
 292 -463 l 1,3,-1
 153 -406 l 1,0,-1
190 1094 m 1,4,-1
 333 1094 l 1,5,6
 355 1000 355 1000 370 871 c 1,7,-1
 385 899 l 2,8,9
 432 985 432 985 522.5 1053 c 128,-1,10
 613 1121 613 1121 720.5 1121 c 128,-1,11
 828 1121 828 1121 893 1042 c 0,12,13
 932 993 932 993 946.5 938 c 128,-1,14
 961 883 961 883 967 754 c 1,15,-1
 822 754 l 1,16,17
 820 883 820 883 796.5 932.5 c 128,-1,18
 773 982 773 982 714 982 c 0,19,20
 622 982 622 982 532.5 874 c 128,-1,21
 443 766 443 766 406 618 c 0,22,23
 385 536 385 536 385 478 c 2,24,-1
 385 431 l 1,25,-1
 390 246 l 1,26,27
 394 38 394 38 396 0 c 1,28,-1
 229 0 l 1,29,-1
 231 56 l 1,30,31
 240 412 240 412 240 431 c 2,32,-1
 240 514 l 2,33,34
 240.01953125 520.76953125 240.01953125 520.76953125 240.01953125 527.4921875 c 0,35,36
 240.01953125 870.384765625 240.01953125 870.384765625 190 1094 c 1,4,-1
EndSplineSet
EndChar

StartChar: uni0162
Encoding: 266 354 266
Width: 1120
GlyphClass: 2
Flags: W
HStem: 0 21G<478 646> 1344 131<68 490 635 1052>
VStem: 490 145<0 1344>
LayerCount: 2
Fore
SplineSet
68 1344 m 1,0,-1
 68 1475 l 1,1,-1
 1052 1475 l 1,2,-1
 1052 1344 l 1,3,-1
 635 1344 l 1,4,-1
 635 429 l 1,5,-1
 644 56 l 1,6,-1
 646 0 l 1,7,-1
 478 0 l 1,8,-1
 490 429 l 1,9,-1
 490 1344 l 1,10,-1
 68 1344 l 1,0,-1
392 -406 m 1,11,-1
 520 -78 l 1,12,-1
 694 -135 l 1,13,-1
 530 -463 l 1,14,-1
 392 -406 l 1,11,-1
EndSplineSet
EndChar

StartChar: uni0163
Encoding: 267 355 267
Width: 1120
GlyphClass: 2
Flags: W
HStem: -27 139<531.692 768.104> 963 131<106 348 494 884>
VStem: 348 146<171.317 963 1094 1434>
LayerCount: 2
Fore
SplineSet
106 963 m 1,0,-1
 106 1094 l 1,1,-1
 348 1094 l 1,2,-1
 338 1434 l 1,3,-1
 506 1434 l 1,4,5
 502 1298 502 1298 494 1094 c 1,6,-1
 884 1094 l 1,7,-1
 884 963 l 1,8,-1
 494 963 l 1,9,-1
 494 366 l 2,10,11
 494 227 494 227 523 169.5 c 128,-1,12
 552 112 552 112 624 112 c 128,-1,13
 696 112 696 112 743 139.5 c 128,-1,14
 790 167 790 167 825 218 c 128,-1,15
 860 269 860 269 872 296 c 1,16,-1
 1014 260 l 1,17,18
 1002 238 1002 238 984 204 c 0,19,20
 860 -27 860 -27 626 -27 c 0,21,22
 484 -27 484 -27 408 75 c 0,23,24
 366 132 366 132 357 215.5 c 128,-1,25
 348 299 348 299 348 366 c 2,26,-1
 348 963 l 1,27,-1
 106 963 l 1,0,-1
428 -406 m 1,28,-1
 556 -78 l 1,29,-1
 730 -135 l 1,30,-1
 566 -463 l 1,31,-1
 428 -406 l 1,28,-1
EndSplineSet
EndChar

StartChar: tcaron
Encoding: 269 357 269
Width: 1120
GlyphClass: 2
Flags: W
HStem: -27 139<531.692 768.104> 963 131<106 348 494 884>
VStem: 348 146<171.317 963 1094 1434>
LayerCount: 2
Fore
SplineSet
106 963 m 1,0,-1
 106 1094 l 1,1,-1
 348 1094 l 1,2,-1
 338 1434 l 1,3,-1
 506 1434 l 1,4,5
 502 1298 502 1298 494 1094 c 1,6,-1
 884 1094 l 1,7,-1
 884 963 l 1,8,-1
 494 963 l 1,9,-1
 494 366 l 2,10,11
 494 227 494 227 523 169.5 c 128,-1,12
 552 112 552 112 624 112 c 128,-1,13
 696 112 696 112 743 139.5 c 128,-1,14
 790 167 790 167 825 218 c 128,-1,15
 860 269 860 269 872 296 c 1,16,-1
 1014 260 l 1,17,18
 1002 238 1002 238 984 204 c 0,19,20
 860 -27 860 -27 626 -27 c 0,21,22
 484 -27 484 -27 408 75 c 0,23,24
 366 132 366 132 357 215.5 c 128,-1,25
 348 299 348 299 348 366 c 2,26,-1
 348 963 l 1,27,-1
 106 963 l 1,0,-1
600 1266 m 1,28,-1
 728 1595 l 1,29,-1
 902 1537 l 1,30,-1
 738 1210 l 1,31,-1
 600 1266 l 1,28,-1
EndSplineSet
EndChar

StartChar: Tbar
Encoding: 270 358 270
Width: 1120
GlyphClass: 2
Flags: W
HStem: 0 21G<478 646> 893 131<148 490 635 972> 1344 131<68 490 635 1052>
VStem: 490 145<0 893 1024 1344>
LayerCount: 2
Fore
SplineSet
68 1344 m 1,0,-1
 68 1475 l 1,1,-1
 1052 1475 l 1,2,-1
 1052 1344 l 1,3,-1
 635 1344 l 1,4,-1
 635 1024 l 1,5,-1
 972 1024 l 1,6,-1
 972 893 l 1,7,-1
 635 893 l 1,8,-1
 635 428 l 1,9,-1
 644 56 l 1,10,-1
 646 0 l 1,11,-1
 478 0 l 1,12,-1
 490 428 l 1,13,-1
 490 893 l 1,14,-1
 148 893 l 1,15,-1
 148 1024 l 1,16,-1
 490 1024 l 1,17,-1
 490 1344 l 1,18,-1
 68 1344 l 1,0,-1
EndSplineSet
EndChar

StartChar: tbar
Encoding: 271 359 271
Width: 1120
GlyphClass: 2
Flags: W
HStem: -27 139<531.023 767.152> 590 131<186 348 494 804> 963 131<106 348 494 884>
VStem: 348 146<170.801 590 721 963 1094 1430>
LayerCount: 2
Fore
SplineSet
106 963 m 1,0,-1
 106 1094 l 1,1,-1
 348 1094 l 1,2,-1
 338 1430 l 1,3,-1
 506 1430 l 1,4,-1
 494 1094 l 1,5,-1
 884 1094 l 1,6,-1
 884 963 l 1,7,-1
 494 963 l 1,8,-1
 494 721 l 1,9,-1
 804 721 l 1,10,-1
 804 590 l 1,11,-1
 494 590 l 1,12,-1
 494 364 l 2,13,14
 494 226 494 226 523 169 c 128,-1,15
 552 112 552 112 624 112 c 0,16,17
 739 112 739 112 796.5 183.5 c 128,-1,18
 854 255 854 255 872 294 c 1,19,-1
 1014 259 l 1,20,21
 1002 239 1002 239 998 229 c 0,22,23
 860 -27 860 -27 632 -27 c 0,24,25
 484 -27 484 -27 408 75 c 0,26,27
 365 132 365 132 356.5 215.5 c 128,-1,28
 348 299 348 299 348 364 c 2,29,-1
 348 590 l 1,30,-1
 186 590 l 1,31,-1
 186 721 l 1,32,-1
 348 721 l 1,33,-1
 348 963 l 1,34,-1
 106 963 l 1,0,-1
EndSplineSet
EndChar

StartChar: florin
Encoding: 289 402 289
Width: 1120
GlyphClass: 2
Flags: W
HStem: -258 141<131 364.365> 895 131<289 519 680 909> 1391 141<756.755 989>
DStem2: 421 118 564 99 0.124035 0.992278<-211.204 783.155 933.113 1272.93>
LayerCount: 2
Fore
SplineSet
131 -117 m 1,0,-1
 233 -117 l 2,1,2
 330 -117 330 -117 366.5 -71 c 128,-1,3
 403 -25 403 -25 421 118 c 2,4,-1
 519 895 l 1,5,-1
 289 895 l 1,6,-1
 289 1026 l 1,7,-1
 535 1026 l 1,8,-1
 553 1174 l 2,9,10
 572 1325 572 1325 613 1394 c 0,11,12
 695 1532 695 1532 895 1532 c 2,13,-1
 989 1532 l 1,14,-1
 989 1391 l 1,15,-1
 883 1391 l 2,16,17
 788 1391 788 1391 751 1344 c 128,-1,18
 714 1297 714 1297 696 1154 c 2,19,-1
 680 1026 l 1,20,-1
 909 1026 l 1,21,-1
 909 895 l 1,22,-1
 664 895 l 1,23,-1
 564 99 l 2,24,25
 545 -51 545 -51 500 -126 c 0,26,27
 422 -258 422 -258 222 -258 c 2,28,-1
 131 -258 l 1,29,-1
 131 -117 l 1,0,-1
EndSplineSet
EndChar

StartChar: circumflex
Encoding: 291 710 290
Width: 1120
GlyphClass: 2
Flags: W
HStem: 1392 190<465 655>
LayerCount: 2
Fore
SplineSet
194 1270 m 1,0,-1
 560 1582 l 1,1,-1
 926 1270 l 1,2,-1
 846 1182 l 1,3,-1
 560 1392 l 1,4,-1
 274 1182 l 1,5,-1
 194 1270 l 1,0,-1
EndSplineSet
EndChar

StartChar: caron
Encoding: 292 711 291
Width: 1120
GlyphClass: 2
Flags: W
HStem: 1182 190<465 655>
LayerCount: 2
Fore
SplineSet
194 1494 m 1,0,-1
 274 1582 l 1,1,-1
 560 1372 l 1,2,-1
 846 1582 l 1,3,-1
 926 1494 l 1,4,-1
 560 1182 l 1,5,-1
 194 1494 l 1,0,-1
EndSplineSet
EndChar

StartChar: uni02C9
Encoding: 293 713 292
Width: 1120
GlyphClass: 2
Flags: W
HStem: 1250 139<216 904>
LayerCount: 2
Fore
SplineSet
216 1250 m 1,0,-1
 216 1389 l 1,1,-1
 904 1389 l 1,2,-1
 904 1250 l 1,3,-1
 216 1250 l 1,0,-1
EndSplineSet
EndChar

StartChar: breve
Encoding: 294 728 293
Width: 1120
GlyphClass: 2
Flags: W
HStem: 1223 139<397.606 721.462>
VStem: 214 138<1407.94 1516> 769 137<1409.06 1516>
LayerCount: 2
Fore
SplineSet
214 1516 m 1,0,-1
 352 1516 l 1,1,2
 360 1449 360 1449 382 1422 c 0,3,4
 430 1362 430 1362 565.5 1362 c 128,-1,5
 701 1362 701 1362 745 1431 c 0,6,7
 761 1457 761 1457 769 1516 c 1,8,-1
 906 1516 l 1,9,10
 887 1223 887 1223 560 1223 c 0,11,12
 320 1223 320 1223 247 1379 c 0,13,14
 220 1436 220 1436 214 1516 c 1,0,-1
EndSplineSet
EndChar

StartChar: dotaccent
Encoding: 295 729 294
Width: 1120
GlyphClass: 2
Flags: W
HStem: 1217 283<461.805 658.687>
VStem: 418.488 283.023<1259.8 1457.71>
LayerCount: 2
Fore
SplineSet
418.48828125 1359 m 128,-1,1
 418.48828125 1418 418.48828125 1418 460.48828125 1459 c 128,-1,2
 502.48828125 1500 502.48828125 1500 561.48828125 1500 c 128,-1,3
 620.48828125 1500 620.48828125 1500 661 1458.99414062 c 128,-1,4
 701.51171875 1417.98828125 701.51171875 1417.98828125 701.51171875 1358.50585938 c 128,-1,5
 701.51171875 1299.0234375 701.51171875 1299.0234375 659.98828125 1258 c 128,-1,6
 618.48828125 1217 618.48828125 1217 560.48828125 1217 c 128,-1,7
 502.48828125 1217 502.48828125 1217 460.48828125 1258.5 c 128,-1,0
 418.48828125 1300 418.48828125 1300 418.48828125 1359 c 128,-1,1
EndSplineSet
EndChar

StartChar: ring
Encoding: 296 730 295
Width: 1120
GlyphClass: 2
Flags: W
HStem: 1205 123<508.621 612.722> 1459 123<508.379 619.728>
VStem: 368 128.5<1347.6 1439.4> 624 128<1339.52 1455.79>
LayerCount: 2
Fore
SplineSet
368 1394 m 128,-1,1
 368 1473 368 1473 424 1527.5 c 128,-1,2
 480 1582 480 1582 560 1582 c 128,-1,3
 640 1582 640 1582 696 1527 c 256,4,5
 752 1472 752 1472 752 1393.5 c 128,-1,6
 752 1315 752 1315 696 1260 c 256,7,8
 640 1205 640 1205 560 1205 c 128,-1,9
 480 1205 480 1205 424 1260 c 256,10,0
 368 1315 368 1315 368 1394 c 128,-1,1
496.5 1393.5 m 128,-1,12
 497 1366 497 1366 515.5 1347 c 128,-1,13
 534 1328 534 1328 560 1328 c 128,-1,14
 586 1328 586 1328 605 1347 c 128,-1,15
 624 1366 624 1366 624 1393 c 128,-1,16
 624 1420 624 1420 605 1439.5 c 128,-1,17
 586 1459 586 1459 560 1459 c 128,-1,18
 534 1459 534 1459 515 1440 c 128,-1,11
 496 1421 496 1421 496.5 1393.5 c 128,-1,12
EndSplineSet
EndChar

StartChar: ogonek
Encoding: 297 731 296
Width: 1120
GlyphClass: 2
Flags: W
HStem: -383 123<519.401 758.989>
VStem: 358 152.5<-249.441 -61.1342>
LayerCount: 2
Fore
SplineSet
358 -209.5 m 128,-1,1
 358 -130 358 -130 387 -76 c 128,-1,2
 416 -22 416 -22 482 33 c 1,3,-1
 642 33 l 1,4,5
 511 -85 511 -85 510.5 -172.5 c 128,-1,6
 510 -260 510 -260 612 -260 c 0,7,8
 678 -260 678 -260 762 -216 c 1,9,-1
 762 -339 l 1,10,11
 653 -383 653 -383 564.5 -383 c 128,-1,12
 476 -383 476 -383 417 -336 c 128,-1,0
 358 -289 358 -289 358 -209.5 c 128,-1,1
EndSplineSet
EndChar

StartChar: tilde
Encoding: 298 732 297
Width: 1120
GlyphClass: 2
Flags: W
HStem: 1246 139<605.453 810.213> 1367 139<327.13 534.47> 1471 20G<833 897.064>
DStem2: 566 1452 506 1340 0.84916 -0.528136<-82.0815 173.805>
LayerCount: 2
Fore
SplineSet
154 1278 m 1,0,1
 194 1362 194 1362 216 1394 c 0,2,3
 292 1506 292 1506 412 1506 c 0,4,5
 452 1506 452 1506 477 1497 c 128,-1,6
 502 1488 502 1488 566 1452 c 2,7,-1
 626 1418 l 2,8,9
 683 1385 683 1385 730.5 1385 c 128,-1,10
 778 1385 778 1385 812 1431 c 0,11,12
 820 1441 820 1441 846 1491 c 1,13,-1
 966 1444 l 1,14,15
 934 1373 934 1373 914 1345 c 0,16,17
 838 1246 838 1246 730 1246 c 0,18,19
 658 1246 658 1246 588 1289 c 2,20,-1
 506 1340 l 2,21,22
 462 1367 462 1367 415 1367 c 128,-1,23
 368 1367 368 1367 339 1337.5 c 128,-1,24
 310 1308 310 1308 276 1235 c 1,25,-1
 154 1278 l 1,0,1
EndSplineSet
EndChar

StartChar: hungarumlaut
Encoding: 299 733 298
Width: 1120
GlyphClass: 2
Flags: W
HStem: 1174 411
LayerCount: 2
Fore
SplineSet
187 1259 m 1,0,-1
 475 1585 l 1,1,-1
 605 1481 l 1,2,-1
 281 1174 l 1,3,-1
 187 1259 l 1,0,-1
515 1259 m 1,4,-1
 802 1585 l 1,5,-1
 933 1481 l 1,6,-1
 609 1174 l 1,7,-1
 515 1259 l 1,4,-1
EndSplineSet
EndChar

StartChar: uni0345
Encoding: 300 837 299
Width: 1120
GlyphClass: 2
Flags: W
HStem: -446 123<573.956 684.753>
VStem: 434 138<-321.1 148>
LayerCount: 2
Fore
SplineSet
572 -253 m 2,0,1
 572 -323 572 -323 610 -323 c 0,2,3
 630 -323 630 -323 642 -317 c 2,4,-1
 686 -291 l 1,5,-1
 686 -425 l 1,6,7
 628 -446 628 -446 596 -446 c 0,8,9
 506 -446 506 -446 470 -395.5 c 128,-1,10
 434 -345 434 -345 434 -221 c 2,11,-1
 434 148 l 1,12,-1
 572 148 l 1,13,-1
 572 -253 l 2,0,1
EndSplineSet
EndChar

StartChar: uni037E
Encoding: 301 894 300
Width: 1120
GlyphClass: 2
Flags: W
HStem: -256 140<398 452.428> 660 330<446.546 671.454>
VStem: 394 330<43.6179 243.588 711.021 937.454>
LayerCount: 2
Fore
SplineSet
394 148.5 m 128,-1,1
 394 219 394 219 445 260 c 128,-1,2
 496 301 496 301 561 301 c 128,-1,3
 626 301 626 301 676 247.5 c 128,-1,4
 726 194 726 194 726 100 c 128,-1,5
 726 6 726 6 637.5 -105.5 c 128,-1,6
 549 -217 549 -217 398 -256 c 5,7,-1
 398 -116 l 5,8,9
 414 -112 414 -112 529 -2 c 1,10,11
 470 7 470 7 432 42.5 c 128,-1,0
 394 78 394 78 394 148.5 c 128,-1,1
394 825 m 256,12,13
 394 894 394 894 442.5 942 c 128,-1,14
 491 990 491 990 559.5 990 c 128,-1,15
 628 990 628 990 676 941.5 c 128,-1,16
 724 893 724 893 724 824.5 c 128,-1,17
 724 756 724 756 676 708 c 128,-1,18
 628 660 628 660 559 660 c 256,19,20
 490 660 490 660 442 708 c 128,-1,21
 394 756 394 756 394 825 c 256,12,13
EndSplineSet
EndChar

StartChar: tonos
Encoding: 302 900 301
Width: 1120
GlyphClass: 2
Flags: W
HStem: 1188 284<510.5 570.5>
VStem: 464.5 191
LayerCount: 2
Fore
SplineSet
464.5 1188 m 1,0,-1
 510.5 1472 l 1,1,-1
 655.5 1472 l 1,2,-1
 570.5 1188 l 1,3,-1
 464.5 1188 l 1,0,-1
EndSplineSet
EndChar

StartChar: dieresistonos
Encoding: 303 901 302
Width: 1120
GlyphClass: 2
Flags: W
HStem: 1202 182<283.846 409.432 711.846 837.185> 1465 20G<528.772 678>
VStem: 256 180.509<1229.59 1356.4> 684 180<1230.36 1356.67>
LayerCount: 2
Fore
SplineSet
256 1292 m 2,0,-1
 256 1294 l 2,1,2
 256 1332 256 1332 283 1358 c 128,-1,3
 310 1384 310 1384 347 1384 c 128,-1,4
 384 1384 384 1384 410.254882812 1357.24023438 c 128,-1,5
 436.508789062 1330.48046875 436.508789062 1330.48046875 436.508789062 1292.99023438 c 128,-1,6
 436.508789062 1255.5 436.508789062 1255.5 410.254882812 1228.75 c 128,-1,7
 384 1202 384 1202 346 1202 c 256,8,9
 309 1202 309 1202 282.5 1229 c 128,-1,10
 256 1256 256 1256 256 1292 c 2,0,-1
486 1200 m 1,11,-1
 532 1485 l 1,12,-1
 678 1485 l 1,13,-1
 592 1200 l 1,14,-1
 486 1200 l 1,11,-1
684 1292 m 2,15,-1
 684 1294 l 2,16,17
 684 1332 684 1332 711 1358 c 128,-1,18
 738 1384 738 1384 775 1384 c 128,-1,19
 812 1384 812 1384 838 1357.5 c 128,-1,20
 864 1331 864 1331 864 1294 c 256,21,22
 864 1257 864 1257 838 1229.5 c 128,-1,23
 812 1202 812 1202 775 1202 c 128,-1,24
 738 1202 738 1202 711 1229 c 128,-1,25
 684 1256 684 1256 684 1292 c 2,15,-1
EndSplineSet
EndChar

StartChar: Etatonos
Encoding: 306 905 305
Width: 1120
GlyphClass: 2
Flags: W
HStem: 0 21G<296 436 900 1040> 697 130<436 900> 1452 20G<130.211 278 296 436 900 1040>
VStem: 296 140<0 697 827 1472> 900 140<0 697 827 1472>
LayerCount: 2
Fore
SplineSet
80 1187 m 1,0,-1
 134 1472 l 1,1,-1
 278 1472 l 1,2,-1
 186 1187 l 1,3,-1
 80 1187 l 1,0,-1
296 0 m 1,4,-1
 296 1472 l 1,5,-1
 436 1472 l 1,6,-1
 436 827 l 1,7,-1
 900 827 l 1,8,-1
 900 1472 l 1,9,-1
 1040 1472 l 1,10,-1
 1040 0 l 1,11,-1
 900 0 l 1,12,-1
 900 697 l 1,13,-1
 436 697 l 1,14,-1
 436 0 l 1,15,-1
 296 0 l 1,4,-1
EndSplineSet
EndChar

StartChar: Upsilontonos
Encoding: 309 910 308
Width: 1120
GlyphClass: 2
Flags: W
HStem: 0 21G<596 736.064> 1452 20G<92.2105 240 252 409.916 918.204 1078>
VStem: 596 140<0 626>
DStem2: 402 1472 252 1472 0.376671 -0.926347<0 717.315> 666 805 738 629 0.374045 0.927411<0 715.835>
LayerCount: 2
Fore
SplineSet
42 1187 m 1,0,-1
 96 1472 l 1,1,-1
 240 1472 l 1,2,-1
 148 1187 l 1,3,-1
 42 1187 l 1,0,-1
252 1472 m 1,4,-1
 402 1472 l 1,5,-1
 666 805 l 1,6,-1
 926 1472 l 1,7,-1
 1078 1472 l 1,8,-1
 738 629 l 1,9,-1
 736 0 l 1,10,-1
 596 0 l 1,11,-1
 596 626 l 1,12,-1
 252 1472 l 1,4,-1
EndSplineSet
EndChar

StartChar: Alpha
Encoding: 312 913 311
Width: 1120
GlyphClass: 2
Flags: W
HStem: 0 21G<52.5 201.312 918.825 1067.5> 437 130<358.5 762.5> 1283 189<374 747>
VStem: 52.5 143<0 143> 924.5 143<0 143>
DStem2: 52.5 0 195.5 0 0.271957 0.962309<38.8899 493.958 628.848 1372.8> 652.5 1472 560.5 1283 0.271351 -0.96248<156.944 900.893 1036.33 1490.58>
LayerCount: 2
Fore
SplineSet
52.5 0 m 1,0,-1
 468.5 1472 l 1,1,-1
 652.5 1472 l 1,2,-1
 1067.5 0 l 1,3,-1
 924.5 0 l 1,4,-1
 800.5 437 l 1,5,-1
 322.5 437 l 1,6,-1
 195.5 0 l 1,7,-1
 52.5 0 l 1,0,-1
358.5 567 m 1,8,-1
 762.5 567 l 1,9,-1
 560.5 1283 l 1,10,-1
 358.5 567 l 1,8,-1
EndSplineSet
EndChar

StartChar: Beta
Encoding: 313 914 312
Width: 1120
GlyphClass: 2
Flags: W
HStem: 0 130<295.749 721.306> 704 130<295.749 631.923> 1342 130<295.749 676.392>
VStem: 155.749 140<130 704 834 1342> 759.749 140<954.678 1258.51> 823.749 140.502<229.114 574.42>
LayerCount: 2
Fore
SplineSet
155.749023438 0 m 1,0,-1
 155.749023438 1472 l 1,1,-1
 519.749023438 1472 l 2,2,3
 708.749023438 1472 708.749023438 1472 804.249023438 1375 c 128,-1,4
 899.749023438 1278 899.749023438 1278 899.749023438 1115 c 0,5,6
 899.749023438 898 899.749023438 898 729.749023438 789 c 1,7,8
 805.749023438 753 805.749023438 753 843.749023438 716 c 0,9,10
 964.250976562 597.489257812 964.250976562 597.489257812 964.250976562 407.486328125 c 128,-1,11
 964.250976562 217.482421875 964.250976562 217.482421875 851 108.741210938 c 128,-1,12
 737.749023438 0 737.749023438 0 543.749023438 0 c 2,13,-1
 155.749023438 0 l 1,0,-1
295.749023438 130 m 1,14,-1
 491.749023438 130 l 2,15,16
 680.749023438 130 680.749023438 130 752.249023438 197 c 128,-1,17
 823.749023438 264 823.749023438 264 823.749023438 401.5 c 128,-1,18
 823.749023438 539 823.749023438 539 741.749023438 622 c 0,19,20
 657.749023438 704 657.749023438 704 535.749023438 704 c 2,21,-1
 295.749023438 704 l 1,22,-1
 295.749023438 130 l 1,14,-1
295.749023438 834 m 1,23,-1
 419.749023438 834 l 2,24,25
 624.749023438 834 624.749023438 834 707.749023438 942 c 0,26,27
 759.749023438 1010 759.749023438 1010 759.749023438 1114 c 128,-1,28
 759.749023438 1218 759.749023438 1218 697.749023438 1280 c 128,-1,29
 635.749023438 1342 635.749023438 1342 529.749023438 1342 c 2,30,-1
 295.749023438 1342 l 1,31,-1
 295.749023438 834 l 1,23,-1
EndSplineSet
EndChar

StartChar: Gamma
Encoding: 314 915 313
Width: 1120
GlyphClass: 2
Flags: W
HStem: 0 21G<167 307> 1342 130<307 953>
VStem: 167 140<0 1342>
LayerCount: 2
Fore
SplineSet
167 0 m 1,0,-1
 167 1472 l 1,1,-1
 953 1472 l 1,2,-1
 953 1342 l 1,3,-1
 307 1342 l 1,4,-1
 307 0 l 1,5,-1
 167 0 l 1,0,-1
EndSplineSet
EndChar

StartChar: uni0394
Encoding: 315 916 314
Width: 1120
GlyphClass: 2
Flags: W
HStem: 0 130<232 888> 1283 189<373.5 746.5>
DStem2: 52 0 232 130 0.271957 0.962309<174.052 1372.8> 652 1472 560 1283 0.271957 -0.962309<156.856 1355.6>
LayerCount: 2
Fore
SplineSet
52 0 m 1,0,-1
 468 1472 l 1,1,-1
 652 1472 l 1,2,-1
 1068 0 l 1,3,-1
 52 0 l 1,0,-1
232 130 m 1,4,-1
 888 130 l 1,5,-1
 560 1283 l 1,6,-1
 232 130 l 1,4,-1
EndSplineSet
EndChar

StartChar: Epsilon
Encoding: 316 917 315
Width: 1120
GlyphClass: 2
Flags: W
HStem: 0 130<320 940> 689 130<320 756> 1342 130<320 924>
VStem: 180 140<130 689 819 1342>
LayerCount: 2
Fore
SplineSet
180 0 m 1,0,-1
 180 1472 l 1,1,-1
 924 1472 l 1,2,-1
 924 1342 l 1,3,-1
 320 1342 l 1,4,-1
 320 819 l 1,5,-1
 756 819 l 1,6,-1
 756 689 l 1,7,-1
 320 689 l 1,8,-1
 320 130 l 1,9,-1
 940 130 l 1,10,-1
 940 0 l 1,11,-1
 180 0 l 1,0,-1
EndSplineSet
EndChar

StartChar: Zeta
Encoding: 317 918 316
Width: 1120
GlyphClass: 2
Flags: W
HStem: 0 130<318 968> 1342 130<172 760>
DStem2: 154 109 318 130 0.441089 0.897463<91.1853 1373.87>
LayerCount: 2
Fore
SplineSet
152 0 m 1,0,-1
 154 109 l 1,1,-1
 760 1342 l 1,2,-1
 172 1342 l 1,3,-1
 172 1472 l 1,4,-1
 920 1472 l 1,5,-1
 920 1363 l 1,6,-1
 318 130 l 1,7,-1
 968 130 l 1,8,-1
 968 0 l 1,9,-1
 152 0 l 1,0,-1
EndSplineSet
EndChar

StartChar: Eta
Encoding: 318 919 317
Width: 1120
GlyphClass: 2
Flags: W
HStem: 0 21G<167 307 813 953> 697 130<307 813> 1452 20G<167 307 813 953>
VStem: 167 140<0 697 827 1472> 813 140<0 697 827 1472>
LayerCount: 2
Fore
SplineSet
167 0 m 1,0,-1
 167 1472 l 1,1,-1
 307 1472 l 1,2,-1
 307 827 l 1,3,-1
 813 827 l 1,4,-1
 813 1472 l 1,5,-1
 953 1472 l 1,6,-1
 953 0 l 1,7,-1
 813 0 l 1,8,-1
 813 697 l 1,9,-1
 307 697 l 1,10,-1
 307 0 l 1,11,-1
 167 0 l 1,0,-1
EndSplineSet
EndChar

StartChar: Theta
Encoding: 319 920 318
Width: 1120
GlyphClass: 2
Flags: W
HStem: -23 129.981<411.23 714.855> 667 130<305.752 813.752> 1366 130<404.483 709.059>
VStem: 116.248 139.504<322.641 1153.46> 863.752 140<329.308 1144.08>
LayerCount: 2
Fore
SplineSet
175.751953125 1219 m 0,0,1
 269.751953125 1496 269.751953125 1496 559.751953125 1496 c 0,2,3
 767.751953125 1496 767.751953125 1496 875.751953125 1357 c 0,4,5
 1003.75195312 1190 1003.75195312 1190 1003.75195312 719 c 0,6,7
 1003.75195312 401 1003.75195312 401 923.751953125 203 c 0,8,9
 879.751953125 91 879.751953125 91 781.751953125 34 c 128,-1,10
 683.751953125 -23 683.751953125 -23 561.751953125 -23 c 0,11,12
 265.751953125 -23 265.751953125 -23 171.751953125 265 c 0,13,14
 116.248046875 439.5859375 116.248046875 439.5859375 116.248046875 743.5078125 c 128,-1,15
 116.248046875 1047.4296875 116.248046875 1047.4296875 175.751953125 1219 c 0,0,1
255.751953125 748 m 128,-1,17
 255.751953125 337 255.751953125 337 351.751953125 207 c 0,18,19
 427.751953125 107 427.751953125 107 559.751953125 107 c 0,20,21
 561.676757812 106.981445312 561.676757812 106.981445312 563.586914062 106.981445312 c 0,22,23
 662.903320312 106.981445312 662.903320312 106.981445312 722.751953125 158 c 0,24,25
 863.751953125 276 863.751953125 276 863.751953125 740 c 0,26,27
 863.751953125 1042 863.751953125 1042 795.751953125 1214 c 0,28,29
 768.751953125 1284 768.751953125 1284 705.251953125 1325 c 128,-1,30
 641.751953125 1366 641.751953125 1366 559.751953125 1366 c 0,31,32
 435.751953125 1366 435.751953125 1366 365.751953125 1286 c 0,33,16
 255.751953125 1159 255.751953125 1159 255.751953125 748 c 128,-1,17
305.751953125 667 m 1,34,-1
 305.751953125 797 l 1,35,-1
 813.751953125 797 l 1,36,-1
 813.751953125 667 l 1,37,-1
 305.751953125 667 l 1,34,-1
EndSplineSet
EndChar

StartChar: Iota
Encoding: 320 921 319
Width: 1120
GlyphClass: 2
Flags: W
HStem: 0 130<294 490 630 826> 1342 130<294 490 630 826>
VStem: 490 140<130 1342>
LayerCount: 2
Fore
SplineSet
294 0 m 1,0,-1
 294 130 l 1,1,-1
 490 130 l 1,2,-1
 490 1342 l 1,3,-1
 294 1342 l 1,4,-1
 294 1472 l 1,5,-1
 826 1472 l 1,6,-1
 826 1342 l 1,7,-1
 630 1342 l 1,8,-1
 630 130 l 1,9,-1
 826 130 l 1,10,-1
 826 0 l 1,11,-1
 294 0 l 1,0,-1
EndSplineSet
EndChar

StartChar: Kappa
Encoding: 321 922 320
Width: 1120
GlyphClass: 2
Flags: W
HStem: 0 21G<116 256 811.275 1004> 1452 20G<116 256 731.151 917>
VStem: 116 140<0 684 888 1472> 748 169<1303 1472> 828 176<0 176>
DStem2: 256 888 356 792 0.636383 0.771373<0 763.582> 356 792 256 684 0.633238 -0.773957<20.2636 911.862>
LayerCount: 2
Fore
SplineSet
116 0 m 1,0,-1
 116 1472 l 1,1,-1
 256 1472 l 1,2,-1
 256 888 l 1,3,-1
 748 1472 l 1,4,-1
 917 1472 l 1,5,-1
 356 792 l 1,6,-1
 1004 0 l 1,7,-1
 828 0 l 1,8,-1
 256 684 l 1,9,-1
 256 0 l 1,10,-1
 116 0 l 1,0,-1
EndSplineSet
EndChar

StartChar: Lambda
Encoding: 322 923 321
Width: 1120
GlyphClass: 2
Flags: W
HStem: 0 21G<52.5 201.19 918.826 1067.5> 1452 20G<462.848 658.139>
VStem: 52.5 143<0 143> 924.5 143<0 143>
DStem2: 52.5 0 195.5 0 0.271957 0.962309<38.8899 1372.8> 652.5 1472 560.5 1283 0.271351 -0.96248<156.944 1490.58>
LayerCount: 2
Fore
SplineSet
52.5 0 m 1,0,-1
 468.5 1472 l 1,1,-1
 652.5 1472 l 1,2,-1
 1067.5 0 l 1,3,-1
 924.5 0 l 1,4,-1
 560.5 1283 l 1,5,-1
 195.5 0 l 1,6,-1
 52.5 0 l 1,0,-1
EndSplineSet
EndChar

StartChar: Mu
Encoding: 323 924 322
Width: 1120
GlyphClass: 2
Flags: W
HStem: 0 21G<126 266 854 994> 1452 20G<126 277.464 842.594 994>
VStem: 126 140<0 1121> 854 140<0 1123>
DStem2: 269 1472 266 1121 0.389727 -0.92093<322.077 749.242> 561 782 597 511 0.38746 0.921887<0 427.889>
LayerCount: 2
Fore
SplineSet
126 0 m 1,0,-1
 126 1472 l 1,1,-1
 269 1472 l 1,2,-1
 561 782 l 1,3,-1
 851 1472 l 1,4,-1
 994 1472 l 1,5,-1
 994 0 l 1,6,-1
 854 0 l 1,7,-1
 854 1123 l 1,8,-1
 597 511 l 1,9,-1
 523 511 l 1,10,-1
 266 1121 l 1,11,-1
 266 0 l 1,12,-1
 126 0 l 1,0,-1
EndSplineSet
EndChar

StartChar: Nu
Encoding: 324 925 323
Width: 1120
GlyphClass: 2
Flags: W
HStem: 0 21G<181 321 799.815 939> 1452 20G<181 358.134 799 939>
VStem: 181 140<0 1175> 799 140<368 1472>
DStem2: 350 1472 321 1175 0.378754 -0.925497<263.889 1191.81>
LayerCount: 2
Fore
SplineSet
181 0 m 1,0,-1
 181 1472 l 1,1,-1
 350 1472 l 1,2,-1
 799 368 l 1,3,-1
 799 1472 l 1,4,-1
 939 1472 l 1,5,-1
 939 -15 l 1,6,-1
 808 -15 l 1,7,-1
 321 1175 l 1,8,-1
 321 0 l 1,9,-1
 181 0 l 1,0,-1
EndSplineSet
EndChar

StartChar: Xi
Encoding: 325 926 324
Width: 1120
GlyphClass: 2
Flags: W
HStem: 0 130<116 1004> 697 128<163 958> 1342 130<133 987>
LayerCount: 2
Fore
SplineSet
116 0 m 1,0,-1
 116 130 l 1,1,-1
 1004 130 l 1,2,-1
 1004 0 l 1,3,-1
 116 0 l 1,0,-1
133 1342 m 1,4,-1
 133 1472 l 1,5,-1
 987 1472 l 1,6,-1
 987 1342 l 1,7,-1
 133 1342 l 1,4,-1
163 697 m 1,8,-1
 163 825 l 1,9,-1
 958 825 l 1,10,-1
 958 697 l 1,11,-1
 163 697 l 1,8,-1
EndSplineSet
EndChar

StartChar: Omicron
Encoding: 326 927 325
Width: 1120
GlyphClass: 2
Flags: W
HStem: -23 130<409.265 710.412> 1366 130<411.563 707.822>
VStem: 116.247 140<321.946 1155.87> 864.247 139.506<322.349 1146.74>
LayerCount: 2
Fore
SplineSet
116.247070312 743 m 0,0,1
 116.247070312 1052 116.247070312 1052 171.247070312 1209 c 0,2,3
 270.247070312 1496 270.247070312 1496 558.247070312 1496 c 0,4,5
 880.247070312 1496 880.247070312 1496 964.247070312 1157 c 0,6,7
 1003.75292969 998.975585938 1003.75292969 998.975585938 1003.75292969 705.361328125 c 0,8,9
 1003.75292969 402.884765625 1003.75292969 402.884765625 926.247070312 203 c 0,10,11
 883.247070312 94 883.247070312 94 782.747070312 35.5 c 128,-1,12
 682.247070312 -23 682.247070312 -23 560.247070312 -23 c 0,13,14
 370.247070312 -23 370.247070312 -23 260.247070312 99 c 0,15,16
 116.247070312 259 116.247070312 259 116.247070312 743 c 0,0,1
256.247070312 751 m 0,17,18
 256.247070312 428 256.247070312 428 320.247070312 262 c 0,19,20
 348.247070312 191 348.247070312 191 413.247070312 149 c 128,-1,21
 478.247070312 107 478.247070312 107 569.247070312 107 c 0,22,23
 756.247070312 107 756.247070312 107 822.247070312 328 c 0,24,25
 864.247070312 471 864.247070312 471 864.247070312 757 c 128,-1,26
 864.247070312 1043 864.247070312 1043 798.247070312 1215 c 0,27,28
 772.247070312 1282 772.247070312 1282 707.247070312 1324 c 128,-1,29
 642.247070312 1366 642.247070312 1366 562.247070312 1366 c 0,30,31
 336.247070312 1366 336.247070312 1366 282.247070312 1081 c 0,32,33
 256.247070312 941 256.247070312 941 256.247070312 751 c 0,17,18
EndSplineSet
EndChar

StartChar: Pi
Encoding: 327 928 326
Width: 1120
GlyphClass: 2
Flags: W
HStem: 0 21G<102 242 878 1018> 1342 130<242 878>
VStem: 102 140<0 1342> 878 140<0 1342>
LayerCount: 2
Fore
SplineSet
102 0 m 1,0,-1
 102 1472 l 1,1,-1
 1018 1472 l 1,2,-1
 1018 0 l 1,3,-1
 878 0 l 1,4,-1
 878 1342 l 1,5,-1
 242 1342 l 1,6,-1
 242 0 l 1,7,-1
 102 0 l 1,0,-1
EndSplineSet
EndChar

StartChar: Rho
Encoding: 328 929 327
Width: 1120
GlyphClass: 2
Flags: W
HStem: 0 21G<181 321> 578 130<321 688.248> 1342 130<321 683.859>
VStem: 181 140<0 578 708 1342> 799 140<817 1224.01>
LayerCount: 2
Fore
SplineSet
181 0 m 1,0,-1
 181 1472 l 1,1,-1
 511 1472 l 2,2,3
 718 1472 718 1472 828.5 1359 c 128,-1,4
 939 1246 939 1246 939 1028 c 128,-1,5
 939 810 939 810 819 687 c 0,6,7
 710 578 710 578 471 578 c 2,8,-1
 321 578 l 1,9,-1
 321 0 l 1,10,-1
 181 0 l 1,0,-1
321 708 m 1,11,-1
 460 708 l 2,12,13
 598 708 598 708 672 742 c 0,14,15
 799 800 799 800 799 1021 c 0,16,17
 799 1182 799 1182 727 1262 c 128,-1,18
 655 1342 655 1342 533 1342 c 2,19,-1
 321 1342 l 1,20,-1
 321 708 l 1,11,-1
EndSplineSet
EndChar

StartChar: Sigma
Encoding: 329 931 328
Width: 1120
GlyphClass: 2
Flags: W
HStem: 0 130<300 1002> 1342 130<300 1002>
DStem2: 300 1342 118 1360 0.629016 -0.777393<0 660.06> 118 112 300 130 0.615572 0.788081<126.22 805.755>
LayerCount: 2
Fore
SplineSet
118 0 m 1,0,-1
 118 112 l 1,1,-1
 614 747 l 1,2,-1
 118 1360 l 1,3,-1
 118 1472 l 1,4,-1
 1002 1472 l 1,5,-1
 1002 1342 l 1,6,-1
 300 1342 l 1,7,-1
 786 748 l 1,8,-1
 300 130 l 1,9,-1
 1002 130 l 1,10,-1
 1002 0 l 1,11,-1
 118 0 l 1,0,-1
EndSplineSet
EndChar

StartChar: Tau
Encoding: 330 932 329
Width: 1120
GlyphClass: 2
Flags: W
HStem: 0 21G<490 630> 1342 130<88 490 630 1032>
VStem: 490 140<0 1342>
LayerCount: 2
Fore
SplineSet
88 1342 m 1,0,-1
 88 1472 l 1,1,-1
 1032 1472 l 1,2,-1
 1032 1342 l 1,3,-1
 630 1342 l 1,4,-1
 630 0 l 1,5,-1
 490 0 l 1,6,-1
 490 1342 l 1,7,-1
 88 1342 l 1,0,-1
EndSplineSet
EndChar

StartChar: Upsilon
Encoding: 331 933 330
Width: 1120
GlyphClass: 2
Flags: W
HStem: 0 21G<498 638.064> 1452 20G<126 284.703 835.773 994>
VStem: 498 140<0 626>
DStem2: 276 1472 126 1472 0.402521 -0.915411<0 731.777> 568 801 640 629 0.387177 0.922006<0 725.526>
LayerCount: 2
Fore
SplineSet
126 1472 m 1,0,-1
 276 1472 l 1,1,-1
 568 801 l 1,2,-1
 844 1472 l 1,3,-1
 994 1472 l 1,4,-1
 640 629 l 1,5,-1
 638 0 l 1,6,-1
 498 0 l 1,7,-1
 498 626 l 1,8,-1
 126 1472 l 1,0,-1
EndSplineSet
EndChar

StartChar: Phi
Encoding: 332 934 331
Width: 1120
GlyphClass: 2
Flags: W
HStem: 134 133<630 745.881> 1214 131<379.292 490 630 741.445> 1482 20G<490 630>
VStem: 116 140<418.075 1057.71> 490 140<-30 139.125 267 1214 1339.78 1502> 864 140<419.605 1060.26>
CounterMasks: 1 1c
LayerCount: 2
Fore
SplineSet
116 736 m 0,0,1
 116 1098 116 1098 242 1234 c 0,2,3
 326 1325 326 1325 490 1345 c 1,4,-1
 490 1502 l 1,5,-1
 630 1502 l 1,6,-1
 630 1346 l 1,7,8
 742 1332 742 1332 808 1291 c 0,9,10
 1003 1174 1003 1174 1004 744 c 0,11,12
 1004 386 1004 386 884 252 c 0,13,14
 792 149 792 149 630 134 c 1,15,-1
 630 -30 l 1,16,-1
 490 -30 l 1,17,-1
 490 134 l 1,18,19
 344 147 344 147 260 230 c 128,-1,20
 176 313 176 313 146 436.5 c 128,-1,21
 116 560 116 560 116 736 c 0,0,1
256 716 m 128,-1,23
 256 441 256 441 348 337 c 0,24,25
 396 283 396 283 490 267 c 1,26,-1
 490 1214 l 1,27,28
 368 1190 368 1190 322 1108 c 0,29,22
 256 991 256 991 256 716 c 128,-1,23
630 267 m 1,30,31
 708 278 708 278 752 316 c 0,32,33
 864 409 864 409 864 744 c 128,-1,34
 864 1079 864 1079 746 1166 c 0,35,36
 701 1200 701 1200 630 1214 c 1,37,-1
 630 267 l 1,30,31
EndSplineSet
EndChar

StartChar: Chi
Encoding: 333 935 332
Width: 1120
GlyphClass: 2
Flags: W
HStem: 0 21G<148 310.897 807.172 972> 1452 20G<148 311.053 808.947 972>
DStem2: 302 1472 148 1472 0.414269 -0.910155<0 625.669 918.739 1552.68> 148 0 302 0 0.414269 0.910155<63.7974 698.568 991.638 1617.31>
LayerCount: 2
Fore
SplineSet
148 0 m 1,0,-1
 482 742 l 1,1,-1
 148 1472 l 1,2,-1
 302 1472 l 1,3,-1
 560 902 l 1,4,-1
 818 1472 l 1,5,-1
 972 1472 l 1,6,-1
 638 742 l 1,7,-1
 972 0 l 1,8,-1
 816 0 l 1,9,-1
 560 580 l 1,10,-1
 302 0 l 1,11,-1
 148 0 l 1,0,-1
EndSplineSet
EndChar

StartChar: Psi
Encoding: 334 936 333
Width: 1120
GlyphClass: 2
Flags: W
HStem: 1 21G<490 630> 424 130<338.724 490 630 790.908> 1452 20G<88 227 490 630 892 1032>
VStem: 88 139<667.659 1472> 490 140<1 428.058 554 1472> 892 140<663.654 1472>
LayerCount: 2
Fore
SplineSet
88 847 m 2,0,-1
 88 1472 l 1,1,-1
 227 1472 l 1,2,-1
 227 890 l 2,3,4
 227 720 227 720 287.5 643.5 c 128,-1,5
 348 567 348 567 490 554 c 1,6,-1
 490 1472 l 1,7,-1
 630 1472 l 1,8,-1
 630 554 l 1,9,10
 707 560 707 560 750 576 c 0,11,12
 892 629 892 629 892 878 c 2,13,-1
 892 1472 l 1,14,-1
 1032 1472 l 1,15,-1
 1032 898 l 2,16,17
 1032 668 1032 668 928 548 c 0,18,19
 879 490 879 490 813.5 463.5 c 128,-1,20
 748 437 748 437 630 425 c 1,21,-1
 630 1 l 1,22,-1
 490 1 l 1,23,-1
 490 424 l 1,24,25
 364 434 364 434 300 465 c 0,26,27
 178 524 178 524 122 665 c 0,28,29
 88 750 88 750 88 847 c 2,0,-1
EndSplineSet
EndChar

StartChar: uni03A9
Encoding: 335 937 334
Width: 1120
GlyphClass: 2
Flags: W
HStem: 0 130<86 320 794 1034> 1366 130<428.605 686.24>
VStem: 110 140<409.846 1083.54> 871.503 140.497<406.328 1098.6>
LayerCount: 2
Fore
SplineSet
86 0 m 1,0,-1
 86 130 l 1,1,-1
 320 130 l 1,2,3
 110 298 110 298 110 696.5 c 128,-1,4
 110 1095 110 1095 233 1295.5 c 128,-1,5
 356 1496 356 1496 558 1496 c 0,6,7
 790 1496 790 1496 914 1250 c 0,8,9
 1011 1056 1011 1056 1012 728 c 0,10,11
 1012 489 1012 489 950 333 c 0,12,13
 906 225 906 225 794 130 c 1,14,-1
 1034 130 l 1,15,-1
 1034 0 l 1,16,-1
 582 0 l 1,17,-1
 582 117 l 1,18,19
 673 187 673 187 711.5 223 c 128,-1,20
 750 259 750 259 778 304 c 0,21,22
 871.502929688 444.756835938 871.502929688 444.756835938 871.502929688 743.833007812 c 128,-1,23
 871.502929688 1042.91015625 871.502929688 1042.91015625 783.750976562 1204.45507812 c 128,-1,24
 696 1366 696 1366 555 1366 c 128,-1,25
 414 1366 414 1366 332 1187.5 c 128,-1,26
 250 1009 250 1009 250 720.5 c 128,-1,27
 250 432 250 432 358 285 c 0,28,29
 404 225 404 225 540 116 c 1,30,-1
 540 0 l 1,31,-1
 86 0 l 1,0,-1
EndSplineSet
EndChar

StartChar: Iotadieresis
Encoding: 336 938 335
Width: 1120
GlyphClass: 2
Flags: W
HStem: 0 130<294 490 630 826> 1342 130<294 490 630 826> 1575 206<340.94 483.06 638.94 781.06>
VStem: 310 204<1606.97 1750.06> 490 140<130 1342> 608 204<1606.97 1750.57>
LayerCount: 2
Fore
SplineSet
294 0 m 1,0,-1
 294 130 l 1,1,-1
 490 130 l 1,2,-1
 490 1342 l 1,3,-1
 294 1342 l 1,4,-1
 294 1472 l 1,5,-1
 826 1472 l 1,6,-1
 826 1342 l 1,7,-1
 630 1342 l 1,8,-1
 630 130 l 1,9,-1
 826 130 l 1,10,-1
 826 0 l 1,11,-1
 294 0 l 1,0,-1
310 1678.5 m 128,-1,13
 310 1721 310 1721 340 1751 c 128,-1,14
 370 1781 370 1781 412 1781 c 128,-1,15
 454 1781 454 1781 484 1751.5 c 128,-1,16
 514 1722 514 1722 514 1679.5 c 128,-1,17
 514 1637 514 1637 484 1606 c 128,-1,18
 454 1575 454 1575 412 1575 c 256,19,20
 370 1575 370 1575 340 1605.5 c 128,-1,12
 310 1636 310 1636 310 1678.5 c 128,-1,13
608 1679.5 m 128,-1,22
 608 1722 608 1722 638 1751.5 c 128,-1,23
 668 1781 668 1781 710 1781 c 128,-1,24
 752 1781 752 1781 782 1751.5 c 128,-1,25
 812 1722 812 1722 812 1679.5 c 128,-1,26
 812 1637 812 1637 782 1606 c 128,-1,27
 752 1575 752 1575 710 1575 c 256,28,29
 668 1575 668 1575 638 1606 c 128,-1,21
 608 1637 608 1637 608 1679.5 c 128,-1,22
EndSplineSet
EndChar

StartChar: Upsilondieresis
Encoding: 337 939 336
Width: 1120
GlyphClass: 2
Flags: W
HStem: 0 21G<498 638.064> 1452 20G<126 284.703 835.773 994> 1575 206<340.941 483.306 638.94 781.06>
VStem: 310 204.508<1606.71 1750.06> 498 140<0 626> 608 204<1606.97 1750.06>
DStem2: 276 1472 126 1472 0.402521 -0.915411<0 731.777> 568 801 640 629 0.387177 0.922006<0 725.526>
LayerCount: 2
Fore
SplineSet
126 1472 m 1,0,-1
 276 1472 l 1,1,-1
 568 801 l 1,2,-1
 844 1472 l 1,3,-1
 994 1472 l 1,4,-1
 640 629 l 1,5,-1
 638 0 l 1,6,-1
 498 0 l 1,7,-1
 498 626 l 1,8,-1
 126 1472 l 1,0,-1
310 1679 m 128,-1,10
 310 1721 310 1721 340 1751 c 128,-1,11
 370 1781 370 1781 413 1781 c 128,-1,12
 456 1781 456 1781 485.25390625 1751.24121094 c 128,-1,13
 514.5078125 1721.48339844 514.5078125 1721.48339844 514.5078125 1678.99121094 c 128,-1,14
 514.5078125 1636.5 514.5078125 1636.5 484.25390625 1605.75 c 128,-1,15
 454 1575 454 1575 412 1575 c 128,-1,16
 370 1575 370 1575 340 1606 c 128,-1,9
 310 1637 310 1637 310 1679 c 128,-1,10
608 1678.5 m 128,-1,18
 608 1721 608 1721 638 1751 c 128,-1,19
 668 1781 668 1781 710 1781 c 128,-1,20
 752 1781 752 1781 782 1751.5 c 128,-1,21
 812 1722 812 1722 812 1679.5 c 128,-1,22
 812 1637 812 1637 782 1606 c 128,-1,23
 752 1575 752 1575 710 1575 c 256,24,25
 668 1575 668 1575 638 1605.5 c 128,-1,17
 608 1636 608 1636 608 1678.5 c 128,-1,18
EndSplineSet
EndChar

StartChar: alpha
Encoding: 343 945 342
Width: 1120
GlyphClass: 2
Flags: W
HStem: -22 130<351.643 608.557> 0 21G<857 1021> 991 131<359.14 612.464> 1079 20G<856 1028>
VStem: 92 140<255.7 826.534> 724 139<255.442 844.608>
LayerCount: 2
Fore
SplineSet
92 507 m 128,-1,1
 92 787 92 787 172 927 c 0,2,3
 283 1122 283 1122 478 1122 c 0,4,5
 549 1122 549 1122 615.5 1095.5 c 128,-1,6
 682 1069 682 1069 719 1029 c 128,-1,7
 756 989 756 989 795 902 c 1,8,9
 835 1015 835 1015 877 1099 c 1,10,-1
 1028 1099 l 1,11,12
 950 975 950 975 924 902.5 c 128,-1,13
 898 830 898 830 880.5 732 c 128,-1,14
 863 634 863 634 863 517.5 c 128,-1,15
 863 401 863 401 896.5 282 c 128,-1,16
 930 163 930 163 1021 0 c 1,17,-1
 882 0 l 1,18,19
 832 74 832 74 787 184 c 1,20,21
 731 81 731 81 662 29.5 c 128,-1,22
 593 -22 593 -22 481 -22 c 0,23,24
 320 -22 320 -22 221 86 c 0,25,0
 92 227 92 227 92 507 c 128,-1,1
232 503.5 m 128,-1,27
 232 286 232 286 325 178 c 0,28,29
 385 108 385 108 491.5 108 c 128,-1,30
 598 108 598 108 661 218 c 128,-1,31
 724 328 724 328 724 553 c 0,32,33
 724 991 724 991 486 991 c 0,34,35
 345 991 345 991 274 822 c 0,36,26
 232 721 232 721 232 503.5 c 128,-1,27
EndSplineSet
EndChar

StartChar: beta
Encoding: 344 946 343
Width: 1120
GlyphClass: 2
Flags: W
HStem: -414 21G<186.5 326.5> -22 130.994<417.097 688.461> 701 129<434.5 623.577> 1371 130<411.333 668.442>
VStem: 186.5 140<-414 61 202.447 1281.55> 748.5 140<958.414 1284.12> 792.5 141<224.428 582.421>
LayerCount: 2
Fore
SplineSet
186.5 -414 m 1,0,-1
 186.5 1076 l 2,1,2
 186.5 1199 186.5 1199 200.5 1243 c 0,3,4
 233.5 1359 233.5 1359 331 1430 c 128,-1,5
 428.5 1501 428.5 1501 556.5 1501 c 128,-1,6
 684.5 1501 684.5 1501 776.5 1412 c 0,7,8
 828.5 1361 828.5 1361 858.5 1283.5 c 128,-1,9
 888.5 1206 888.5 1206 888.5 1123 c 256,10,11
 888.5 1040 888.5 1040 857.5 961 c 128,-1,12
 826.5 882 826.5 882 790.5 845.5 c 128,-1,13
 754.5 809 754.5 809 710.5 779 c 1,14,15
 796.5 736 796.5 736 842.5 676 c 0,16,17
 933.5 556 933.5 556 933.5 410.5 c 128,-1,18
 933.5 265 933.5 265 873 163 c 128,-1,19
 812.5 61 812.5 61 724.5 19.5 c 128,-1,20
 636.5 -22 636.5 -22 550.5 -22 c 0,21,22
 416.5 -22 416.5 -22 326.5 61 c 1,23,-1
 326.5 -414 l 1,24,-1
 186.5 -414 l 1,0,-1
326.5 451 m 2,25,26
 326.5 337 326.5 337 335.5 288 c 128,-1,27
 344.5 239 344.5 239 372.5 200 c 0,28,29
 438.5 109 438.5 109 541.5 109 c 0,30,31
 542.536132812 108.994140625 542.536132812 108.994140625 543.568359375 108.994140625 c 0,32,33
 712.8515625 108.994140625 712.8515625 108.994140625 770.5 272 c 0,34,35
 792.5 336 792.5 336 792.5 410 c 0,36,37
 792.5 545 792.5 545 718.5 621.5 c 128,-1,38
 644.5 698 644.5 698 500.5 701 c 1,39,-1
 434.5 701 l 1,40,-1
 434.5 830 l 1,41,42
 551.5 837 551.5 837 611 866.5 c 128,-1,43
 670.5 896 670.5 896 709.5 967 c 128,-1,44
 748.5 1038 748.5 1038 748.5 1130 c 128,-1,45
 748.5 1222 748.5 1222 695.5 1296.5 c 128,-1,46
 642.5 1371 642.5 1371 546.5 1371 c 128,-1,47
 450.5 1371 450.5 1371 391.5 1308 c 128,-1,48
 332.5 1245 332.5 1245 328.5 1160 c 0,49,50
 327.5 1133 327.5 1133 326.5 1029 c 1,51,-1
 326.5 451 l 2,25,26
EndSplineSet
EndChar

StartChar: gamma
Encoding: 345 947 344
Width: 1120
GlyphClass: 2
Flags: W
HStem: 1079 20G<106 255.01 855.912 1014>
VStem: 460 140<-330 69>
DStem2: 248 1099 106 1099 0.325028 -0.945704<0 864.653> 534 283 602 71 0.372013 0.928227<0 880.198>
LayerCount: 2
Fore
SplineSet
106 1099 m 1,0,-1
 248 1099 l 1,1,-1
 534 283 l 1,2,-1
 864 1099 l 1,3,-1
 1014 1099 l 1,4,-1
 602 71 l 1,5,-1
 600 -330 l 1,6,-1
 460 -330 l 1,7,-1
 460 69 l 1,8,-1
 106 1099 l 1,0,-1
EndSplineSet
EndChar

StartChar: delta
Encoding: 346 948 345
Width: 1120
GlyphClass: 2
Flags: W
HStem: -22 130<423.118 707.827> 1385 130<428 842>
VStem: 138 140<285.622 819.479> 841.501 140.499<271.015 827.61>
DStem2: 428 1385 236 1387 0.731707 -0.68162<0 245.701>
LayerCount: 2
Fore
SplineSet
138 553 m 0,0,1
 138 857 138 857 284 1008 c 0,2,3
 333 1059 333 1059 385.5 1084 c 128,-1,4
 438 1109 438 1109 516 1119 c 1,5,-1
 236 1387 l 1,6,-1
 236 1515 l 1,7,-1
 842 1515 l 1,8,-1
 842 1385 l 1,9,-1
 428 1385 l 1,10,-1
 764 1072 l 2,11,12
 880 963 880 963 931 847.5 c 128,-1,13
 982 732 982 732 982 539 c 0,14,15
 982 240 982 240 832 90 c 0,16,17
 721 -22 721 -22 576.5 -22 c 128,-1,18
 432 -22 432 -22 332 51 c 0,19,20
 138 194 138 194 138 553 c 0,0,1
278 559 m 0,21,22
 278 258 278 258 420 154 c 0,23,24
 482 108 482 108 557 108 c 0,25,26
 841.500976562 108 841.500976562 108 841.500976562 549 c 128,-1,27
 841.500976562 990 841.500976562 990 562 990 c 0,28,29
 446 990 446 990 378 912 c 0,30,31
 278 801 278 801 278 559 c 0,21,22
EndSplineSet
EndChar

StartChar: epsilon
Encoding: 347 949 346
Width: 1120
GlyphClass: 2
Flags: W
HStem: -22 130<389.949 731.76> 516 129<436.614 676> 992 129<419.487 709.237>
VStem: 174 140<183.661 430.262> 220 140<716.768 934.249> 766 140<812 916.382> 808 136<179.121 315>
LayerCount: 2
Fore
SplineSet
174 304 m 0,0,1
 174 402 174 402 223 471 c 128,-1,2
 272 540 272 540 378 590 c 1,3,4
 220 675 220 675 220 834 c 0,5,6
 220 947 220 947 309 1034 c 128,-1,7
 398 1121 398 1121 560 1121 c 128,-1,8
 722 1121 722 1121 813 1040 c 128,-1,9
 904 959 904 959 906 812 c 1,10,-1
 766 812 l 1,11,12
 764 882 764 882 739 917.5 c 128,-1,13
 714 953 714 953 665 972.5 c 128,-1,14
 616 992 616 992 545 992 c 128,-1,15
 474 992 474 992 417 946 c 128,-1,16
 360 900 360 900 360 839.5 c 128,-1,17
 360 779 360 779 390 735.5 c 128,-1,18
 420 692 420 692 465 674 c 128,-1,19
 510 656 510 656 546 651 c 128,-1,20
 582 646 582 646 676 645 c 1,21,-1
 676 515 l 1,22,23
 644 516 644 516 632 516 c 0,24,25
 480 516 480 516 397 462 c 128,-1,26
 314 408 314 408 314 316 c 128,-1,27
 314 224 314 224 374 166 c 128,-1,28
 434 108 434 108 540 108 c 0,29,30
 742 108 742 108 790 220 c 0,31,32
 802 245 802 245 808 315 c 1,33,-1
 946 315 l 1,34,35
 944 278 944 278 944 268 c 0,36,37
 930 119 930 119 810 41 c 0,38,39
 713 -22 713 -22 545.5 -22 c 128,-1,40
 378 -22 378 -22 276 75 c 128,-1,41
 174 172 174 172 174 304 c 0,0,1
EndSplineSet
EndChar

